RobotoSerifText-HairlineWideItalic.ufo
<glyph name="exclam" format="2">
  <advance width="282"/>
  <unicode hex="0021"/>
  <outline>
    <contour>
      <point x="267" y="735" type="line"/>
      <point x="228" y="540"/>
      <point x="193" y="428"/>
      <point x="139" y="171" type="curve"/>
      <point x="109" y="171" type="line"/>
      <point x="163" y="431"/>
      <point x="177" y="544"/>
      <point x="216" y="735" type="curve"/>
    </contour>
    <component base="period"/>
  </outline>
</glyph>
<glyph name="dollar" format="2">
  <advance width="652"/>
  <unicode hex="0024"/>
  <outline>
    <contour>
      <point x="305" y="8" type="curve" smooth="yes"/>
      <point x="455" y="8"/>
      <point x="570" y="75"/>
      <point x="570" y="198" type="curve" smooth="yes"/>
      <point x="570" y="300"/>
      <point x="464" y="340"/>
      <point x="376" y="375" type="curve" smooth="yes"/>
      <point x="273" y="415"/>
      <point x="179" y="446"/>
      <point x="179" y="534" type="curve" smooth="yes"/>
      <point x="179" y="615"/>
      <point x="252" y="667"/>
      <point x="390" y="667" type="curve" smooth="yes"/>
      <point x="479" y="667"/>
      <point x="576" y="652"/>
      <point x="607" y="605" type="curve"/>
      <point x="618" y="623"/>
      <point x="593" y="646"/>
      <point x="580" y="651" type="curve"/>
      <point x="560" y="552" type="line"/>
      <point x="613" y="552" type="line"/>
      <point x="632" y="643" type="line"/>
      <point x="589" y="671"/>
      <point x="512" y="698"/>
      <point x="396" y="698" type="curve" smooth="yes"/>
      <point x="237" y="698"/>
      <point x="141" y="634"/>
      <point x="141" y="531" type="curve" smooth="yes"/>
      <point x="141" y="431"/>
      <point x="234" y="392"/>
      <point x="319" y="356" type="curve" smooth="yes"/>
      <point x="420" y="314"/>
      <point x="532" y="287"/>
      <point x="532" y="195" type="curve" smooth="yes"/>
      <point x="532" y="92"/>
      <point x="442" y="39"/>
      <point x="310" y="39" type="curve" smooth="yes"/>
      <point x="189" y="39"/>
      <point x="91" y="66"/>
      <point x="40" y="127" type="curve"/>
      <point x="38" y="113"/>
      <point x="51" y="101"/>
      <point x="61" y="80" type="curve"/>
      <point x="83" y="185" type="line"/>
      <point x="32" y="185" type="line"/>
      <point x="13" y="97" type="line"/>
      <point x="60" y="54"/>
      <point x="152" y="8"/>
    </contour>
    <contour>
      <point x="231" y="-120" type="line"/>
      <point x="270" y="-120" type="line"/>
      <point x="299" y="21" type="line"/>
      <point x="300" y="27" type="line"/>
      <point x="433" y="675" type="line"/>
      <point x="435" y="688" type="line"/>
      <point x="456" y="787" type="line"/>
      <point x="417" y="787" type="line"/>
      <point x="396" y="688" type="line"/>
      <point x="395" y="679" type="line"/>
      <point x="261" y="30" type="line"/>
      <point x="259" y="25" type="line"/>
    </contour>
  </outline>
</glyph>
<glyph name="parenleft" format="2">
  <advance width="355"/>
  <unicode hex="0028"/>
  <outline>
    <contour>
      <point x="116" y="229" type="curve" smooth="yes"/>
      <point x="116" y="69"/>
      <point x="182" y="-51"/>
      <point x="266" y="-127" type="curve"/>
      <point x="265" y="-130" type="line"/>
      <point x="226" y="-130" type="line"/>
      <point x="141" y="-55"/>
      <point x="75" y="67"/>
      <point x="75" y="230" type="curve" smooth="yes"/>
      <point x="75" y="478"/>
      <point x="246" y="667"/>
      <point x="408" y="750" type="curve"/>
      <point x="448" y="750" type="line"/>
      <point x="447" y="747" type="line"/>
      <point x="272" y="646"/>
      <point x="116" y="468"/>
    </contour>
  </outline>
</glyph>
<glyph name="comma" format="2">
  <advance width="218"/>
  <unicode hex="002C"/>
  <outline>
    <contour>
      <point x="26" y="-123" type="line"/>
      <point x="105" y="-84"/>
      <point x="138" y="-16"/>
      <point x="138" y="21" type="curve" smooth="yes"/>
      <point x="138" y="49"/>
      <point x="120" y="66"/>
      <point x="95" y="66" type="curve" smooth="yes"/>
      <point x="69" y="66"/>
      <point x="52" y="49"/>
      <point x="52" y="27" type="curve" smooth="yes"/>
      <point x="52" y="4"/>
      <point x="70" y="-10"/>
      <point x="90" y="-10" type="curve" smooth="yes"/>
      <point x="106" y="-10"/>
      <point x="118" y="-4"/>
      <point x="124" y="9" type="curve"/>
      <point x="118" y="7"/>
      <point x="109" y="4"/>
      <point x="109" y="3" type="curve"/>
      <point x="104" y="-26"/>
      <point x="66" y="-78"/>
      <point x="2" y="-104" type="curve"/>
    </contour>
  </outline>
</glyph>
<glyph name="hyphen" format="2">
  <advance width="493"/>
  <unicode hex="002D"/>
  <outline>
    <contour>
      <point x="104" y="335" type="line"/>
      <point x="95" y="287" type="line"/>
      <point x="402" y="287" type="line"/>
      <point x="410" y="335" type="line"/>
    </contour>
  </outline>
</glyph>
<glyph name="period" format="2">
  <advance width="223"/>
  <unicode hex="002E"/>
  <outline>
    <contour>
      <point x="142" y="28" type="curve" smooth="yes"/>
      <point x="142" y="52"/>
      <point x="125" y="66"/>
      <point x="102" y="66" type="curve" smooth="yes"/>
      <point x="78" y="66"/>
      <point x="61" y="52"/>
      <point x="61" y="28" type="curve" smooth="yes"/>
      <point x="61" y="5"/>
      <point x="78" y="-10"/>
      <point x="102" y="-10" type="curve" smooth="yes"/>
      <point x="125" y="-10"/>
      <point x="142" y="5"/>
    </contour>
  </outline>
</glyph>
<glyph name="zero" format="2">
  <advance width="652"/>
  <unicode hex="0030"/>
  <outline>
    <contour>
      <point x="287" y="-11" type="curve" smooth="yes"/>
      <point x="474" y="-11"/>
      <point x="617" y="160"/>
      <point x="617" y="352" type="curve" smooth="yes"/>
      <point x="617" y="513"/>
      <point x="514" y="619"/>
      <point x="379" y="619" type="curve" smooth="yes"/>
      <point x="192" y="619"/>
      <point x="49" y="448"/>
      <point x="49" y="256" type="curve" smooth="yes"/>
      <point x="49" y="95"/>
      <point x="153" y="-11"/>
    </contour>
    <contour>
      <point x="291" y="20" type="curve"/>
      <point x="168" y="20"/>
      <point x="93" y="106"/>
      <point x="93" y="255" type="curve" smooth="yes"/>
      <point x="93" y="274"/>
      <point x="96" y="300"/>
      <point x="103" y="329" type="curve" smooth="yes"/>
      <point x="138" y="489"/>
      <point x="250" y="588"/>
      <point x="376" y="588" type="curve"/>
      <point x="498" y="588"/>
      <point x="573" y="502"/>
      <point x="573" y="353" type="curve" smooth="yes"/>
      <point x="573" y="334"/>
      <point x="569" y="308"/>
      <point x="562" y="279" type="curve" smooth="yes"/>
      <point x="527" y="119"/>
      <point x="416" y="20"/>
    </contour>
  </outline>
</glyph>
<glyph name="one" format="2">
  <advance width="652"/>
  <unicode hex="0031"/>
  <outline>
    <contour>
      <point x="355" y="64" type="curve" smooth="yes"/>
      <point x="469" y="609" type="line"/>
      <point x="444" y="609" type="line"/>
      <point x="393" y="557"/>
      <point x="304" y="535"/>
      <point x="203" y="533" type="curve"/>
      <point x="197" y="502" type="line"/>
      <point x="290" y="500"/>
      <point x="396" y="526"/>
      <point x="428" y="572" type="curve"/>
      <point x="421" y="571" type="line"/>
      <point x="315" y="64" type="line" smooth="yes"/>
      <point x="309" y="35"/>
      <point x="257" y="28"/>
      <point x="182" y="28" type="curve" smooth="yes"/>
      <point x="109" y="28" type="line"/>
      <point x="104" y="0" type="line"/>
      <point x="533" y="0" type="line"/>
      <point x="539" y="28" type="line"/>
      <point x="479" y="28" type="line" smooth="yes"/>
      <point x="396" y="28"/>
      <point x="349" y="35"/>
    </contour>
  </outline>
</glyph>
<glyph name="three" format="2">
  <advance width="652"/>
  <unicode hex="0033"/>
  <outline>
    <contour>
      <point x="300" y="-90" type="curve" smooth="yes"/>
      <point x="149" y="-90"/>
      <point x="47" y="-20"/>
      <point x="13" y="90" type="curve"/>
      <point x="47" y="103" type="line"/>
      <point x="73" y="22"/>
      <point x="151" y="-59"/>
      <point x="300" y="-59" type="curve" smooth="yes"/>
      <point x="437" y="-59"/>
      <point x="522" y="15"/>
      <point x="522" y="118" type="curve" smooth="yes"/>
      <point x="522" y="204"/>
      <point x="451" y="269"/>
      <point x="301" y="269" type="curve" smooth="yes"/>
      <point x="229" y="269" type="line"/>
      <point x="234" y="299" type="line"/>
      <point x="298" y="299" type="line" smooth="yes"/>
      <point x="457" y="299"/>
      <point x="547" y="360"/>
      <point x="547" y="463" type="curve" smooth="yes"/>
      <point x="547" y="543"/>
      <point x="482" y="587"/>
      <point x="374" y="587" type="curve" smooth="yes"/>
      <point x="276" y="587"/>
      <point x="218" y="554"/>
      <point x="181" y="526" type="curve"/>
      <point x="192" y="551"/>
      <point x="219" y="568"/>
      <point x="218" y="570" type="curve"/>
      <point x="197" y="467" type="line"/>
      <point x="146" y="467" type="line"/>
      <point x="163" y="559" type="line"/>
      <point x="200" y="582"/>
      <point x="267" y="618"/>
      <point x="373" y="618" type="curve" smooth="yes"/>
      <point x="504" y="618"/>
      <point x="591" y="561"/>
      <point x="591" y="463" type="curve" smooth="yes"/>
      <point x="591" y="349"/>
      <point x="473" y="283"/>
      <point x="330" y="283" type="curve"/>
      <point x="380" y="292" type="line"/>
      <point x="375" y="279" type="line"/>
      <point x="336" y="289" type="line"/>
      <point x="508" y="276"/>
      <point x="566" y="202"/>
      <point x="566" y="118" type="curve" smooth="yes"/>
      <point x="566" y="0"/>
      <point x="460" y="-90"/>
    </contour>
  </outline>
</glyph>
<glyph name="five" format="2">
  <advance width="652"/>
  <unicode hex="0035"/>
  <outline>
    <contour>
      <point x="291" y="-90" type="curve" smooth="yes"/>
      <point x="470" y="-90"/>
      <point x="587" y="23"/>
      <point x="587" y="166" type="curve" smooth="yes"/>
      <point x="587" y="279"/>
      <point x="505" y="366"/>
      <point x="356" y="366" type="curve" smooth="yes"/>
      <point x="261" y="366"/>
      <point x="182" y="328"/>
      <point x="127" y="259" type="curve"/>
      <point x="150" y="265" type="line"/>
      <point x="218" y="589" type="line"/>
      <point x="199" y="571" type="line"/>
      <point x="595" y="571" type="line"/>
      <point x="611" y="609" type="line"/>
      <point x="189" y="609" type="line"/>
      <point x="112" y="240" type="line"/>
      <point x="139" y="240" type="line"/>
      <point x="195" y="304"/>
      <point x="262" y="335"/>
      <point x="359" y="335" type="curve" smooth="yes"/>
      <point x="478" y="335"/>
      <point x="543" y="266"/>
      <point x="543" y="166" type="curve" smooth="yes"/>
      <point x="543" y="38"/>
      <point x="448" y="-59"/>
      <point x="291" y="-59" type="curve" smooth="yes"/>
      <point x="129" y="-59"/>
      <point x="82" y="37"/>
      <point x="61" y="90" type="curve"/>
      <point x="26" y="75" type="line"/>
      <point x="57" y="-3"/>
      <point x="125" y="-90"/>
    </contour>
  </outline>
</glyph>
<glyph name="six" format="2">
  <advance width="652"/>
  <unicode hex="0036"/>
  <outline>
    <contour>
      <point x="333" y="-10" type="curve" smooth="yes"/>
      <point x="494" y="-10"/>
      <point x="609" y="112"/>
      <point x="609" y="250" type="curve" smooth="yes"/>
      <point x="609" y="366"/>
      <point x="522" y="459"/>
      <point x="369" y="459" type="curve" smooth="yes"/>
      <point x="258" y="459"/>
      <point x="153" y="396"/>
      <point x="94" y="291" type="curve"/>
      <point x="105" y="264" type="line"/>
      <point x="164" y="368"/>
      <point x="261" y="428"/>
      <point x="371" y="428" type="curve" smooth="yes"/>
      <point x="493" y="428"/>
      <point x="565" y="349"/>
      <point x="565" y="250" type="curve" smooth="yes"/>
      <point x="565" y="212"/>
      <point x="556" y="175"/>
      <point x="537" y="142" type="curve" smooth="yes"/>
      <point x="500" y="72"/>
      <point x="428" y="21"/>
      <point x="332" y="21" type="curve" smooth="yes"/>
      <point x="214" y="21"/>
      <point x="114" y="94"/>
      <point x="114" y="242" type="curve" smooth="yes"/>
      <point x="114" y="268"/>
      <point x="114" y="296"/>
      <point x="118" y="323" type="curve" smooth="yes"/>
      <point x="160" y="534"/>
      <point x="370" y="687"/>
      <point x="618" y="709" type="curve"/>
      <point x="618" y="740" type="line"/>
      <point x="279" y="709"/>
      <point x="70" y="468"/>
      <point x="70" y="250" type="curve" smooth="yes"/>
      <point x="70" y="78"/>
      <point x="191" y="-10"/>
    </contour>
  </outline>
</glyph>
<glyph name="seven" format="2">
  <advance width="652"/>
  <unicode hex="0037"/>
  <outline>
    <contour>
      <point x="324" y="571" type="line" smooth="yes"/>
      <point x="223" y="571"/>
      <point x="180" y="564"/>
      <point x="169" y="528" type="curve" smooth="yes"/>
      <point x="138" y="438" type="line"/>
      <point x="111" y="438" type="line"/>
      <point x="144" y="609" type="line"/>
      <point x="674" y="609" type="line"/>
      <point x="668" y="571" type="line"/>
      <point x="481" y="409"/>
      <point x="316" y="236"/>
      <point x="246" y="-77" type="curve"/>
      <point x="201" y="-77" type="line"/>
      <point x="278" y="243"/>
      <point x="465" y="446"/>
      <point x="644" y="586" type="curve"/>
      <point x="655" y="571" type="line"/>
    </contour>
  </outline>
</glyph>
<glyph name="eight" format="2">
  <advance width="652"/>
  <unicode hex="0038"/>
  <outline>
    <contour>
      <point x="315" y="21" type="curve" smooth="yes"/>
      <point x="188" y="21"/>
      <point x="95" y="90"/>
      <point x="95" y="187" type="curve" smooth="yes"/>
      <point x="95" y="198"/>
      <point x="97" y="208"/>
      <point x="99" y="219" type="curve" smooth="yes"/>
      <point x="119" y="313"/>
      <point x="210" y="361"/>
      <point x="326" y="361" type="curve"/>
      <point x="465" y="361"/>
      <point x="542" y="290"/>
      <point x="542" y="198" type="curve" smooth="yes"/>
      <point x="542" y="186"/>
      <point x="540" y="168"/>
      <point x="535" y="154" type="curve" smooth="yes"/>
      <point x="506" y="68"/>
      <point x="431" y="21"/>
    </contour>
    <contour>
      <point x="374" y="391" type="curve" smooth="yes"/>
      <point x="288" y="391"/>
      <point x="203" y="444"/>
      <point x="203" y="535" type="curve" smooth="yes"/>
      <point x="203" y="544"/>
      <point x="204" y="552"/>
      <point x="207" y="562" type="curve" smooth="yes"/>
      <point x="226" y="647"/>
      <point x="306" y="689"/>
      <point x="401" y="689" type="curve" smooth="yes"/>
      <point x="497" y="689"/>
      <point x="574" y="634"/>
      <point x="574" y="551" type="curve" smooth="yes"/>
      <point x="574" y="541"/>
      <point x="573" y="528"/>
      <point x="570" y="517" type="curve" smooth="yes"/>
      <point x="553" y="434"/>
      <point x="465" y="391"/>
    </contour>
    <contour>
      <point x="316" y="-10" type="curve" smooth="yes"/>
      <point x="472" y="-10"/>
      <point x="586" y="80"/>
      <point x="586" y="197" type="curve" smooth="yes"/>
      <point x="586" y="278"/>
      <point x="521" y="353"/>
      <point x="408" y="378" type="curve"/>
      <point x="431" y="366" type="line"/>
      <point x="434" y="379" type="line"/>
      <point x="405" y="369" type="line"/>
      <point x="527" y="380"/>
      <point x="617" y="454"/>
      <point x="617" y="551" type="curve" smooth="yes"/>
      <point x="617" y="648"/>
      <point x="520" y="720"/>
      <point x="400" y="720" type="curve" smooth="yes"/>
      <point x="258" y="720"/>
      <point x="161" y="637"/>
      <point x="161" y="535" type="curve" smooth="yes"/>
      <point x="161" y="455"/>
      <point x="228" y="398"/>
      <point x="306" y="377" type="curve"/>
      <point x="281" y="391" type="line"/>
      <point x="278" y="376" type="line"/>
      <point x="310" y="387" type="line"/>
      <point x="149" y="381"/>
      <point x="52" y="291"/>
      <point x="52" y="187" type="curve" smooth="yes"/>
      <point x="52" y="74"/>
      <point x="166" y="-10"/>
    </contour>
  </outline>
</glyph>
<glyph name="question" format="2">
  <advance width="578"/>
  <unicode hex="003F"/>
  <outline>
    <contour>
      <point x="240" y="354" type="curve"/>
      <point x="207" y="194" type="line"/>
      <point x="242" y="194" type="line"/>
      <point x="270" y="331" type="line"/>
      <point x="410" y="353"/>
      <point x="550" y="417"/>
      <point x="550" y="562" type="curve" smooth="yes"/>
      <point x="550" y="678"/>
      <point x="462" y="740"/>
      <point x="327" y="740" type="curve" smooth="yes"/>
      <point x="222" y="740"/>
      <point x="159" y="703"/>
      <point x="128" y="684" type="curve"/>
      <point x="110" y="589" type="line"/>
      <point x="161" y="589" type="line"/>
      <point x="179" y="685" type="line"/>
      <point x="146" y="684"/>
      <point x="145" y="657"/>
      <point x="146" y="650" type="curve"/>
      <point x="180" y="677"/>
      <point x="235" y="709"/>
      <point x="327" y="709" type="curve" smooth="yes"/>
      <point x="445" y="709"/>
      <point x="506" y="656"/>
      <point x="506" y="562" type="curve" smooth="yes"/>
      <point x="506" y="437"/>
      <point x="399" y="376"/>
    </contour>
    <component base="period" xOffset="96"/>
  </outline>
</glyph>
<glyph name="A" format="2">
  <advance width="773"/>
  <unicode hex="0041"/>
  <anchor x="377" y="721" name="top"/>
  <anchor x="570" y="0" name="right"/>
  <anchor x="377" y="0" name="bottom"/>
  <outline>
    <contour>
      <point x="205" y="298" type="line"/>
      <point x="193" y="267" type="line"/>
      <point x="550" y="267" type="line"/>
      <point x="554" y="298" type="line"/>
    </contour>
    <contour>
      <point x="457" y="693" type="line"/>
      <point x="584" y="41" type="line"/>
      <point x="583" y="34"/>
      <point x="527" y="31"/>
      <point x="483" y="31" type="curve" smooth="yes"/>
      <point x="463" y="31" type="line"/>
      <point x="456" y="0" type="line"/>
      <point x="693" y="0" type="line"/>
      <point x="700" y="31" type="line"/>
      <point x="693" y="31" type="line"/>
      <point x="654" y="31"/>
      <point x="628" y="33"/>
      <point x="624" y="59" type="curve" smooth="yes"/>
      <point x="494" y="710" type="line"/>
      <point x="433" y="710" type="line"/>
      <point x="47" y="73" type="line" smooth="yes"/>
      <point x="24" y="37"/>
      <point x="0" y="31"/>
      <point x="-43" y="31" type="curve"/>
      <point x="-50" y="31" type="line"/>
      <point x="-56" y="0" type="line"/>
      <point x="179" y="0" type="line"/>
      <point x="186" y="31" type="line"/>
      <point x="168" y="31" type="line" smooth="yes"/>
      <point x="124" y="31"/>
      <point x="71" y="38"/>
      <point x="74" y="49" type="curve"/>
      <point x="464" y="693" type="line"/>
    </contour>
  </outline>
</glyph>
<glyph name="B" format="2">
  <advance width="713"/>
  <unicode hex="0042"/>
  <outline>
    <contour>
      <point x="373" y="357" type="line"/>
      <point x="507" y="357"/>
      <point x="582" y="286"/>
      <point x="582" y="204" type="curve" smooth="yes"/>
      <point x="582" y="106"/>
      <point x="522" y="31"/>
      <point x="348" y="31" type="curve" smooth="yes"/>
      <point x="141" y="31" type="line"/>
      <point x="208" y="357" type="line"/>
    </contour>
    <contour>
      <point x="407" y="679" type="line" smooth="yes"/>
      <point x="549" y="679"/>
      <point x="608" y="630"/>
      <point x="608" y="553" type="curve" smooth="yes"/>
      <point x="608" y="460"/>
      <point x="536" y="387"/>
      <point x="373" y="387" type="curve"/>
      <point x="214" y="387" type="line"/>
      <point x="274" y="679" type="line"/>
    </contour>
    <contour>
      <point x="344" y="364" type="line"/>
      <point x="570" y="364"/>
      <point x="652" y="452"/>
      <point x="652" y="553" type="curve" smooth="yes"/>
      <point x="652" y="643"/>
      <point x="574" y="710"/>
      <point x="411" y="710" type="curve" smooth="yes"/>
      <point x="128" y="710" type="line"/>
      <point x="122" y="679" type="line"/>
      <point x="135" y="679" type="line" smooth="yes"/>
      <point x="191" y="679"/>
      <point x="233" y="672"/>
      <point x="227" y="643" type="curve" smooth="yes"/>
      <point x="107" y="67" type="line" smooth="yes"/>
      <point x="101" y="38"/>
      <point x="59" y="31"/>
      <point x="2" y="31" type="curve" smooth="yes"/>
      <point x="-12" y="31" type="line"/>
      <point x="-18" y="0" type="line"/>
      <point x="340" y="0" type="line" smooth="yes"/>
      <point x="546" y="0"/>
      <point x="628" y="89"/>
      <point x="628" y="204" type="curve" smooth="yes"/>
      <point x="628" y="296"/>
      <point x="538" y="381"/>
      <point x="351" y="382" type="curve"/>
      <point x="452" y="363" type="line"/>
      <point x="456" y="379" type="line"/>
    </contour>
  </outline>
</glyph>
<glyph name="C" format="2">
  <advance width="778"/>
  <unicode hex="0043"/>
  <anchor x="411" y="741" name="top"/>
  <anchor x="411" y="0" name="bottom"/>
  <outline>
    <contour>
      <point x="459" y="689" type="curve"/>
      <point x="614" y="689"/>
      <point x="667" y="597"/>
      <point x="696" y="506" type="curve"/>
      <point x="729" y="506" type="line"/>
      <point x="770" y="710" type="line"/>
      <point x="745" y="710" type="line"/>
      <point x="697" y="548" type="line"/>
      <point x="712" y="558" type="line"/>
      <point x="685" y="623"/>
      <point x="628" y="720"/>
      <point x="458" y="720" type="curve"/>
      <point x="220" y="720"/>
      <point x="52" y="539"/>
      <point x="52" y="319" type="curve" smooth="yes"/>
      <point x="52" y="131"/>
      <point x="188" y="-10"/>
      <point x="390" y="-10" type="curve" smooth="yes"/>
      <point x="559" y="-10"/>
      <point x="656" y="70"/>
      <point x="714" y="198" type="curve"/>
      <point x="683" y="216" type="line"/>
      <point x="632" y="101"/>
      <point x="554" y="21"/>
      <point x="390" y="21" type="curve" smooth="yes"/>
      <point x="207" y="21"/>
      <point x="96" y="148"/>
      <point x="96" y="319" type="curve" smooth="yes"/>
      <point x="96" y="528"/>
      <point x="248" y="689"/>
    </contour>
  </outline>
</glyph>
<glyph name="G" format="2">
  <advance width="846"/>
  <unicode hex="0047"/>
  <anchor x="432" y="741" name="top"/>
  <anchor x="432" y="0" name="bottom"/>
  <outline>
    <contour>
      <point x="683" y="81" type="curve"/>
      <point x="722" y="285" type="line"/>
      <point x="728" y="315"/>
      <point x="764" y="322"/>
      <point x="816" y="322" type="curve" smooth="yes"/>
      <point x="821" y="322" type="line"/>
      <point x="828" y="353" type="line"/>
      <point x="586" y="353" type="line"/>
      <point x="579" y="322" type="line"/>
      <point x="596" y="322" type="line" smooth="yes"/>
      <point x="659" y="322"/>
      <point x="690" y="313"/>
      <point x="685" y="286" type="curve"/>
      <point x="649" y="97" type="line"/>
      <point x="628" y="82"/>
      <point x="553" y="21"/>
      <point x="419" y="21" type="curve" smooth="yes"/>
      <point x="198" y="21"/>
      <point x="96" y="156"/>
      <point x="96" y="320" type="curve" smooth="yes"/>
      <point x="96" y="509"/>
      <point x="237" y="689"/>
      <point x="472" y="689" type="curve" smooth="yes"/>
      <point x="626" y="689"/>
      <point x="680" y="608"/>
      <point x="716" y="506" type="curve"/>
      <point x="749" y="506" type="line"/>
      <point x="791" y="710" type="line"/>
      <point x="765" y="710" type="line"/>
      <point x="717" y="549" type="line"/>
      <point x="732" y="548" type="line"/>
      <point x="707" y="626"/>
      <point x="641" y="720"/>
      <point x="472" y="720" type="curve" smooth="yes"/>
      <point x="219" y="720"/>
      <point x="53" y="532"/>
      <point x="53" y="320" type="curve" smooth="yes"/>
      <point x="53" y="138"/>
      <point x="181" y="-10"/>
      <point x="420" y="-10" type="curve" smooth="yes"/>
      <point x="553" y="-10"/>
      <point x="642" y="50"/>
    </contour>
  </outline>
</glyph>
<glyph name="J" format="2">
  <advance width="598"/>
  <unicode hex="004A"/>
  <anchor x="389" y="741" name="top"/>
  <outline>
    <contour>
      <point x="463" y="643" type="curve" smooth="yes"/>
      <point x="373" y="208" type="line" smooth="yes"/>
      <point x="346" y="75"/>
      <point x="287" y="21"/>
      <point x="171" y="21" type="curve" smooth="yes"/>
      <point x="77" y="21"/>
      <point x="26" y="58"/>
      <point x="11" y="85" type="curve"/>
      <point x="0" y="82"/>
      <point x="1" y="49"/>
      <point x="39" y="45" type="curve"/>
      <point x="59" y="137" type="line"/>
      <point x="6" y="137" type="line"/>
      <point x="-14" y="50" type="line"/>
      <point x="4" y="29"/>
      <point x="71" y="-10"/>
      <point x="171" y="-10" type="curve" smooth="yes"/>
      <point x="298" y="-10"/>
      <point x="380" y="45"/>
      <point x="411" y="202" type="curve" smooth="yes"/>
      <point x="504" y="643" type="line" smooth="yes"/>
      <point x="509" y="672"/>
      <point x="552" y="679"/>
      <point x="609" y="679" type="curve" smooth="yes"/>
      <point x="622" y="679" type="line"/>
      <point x="628" y="710" type="line"/>
      <point x="352" y="710" type="line"/>
      <point x="346" y="679" type="line"/>
      <point x="371" y="679" type="line" smooth="yes"/>
      <point x="428" y="679"/>
      <point x="469" y="672"/>
    </contour>
  </outline>
</glyph>
<glyph name="M" format="2">
  <advance width="1023"/>
  <unicode hex="004D"/>
  <anchor x="502" y="0" name="bottom"/>
  <outline>
    <contour>
      <point x="-18" y="0" type="line"/>
      <point x="232" y="0" type="line"/>
      <point x="237" y="31" type="line"/>
      <point x="232" y="31" type="line" smooth="yes"/>
      <point x="194" y="31"/>
      <point x="138" y="34"/>
      <point x="139" y="41" type="curve" smooth="yes"/>
      <point x="277" y="707" type="line"/>
      <point x="270" y="700" type="line"/>
      <point x="426" y="-2" type="line"/>
      <point x="459" y="-2" type="line"/>
      <point x="901" y="699" type="line"/>
      <point x="899" y="706" type="line"/>
      <point x="760" y="41" type="line" smooth="yes"/>
      <point x="759" y="34"/>
      <point x="713" y="31"/>
      <point x="671" y="31" type="curve" smooth="yes"/>
      <point x="660" y="31" type="line"/>
      <point x="655" y="0" type="line"/>
      <point x="906" y="0" type="line"/>
      <point x="912" y="31" type="line"/>
      <point x="899" y="31" type="line" smooth="yes"/>
      <point x="842" y="31"/>
      <point x="801" y="38"/>
      <point x="807" y="66" type="curve" smooth="yes"/>
      <point x="926" y="643" type="line" smooth="yes"/>
      <point x="932" y="672"/>
      <point x="975" y="679"/>
      <point x="1033" y="679" type="curve" smooth="yes"/>
      <point x="1045" y="679" type="line"/>
      <point x="1052" y="710" type="line"/>
      <point x="867" y="710" type="line"/>
      <point x="438" y="32" type="line"/>
      <point x="457" y="42" type="line"/>
      <point x="313" y="710" type="line"/>
      <point x="128" y="710" type="line"/>
      <point x="121" y="679" type="line"/>
      <point x="133" y="679" type="line" smooth="yes"/>
      <point x="191" y="679"/>
      <point x="232" y="672"/>
      <point x="226" y="643" type="curve" smooth="yes"/>
      <point x="106" y="67" type="line" smooth="yes"/>
      <point x="100" y="38"/>
      <point x="57" y="31"/>
      <point x="0" y="31" type="curve"/>
      <point x="-13" y="31" type="line"/>
    </contour>
  </outline>
</glyph>
<glyph name="P" format="2">
  <advance width="689"/>
  <unicode hex="0050"/>
  <outline>
    <contour>
      <point x="202" y="329" type="line"/>
      <point x="274" y="679" type="line"/>
      <point x="407" y="679" type="line" smooth="yes"/>
      <point x="575" y="679"/>
      <point x="643" y="618"/>
      <point x="643" y="526" type="curve" smooth="yes"/>
      <point x="643" y="422"/>
      <point x="580" y="329"/>
      <point x="374" y="329" type="curve" smooth="yes"/>
    </contour>
    <contour>
      <point x="128" y="710" type="line"/>
      <point x="122" y="679" type="line"/>
      <point x="135" y="679" type="line" smooth="yes"/>
      <point x="191" y="679"/>
      <point x="233" y="672"/>
      <point x="227" y="643" type="curve" smooth="yes"/>
      <point x="108" y="66" type="line" smooth="yes"/>
      <point x="101" y="38"/>
      <point x="58" y="31"/>
      <point x="2" y="31" type="curve" smooth="yes"/>
      <point x="-12" y="31" type="line"/>
      <point x="-18" y="0" type="line"/>
      <point x="255" y="0" type="line"/>
      <point x="262" y="31" type="line"/>
      <point x="231" y="31" type="line" smooth="yes"/>
      <point x="191" y="31"/>
      <point x="141" y="34"/>
      <point x="142" y="41" type="curve" smooth="yes"/>
      <point x="196" y="299" type="line"/>
      <point x="372" y="299" type="line" smooth="yes"/>
      <point x="596" y="299"/>
      <point x="687" y="409"/>
      <point x="687" y="526" type="curve" smooth="yes"/>
      <point x="687" y="635"/>
      <point x="602" y="710"/>
      <point x="408" y="710" type="curve" smooth="yes"/>
    </contour>
  </outline>
</glyph>
<glyph name="Q" format="2">
  <advance width="857"/>
  <unicode hex="0051"/>
  <outline>
    <contour>
      <point x="817" y="389" type="curve" smooth="yes"/>
      <point x="817" y="562"/>
      <point x="692" y="720"/>
      <point x="468" y="720" type="curve" smooth="yes"/>
      <point x="213" y="720"/>
      <point x="52" y="522"/>
      <point x="52" y="321" type="curve" smooth="yes"/>
      <point x="52" y="149"/>
      <point x="178" y="-10"/>
      <point x="402" y="-10" type="curve" smooth="yes"/>
      <point x="657" y="-10"/>
      <point x="817" y="188"/>
    </contour>
    <contour>
      <point x="401" y="21" type="curve" smooth="yes"/>
      <point x="193" y="21"/>
      <point x="96" y="166"/>
      <point x="96" y="321" type="curve" smooth="yes"/>
      <point x="96" y="372"/>
      <point x="106" y="422"/>
      <point x="123" y="469" type="curve" smooth="yes"/>
      <point x="175" y="591"/>
      <point x="296" y="689"/>
      <point x="468" y="689" type="curve" smooth="yes"/>
      <point x="677" y="689"/>
      <point x="774" y="544"/>
      <point x="774" y="389" type="curve" smooth="yes"/>
      <point x="774" y="338"/>
      <point x="764" y="288"/>
      <point x="747" y="241" type="curve" smooth="yes"/>
      <point x="695" y="119"/>
      <point x="574" y="21"/>
    </contour>
    <contour>
      <point x="581" y="-179" type="curve" smooth="yes"/>
      <point x="638" y="-179"/>
      <point x="685" y="-173"/>
      <point x="717" y="-164" type="curve"/>
      <point x="724" y="-121" type="line"/>
      <point x="684" y="-133"/>
      <point x="629" y="-144"/>
      <point x="569" y="-144" type="curve" smooth="yes"/>
      <point x="469" y="-144"/>
      <point x="408" y="-117"/>
      <point x="408" y="-43" type="curve" smooth="yes"/>
      <point x="408" y="-27"/>
      <point x="412" y="-7"/>
      <point x="417" y="14" type="curve"/>
      <point x="384" y="1" type="line"/>
      <point x="379" y="-18"/>
      <point x="377" y="-35"/>
      <point x="377" y="-51" type="curve" smooth="yes"/>
      <point x="377" y="-143"/>
      <point x="460" y="-179"/>
    </contour>
  </outline>
</glyph>
<glyph name="R" format="2">
  <advance width="751"/>
  <unicode hex="0052"/>
  <anchor x="408" y="741" name="top"/>
  <anchor x="408" y="0" name="bottom"/>
  <outline>
    <contour>
      <point x="-18" y="0" type="line"/>
      <point x="234" y="0" type="line"/>
      <point x="241" y="31" type="line"/>
      <point x="230" y="31" type="line" smooth="yes"/>
      <point x="191" y="31"/>
      <point x="141" y="34"/>
      <point x="142" y="41" type="curve" smooth="yes"/>
      <point x="201" y="318" type="line"/>
      <point x="364" y="318" type="line" smooth="yes"/>
      <point x="388" y="318"/>
      <point x="413" y="320"/>
      <point x="435" y="324" type="curve" smooth="yes"/>
      <point x="577" y="343"/>
      <point x="666" y="420"/>
      <point x="666" y="534" type="curve" smooth="yes"/>
      <point x="666" y="639"/>
      <point x="577" y="710"/>
      <point x="402" y="710" type="curve" smooth="yes"/>
      <point x="129" y="710" type="line"/>
      <point x="122" y="679" type="line"/>
      <point x="135" y="679" type="line" smooth="yes"/>
      <point x="191" y="679"/>
      <point x="233" y="672"/>
      <point x="227" y="643" type="curve" smooth="yes"/>
      <point x="108" y="66" type="line" smooth="yes"/>
      <point x="101" y="38"/>
      <point x="59" y="31"/>
      <point x="2" y="31" type="curve" smooth="yes"/>
      <point x="-12" y="31" type="line"/>
    </contour>
    <contour>
      <point x="391" y="679" type="line" smooth="yes"/>
      <point x="550" y="679"/>
      <point x="622" y="624"/>
      <point x="622" y="535" type="curve" smooth="yes"/>
      <point x="622" y="427"/>
      <point x="540" y="349"/>
      <point x="370" y="349" type="curve" smooth="yes"/>
      <point x="206" y="349" type="line"/>
      <point x="274" y="679" type="line"/>
    </contour>
    <contour>
      <point x="410" y="331" type="line"/>
      <point x="562" y="0" type="line"/>
      <point x="673" y="0" type="line"/>
      <point x="680" y="31" type="line"/>
      <point x="664" y="31" type="line" smooth="yes"/>
      <point x="624" y="31"/>
      <point x="595" y="36"/>
      <point x="584" y="59" type="curve" smooth="yes"/>
      <point x="443" y="346" type="line"/>
    </contour>
  </outline>
</glyph>
<glyph name="T" format="2">
  <advance width="732"/>
  <unicode hex="0054"/>
  <anchor x="379" y="741" name="top"/>
  <anchor x="379" y="0" name="bottom"/>
  <outline>
    <contour>
      <point x="289" y="67" type="line" smooth="yes"/>
      <point x="283" y="38"/>
      <point x="240" y="31"/>
      <point x="183" y="31" type="curve" smooth="yes"/>
      <point x="164" y="31" type="line"/>
      <point x="157" y="0" type="line"/>
      <point x="433" y="0" type="line"/>
      <point x="440" y="31" type="line"/>
      <point x="421" y="31" type="line" smooth="yes"/>
      <point x="364" y="31"/>
      <point x="323" y="38"/>
      <point x="329" y="67" type="curve" smooth="yes"/>
      <point x="456" y="679" type="line"/>
      <point x="573" y="679" type="line" smooth="yes"/>
      <point x="674" y="679"/>
      <point x="715" y="672"/>
      <point x="711" y="636" type="curve" smooth="yes"/>
      <point x="699" y="538" type="line"/>
      <point x="726" y="538" type="line"/>
      <point x="761" y="710" type="line"/>
      <point x="123" y="710" type="line"/>
      <point x="87" y="538" type="line"/>
      <point x="114" y="538" type="line"/>
      <point x="148" y="636" type="line" smooth="yes"/>
      <point x="160" y="672"/>
      <point x="202" y="679"/>
      <point x="302" y="679" type="curve" smooth="yes"/>
      <point x="415" y="679" type="line"/>
    </contour>
  </outline>
</glyph>
<glyph name="backslash" format="2">
  <advance width="437"/>
  <unicode hex="005C"/>
  <outline>
    <contour>
      <point x="72" y="750" type="line"/>
      <point x="36" y="750" type="line"/>
      <point x="357" y="-130" type="line"/>
      <point x="394" y="-130" type="line"/>
    </contour>
  </outline>
</glyph>
<glyph name="asciicircum" format="2">
  <advance width="582"/>
  <unicode hex="005E"/>
  <outline>
    <contour>
      <point x="123" y="364" type="line"/>
      <point x="365" y="685" type="line"/>
      <point x="376" y="710" type="line"/>
      <point x="341" y="710" type="line"/>
      <point x="79" y="364" type="line"/>
    </contour>
    <contour>
      <point x="464" y="364" type="line"/>
      <point x="507" y="364" type="line"/>
      <point x="387" y="710" type="line"/>
      <point x="359" y="710" type="line"/>
      <point x="355" y="686" type="line"/>
    </contour>
  </outline>
</glyph>
<glyph name="a" format="2">
  <advance width="617"/>
  <unicode hex="0061"/>
  <anchor x="290" y="508" name="top"/>
  <anchor x="442" y="-10" name="right"/>
  <anchor x="318" y="0" name="bottom"/>
  <outline>
    <contour>
      <point x="508" y="-7" type="curve" smooth="yes"/>
      <point x="537" y="-7"/>
      <point x="570" y="4"/>
      <point x="584" y="13" type="curve"/>
      <point x="589" y="42" type="line"/>
      <point x="580" y="40"/>
      <point x="549" y="24"/>
      <point x="509" y="24" type="curve" smooth="yes"/>
      <point x="483" y="24"/>
      <point x="468" y="34"/>
      <point x="468" y="58" type="curve" smooth="yes"/>
      <point x="468" y="79"/>
      <point x="475" y="113"/>
      <point x="479" y="139" type="curve" smooth="yes"/>
      <point x="556" y="508" type="line"/>
      <point x="534" y="508" type="line"/>
      <point x="499" y="420" type="line"/>
      <point x="494" y="410" type="line"/>
      <point x="448" y="174" type="line"/>
      <point x="445" y="172" type="line"/>
      <point x="435" y="136"/>
      <point x="426" y="85"/>
      <point x="426" y="58" type="curve" smooth="yes"/>
      <point x="426" y="12"/>
      <point x="460" y="-7"/>
    </contour>
    <contour>
      <point x="204" y="-11" type="curve" smooth="yes"/>
      <point x="315" y="-11"/>
      <point x="398" y="74"/>
      <point x="474" y="209" type="curve"/>
      <point x="468" y="241" type="line"/>
      <point x="393" y="113"/>
      <point x="312" y="20"/>
      <point x="206" y="20" type="curve" smooth="yes"/>
      <point x="132" y="20"/>
      <point x="90" y="80"/>
      <point x="90" y="174" type="curve" smooth="yes"/>
      <point x="90" y="318"/>
      <point x="184" y="487"/>
      <point x="346" y="487" type="curve" smooth="yes"/>
      <point x="425" y="487"/>
      <point x="490" y="437"/>
      <point x="502" y="346" type="curve"/>
      <point x="524" y="379" type="line"/>
      <point x="510" y="469"/>
      <point x="433" y="518"/>
      <point x="346" y="518" type="curve" smooth="yes"/>
      <point x="165" y="518"/>
      <point x="46" y="338"/>
      <point x="46" y="175" type="curve" smooth="yes"/>
      <point x="46" y="61"/>
      <point x="102" y="-11"/>
    </contour>
  </outline>
</glyph>
<glyph name="b" format="2">
  <advance width="654"/>
  <unicode hex="0062"/>
  <outline>
    <contour>
      <point x="297" y="-11" type="curve" smooth="yes"/>
      <point x="486" y="-11"/>
      <point x="607" y="146"/>
      <point x="607" y="322" type="curve" smooth="yes"/>
      <point x="607" y="433"/>
      <point x="559" y="518"/>
      <point x="438" y="518" type="curve" smooth="yes"/>
      <point x="323" y="518"/>
      <point x="237" y="433"/>
      <point x="160" y="299" type="curve"/>
      <point x="166" y="267" type="line"/>
      <point x="243" y="394"/>
      <point x="327" y="487"/>
      <point x="437" y="487" type="curve" smooth="yes"/>
      <point x="528" y="487"/>
      <point x="563" y="413"/>
      <point x="563" y="322" type="curve" smooth="yes"/>
      <point x="563" y="163"/>
      <point x="468" y="20"/>
      <point x="296" y="20" type="curve" smooth="yes"/>
      <point x="217" y="20"/>
      <point x="137" y="58"/>
      <point x="111" y="100" type="curve"/>
      <point x="107" y="81"/>
      <point x="114" y="67"/>
      <point x="131" y="57" type="curve"/>
      <point x="271" y="735" type="line"/>
      <point x="133" y="735" type="line"/>
      <point x="128" y="709" type="line"/>
      <point x="139" y="707" type="line" smooth="yes"/>
      <point x="194" y="697"/>
      <point x="221" y="691"/>
      <point x="216" y="662" type="curve" smooth="yes"/>
      <point x="91" y="61" type="line"/>
      <point x="125" y="27"/>
      <point x="203" y="-11"/>
    </contour>
  </outline>
</glyph>
<glyph name="c" format="2">
  <advance width="564"/>
  <unicode hex="0063"/>
  <anchor x="301" y="508" name="top"/>
  <anchor x="309" y="0" name="bottom"/>
  <outline>
    <contour>
      <point x="363" y="518" type="curve" smooth="yes"/>
      <point x="173" y="518"/>
      <point x="46" y="377"/>
      <point x="46" y="216" type="curve" smooth="yes"/>
      <point x="46" y="80"/>
      <point x="142" y="-12"/>
      <point x="289" y="-12" type="curve" smooth="yes"/>
      <point x="398" y="-12"/>
      <point x="468" y="40"/>
      <point x="512" y="114" type="curve"/>
      <point x="485" y="132" type="line"/>
      <point x="449" y="73"/>
      <point x="390" y="19"/>
      <point x="289" y="19" type="curve" smooth="yes"/>
      <point x="162" y="19"/>
      <point x="90" y="97"/>
      <point x="90" y="216" type="curve" smooth="yes"/>
      <point x="90" y="359"/>
      <point x="197" y="487"/>
      <point x="363" y="487" type="curve" smooth="yes"/>
      <point x="442" y="487"/>
      <point x="493" y="459"/>
      <point x="513" y="425" type="curve"/>
      <point x="517" y="435"/>
      <point x="535" y="448"/>
      <point x="489" y="461" type="curve"/>
      <point x="474" y="379" type="line"/>
      <point x="525" y="379" type="line"/>
      <point x="540" y="460" type="line"/>
      <point x="533" y="473"/>
      <point x="474" y="518"/>
    </contour>
  </outline>
</glyph>
<glyph name="g" format="2">
  <advance width="618"/>
  <unicode hex="0067"/>
  <anchor x="292" y="508" name="top"/>
  <outline>
    <contour>
      <point x="216" y="-5" type="curve" smooth="yes"/>
      <point x="331" y="-5"/>
      <point x="421" y="79"/>
      <point x="498" y="214" type="curve"/>
      <point x="492" y="246" type="line"/>
      <point x="415" y="119"/>
      <point x="327" y="26"/>
      <point x="217" y="26" type="curve" smooth="yes"/>
      <point x="125" y="26"/>
      <point x="90" y="99"/>
      <point x="90" y="189" type="curve" smooth="yes"/>
      <point x="90" y="346"/>
      <point x="185" y="487"/>
      <point x="357" y="487" type="curve" smooth="yes"/>
      <point x="442" y="487"/>
      <point x="510" y="437"/>
      <point x="523" y="347" type="curve"/>
      <point x="545" y="380" type="line"/>
      <point x="529" y="469"/>
      <point x="450" y="518"/>
      <point x="357" y="518" type="curve" smooth="yes"/>
      <point x="168" y="518"/>
      <point x="46" y="363"/>
      <point x="46" y="189" type="curve" smooth="yes"/>
      <point x="46" y="79"/>
      <point x="95" y="-5"/>
    </contour>
    <contour>
      <point x="430" y="-9" type="line" smooth="yes"/>
      <point x="404" y="-132"/>
      <point x="333" y="-192"/>
      <point x="194" y="-192" type="curve" smooth="yes"/>
      <point x="108" y="-192"/>
      <point x="27" y="-159"/>
      <point x="16" y="-117" type="curve"/>
      <point x="9" y="-154"/>
      <point x="26" y="-164"/>
      <point x="31" y="-166" type="curve"/>
      <point x="49" y="-76" type="line"/>
      <point x="-3" y="-76" type="line"/>
      <point x="-19" y="-149" type="line"/>
      <point x="8" y="-184"/>
      <point x="91" y="-222"/>
      <point x="194" y="-222" type="curve" smooth="yes"/>
      <point x="357" y="-222"/>
      <point x="442" y="-147"/>
      <point x="471" y="-11" type="curve" smooth="yes"/>
      <point x="577" y="511" type="line"/>
      <point x="550" y="511" type="line"/>
      <point x="519" y="417" type="line"/>
      <point x="517" y="423" type="line"/>
    </contour>
  </outline>
</glyph>
<glyph name="h" format="2">
  <advance width="668"/>
  <unicode hex="0068"/>
  <anchor x="351" y="755" name="top"/>
  <anchor x="342" y="0" name="bottom"/>
  <outline>
    <contour>
      <point x="84" y="0" type="line"/>
      <point x="222" y="662" type="line" smooth="yes"/>
      <point x="228" y="691"/>
      <point x="201" y="697"/>
      <point x="146" y="707" type="curve" smooth="yes"/>
      <point x="134" y="709" type="line"/>
      <point x="139" y="735" type="line"/>
      <point x="277" y="735" type="line"/>
      <point x="124" y="0" type="line"/>
    </contour>
    <contour>
      <point x="522" y="187" type="line" smooth="yes"/>
      <point x="512" y="139"/>
      <point x="500" y="87"/>
      <point x="500" y="60" type="curve" smooth="yes"/>
      <point x="500" y="34"/>
      <point x="515" y="24"/>
      <point x="541" y="24" type="curve" smooth="yes"/>
      <point x="580" y="24"/>
      <point x="611" y="40"/>
      <point x="620" y="42" type="curve"/>
      <point x="615" y="13" type="line"/>
      <point x="602" y="4"/>
      <point x="569" y="-7"/>
      <point x="540" y="-7" type="curve" smooth="yes"/>
      <point x="493" y="-7"/>
      <point x="459" y="12"/>
      <point x="459" y="59" type="curve" smooth="yes"/>
      <point x="459" y="91"/>
      <point x="470" y="140"/>
      <point x="485" y="205" type="curve" smooth="yes"/>
      <point x="510" y="315" type="line" smooth="yes"/>
      <point x="518" y="352"/>
      <point x="526" y="382"/>
      <point x="526" y="418" type="curve" smooth="yes"/>
      <point x="526" y="457"/>
      <point x="496" y="484"/>
      <point x="437" y="484" type="curve" smooth="yes"/>
      <point x="342" y="484"/>
      <point x="256" y="401"/>
      <point x="171" y="281" type="curve"/>
      <point x="163" y="308" type="line"/>
      <point x="248" y="434"/>
      <point x="341" y="518"/>
      <point x="446" y="518" type="curve" smooth="yes"/>
      <point x="523" y="518"/>
      <point x="567" y="477"/>
      <point x="567" y="418" type="curve" smooth="yes"/>
      <point x="567" y="385"/>
      <point x="558" y="349"/>
      <point x="549" y="312" type="curve" smooth="yes"/>
    </contour>
  </outline>
</glyph>
<glyph name="i" format="2">
  <advance width="303"/>
  <unicode hex="0069"/>
  <anchor x="163" y="508" name="top"/>
  <anchor x="201" y="-10" name="right"/>
  <anchor x="162" y="-10" name="bottom"/>
  <outline>
    <contour>
      <point x="171" y="435" type="curve" smooth="yes"/>
      <point x="123" y="203" type="line" smooth="yes"/>
      <point x="110" y="143"/>
      <point x="98" y="91"/>
      <point x="98" y="59" type="curve" smooth="yes"/>
      <point x="98" y="12"/>
      <point x="132" y="-7"/>
      <point x="180" y="-7" type="curve" smooth="yes"/>
      <point x="208" y="-7"/>
      <point x="241" y="4"/>
      <point x="254" y="13" type="curve"/>
      <point x="259" y="42" type="line"/>
      <point x="251" y="40"/>
      <point x="220" y="24"/>
      <point x="180" y="24" type="curve" smooth="yes"/>
      <point x="154" y="24"/>
      <point x="139" y="34"/>
      <point x="139" y="60" type="curve" smooth="yes"/>
      <point x="139" y="87"/>
      <point x="151" y="142"/>
      <point x="161" y="185" type="curve" smooth="yes"/>
      <point x="227" y="508" type="line"/>
      <point x="89" y="508" type="line"/>
      <point x="84" y="482" type="line"/>
      <point x="95" y="480" type="line" smooth="yes"/>
      <point x="150" y="470"/>
      <point x="177" y="464"/>
    </contour>
    <contour>
      <point x="232" y="656" type="curve" smooth="yes"/>
      <point x="257" y="656"/>
      <point x="276" y="670"/>
      <point x="276" y="697" type="curve" smooth="yes"/>
      <point x="276" y="723"/>
      <point x="257" y="737"/>
      <point x="232" y="737" type="curve" smooth="yes"/>
      <point x="207" y="737"/>
      <point x="188" y="723"/>
      <point x="188" y="697" type="curve" smooth="yes"/>
      <point x="188" y="670"/>
      <point x="207" y="656"/>
    </contour>
  </outline>
</glyph>
<glyph name="l" format="2">
  <advance width="286"/>
  <unicode hex="006C"/>
  <anchor x="152" y="746" name="top"/>
  <anchor x="238" y="735" name="right"/>
  <anchor x="282" y="391" name="mid"/>
  <anchor x="155" y="0" name="bottom"/>
  <outline>
    <contour>
      <point x="144" y="185" type="curve" smooth="yes"/>
      <point x="257" y="735" type="line"/>
      <point x="119" y="735" type="line"/>
      <point x="113" y="709" type="line"/>
      <point x="125" y="707" type="line" smooth="yes"/>
      <point x="180" y="697"/>
      <point x="207" y="691"/>
      <point x="202" y="662" type="curve" smooth="yes"/>
      <point x="107" y="203" type="line" smooth="yes"/>
      <point x="94" y="143"/>
      <point x="82" y="91"/>
      <point x="82" y="59" type="curve" smooth="yes"/>
      <point x="82" y="12"/>
      <point x="116" y="-7"/>
      <point x="163" y="-7" type="curve" smooth="yes"/>
      <point x="192" y="-7"/>
      <point x="225" y="4"/>
      <point x="238" y="13" type="curve"/>
      <point x="243" y="42" type="line"/>
      <point x="235" y="40"/>
      <point x="204" y="24"/>
      <point x="163" y="24" type="curve" smooth="yes"/>
      <point x="138" y="24"/>
      <point x="123" y="34"/>
      <point x="123" y="60" type="curve" smooth="yes"/>
      <point x="123" y="87"/>
      <point x="135" y="142"/>
    </contour>
  </outline>
</glyph>
<glyph name="m" format="2">
  <advance width="1005"/>
  <unicode hex="006D"/>
  <anchor x="510" y="-10" name="bottom"/>
  <outline>
    <contour>
      <point x="82" y="0" type="line"/>
      <point x="172" y="435" type="line" smooth="yes"/>
      <point x="178" y="464"/>
      <point x="152" y="470"/>
      <point x="96" y="480" type="curve" smooth="yes"/>
      <point x="85" y="482" type="line"/>
      <point x="90" y="508" type="line"/>
      <point x="229" y="508" type="line"/>
      <point x="196" y="353" type="line"/>
      <point x="194" y="346" type="line"/>
      <point x="123" y="0" type="line"/>
    </contour>
    <contour>
      <point x="860" y="187" type="line" smooth="yes"/>
      <point x="849" y="139"/>
      <point x="837" y="87"/>
      <point x="837" y="60" type="curve" smooth="yes"/>
      <point x="837" y="34"/>
      <point x="852" y="24"/>
      <point x="878" y="24" type="curve" smooth="yes"/>
      <point x="918" y="24"/>
      <point x="949" y="40"/>
      <point x="958" y="42" type="curve"/>
      <point x="953" y="13" type="line"/>
      <point x="939" y="4"/>
      <point x="906" y="-7"/>
      <point x="878" y="-7" type="curve" smooth="yes"/>
      <point x="830" y="-7"/>
      <point x="796" y="12"/>
      <point x="796" y="59" type="curve" smooth="yes"/>
      <point x="796" y="91"/>
      <point x="808" y="140"/>
      <point x="823" y="205" type="curve" smooth="yes"/>
      <point x="847" y="315" type="line" smooth="yes"/>
      <point x="856" y="352"/>
      <point x="863" y="382"/>
      <point x="863" y="418" type="curve" smooth="yes"/>
      <point x="863" y="457"/>
      <point x="836" y="484"/>
      <point x="779" y="484" type="curve" smooth="yes"/>
      <point x="687" y="484"/>
      <point x="601" y="401"/>
      <point x="518" y="281" type="curve"/>
      <point x="511" y="308" type="line"/>
      <point x="593" y="434"/>
      <point x="686" y="518"/>
      <point x="787" y="518" type="curve" smooth="yes"/>
      <point x="863" y="518"/>
      <point x="904" y="477"/>
      <point x="904" y="418" type="curve" smooth="yes"/>
      <point x="904" y="385"/>
      <point x="895" y="349"/>
      <point x="887" y="312" type="curve" smooth="yes"/>
    </contour>
    <contour>
      <point x="433" y="0" type="line"/>
      <point x="500" y="315" type="line" smooth="yes"/>
      <point x="508" y="352"/>
      <point x="513" y="380"/>
      <point x="513" y="415" type="curve" smooth="yes"/>
      <point x="513" y="455"/>
      <point x="488" y="484"/>
      <point x="430" y="484" type="curve" smooth="yes"/>
      <point x="339" y="484"/>
      <point x="253" y="401"/>
      <point x="170" y="281" type="curve"/>
      <point x="162" y="308" type="line"/>
      <point x="245" y="434"/>
      <point x="337" y="518"/>
      <point x="438" y="518" type="curve" smooth="yes"/>
      <point x="514" y="518"/>
      <point x="554" y="475"/>
      <point x="554" y="416" type="curve" smooth="yes"/>
      <point x="554" y="383"/>
      <point x="548" y="349"/>
      <point x="540" y="312" type="curve" smooth="yes"/>
      <point x="473" y="0" type="line"/>
    </contour>
  </outline>
</glyph>
<glyph name="o" format="2">
  <advance width="620"/>
  <unicode hex="006F"/>
  <anchor x="310" y="508" name="top"/>
  <anchor x="400" y="0" name="right"/>
  <anchor x="310" y="0" name="bottom"/>
  <outline>
    <contour>
      <point x="46" y="218" type="curve" smooth="yes"/>
      <point x="46" y="91"/>
      <point x="140" y="-12"/>
      <point x="277" y="-12" type="curve" smooth="yes"/>
      <point x="454" y="-12"/>
      <point x="574" y="133"/>
      <point x="574" y="288" type="curve" smooth="yes"/>
      <point x="574" y="415"/>
      <point x="480" y="518"/>
      <point x="343" y="518" type="curve" smooth="yes"/>
      <point x="166" y="518"/>
      <point x="46" y="373"/>
    </contour>
    <contour>
      <point x="502" y="165" type="curve" smooth="yes"/>
      <point x="464" y="84"/>
      <point x="386" y="19"/>
      <point x="277" y="19" type="curve" smooth="yes"/>
      <point x="160" y="19"/>
      <point x="90" y="102"/>
      <point x="90" y="218" type="curve" smooth="yes"/>
      <point x="90" y="259"/>
      <point x="100" y="302"/>
      <point x="118" y="341" type="curve" smooth="yes"/>
      <point x="157" y="422"/>
      <point x="234" y="487"/>
      <point x="343" y="487" type="curve" smooth="yes"/>
      <point x="460" y="487"/>
      <point x="530" y="404"/>
      <point x="530" y="288" type="curve" smooth="yes"/>
      <point x="530" y="247"/>
      <point x="521" y="204"/>
    </contour>
  </outline>
</glyph>
<glyph name="p" format="2">
  <advance width="657"/>
  <unicode hex="0070"/>
  <outline>
    <contour>
      <point x="-61" y="-223" type="line"/>
      <point x="197" y="-223" type="line"/>
      <point x="201" y="-195" type="line"/>
      <point x="168" y="-195" type="line" smooth="yes"/>
      <point x="138" y="-195"/>
      <point x="84" y="-192"/>
      <point x="85" y="-185" type="curve" smooth="yes"/>
      <point x="192" y="341" type="line"/>
      <point x="195" y="346" type="line"/>
      <point x="228" y="508" type="line"/>
      <point x="89" y="508" type="line"/>
      <point x="85" y="482" type="line"/>
      <point x="96" y="480" type="line" smooth="yes"/>
      <point x="152" y="470"/>
      <point x="178" y="464"/>
      <point x="172" y="435" type="curve" smooth="yes"/>
      <point x="50" y="-159" type="line" smooth="yes"/>
      <point x="43" y="-188"/>
      <point x="1" y="-195"/>
      <point x="-54" y="-195" type="curve" smooth="yes"/>
      <point x="-57" y="-195" type="line"/>
    </contour>
    <contour>
      <point x="612" y="322" type="curve" smooth="yes"/>
      <point x="612" y="433"/>
      <point x="563" y="518"/>
      <point x="442" y="518" type="curve" smooth="yes"/>
      <point x="327" y="518"/>
      <point x="241" y="433"/>
      <point x="164" y="299" type="curve"/>
      <point x="170" y="267" type="line"/>
      <point x="247" y="394"/>
      <point x="331" y="487"/>
      <point x="441" y="487" type="curve" smooth="yes"/>
      <point x="532" y="487"/>
      <point x="567" y="413"/>
      <point x="567" y="322" type="curve" smooth="yes"/>
      <point x="567" y="163"/>
      <point x="472" y="20"/>
      <point x="301" y="20" type="curve" smooth="yes"/>
      <point x="215" y="20"/>
      <point x="148" y="70"/>
      <point x="135" y="159" type="curve"/>
      <point x="114" y="126" type="line"/>
      <point x="128" y="38"/>
      <point x="206" y="-11"/>
      <point x="301" y="-11" type="curve" smooth="yes"/>
      <point x="490" y="-11"/>
      <point x="612" y="146"/>
    </contour>
  </outline>
</glyph>
<glyph name="q" format="2">
  <advance width="617"/>
  <unicode hex="0071"/>
  <outline>
    <contour>
      <point x="267" y="-223" type="line"/>
      <point x="525" y="-223" type="line"/>
      <point x="529" y="-195" type="line"/>
      <point x="527" y="-195" type="line"/>
      <point x="471" y="-195"/>
      <point x="434" y="-188"/>
      <point x="440" y="-159" type="curve" smooth="yes"/>
      <point x="577" y="511" type="line"/>
      <point x="550" y="511" type="line"/>
      <point x="519" y="417" type="line"/>
      <point x="517" y="423" type="line"/>
      <point x="393" y="-185" type="line"/>
      <point x="392" y="-192"/>
      <point x="336" y="-195"/>
      <point x="306" y="-195" type="curve" smooth="yes"/>
      <point x="272" y="-195" type="line"/>
    </contour>
    <contour>
      <point x="46" y="185" type="curve" smooth="yes"/>
      <point x="46" y="74"/>
      <point x="95" y="-11"/>
      <point x="216" y="-11" type="curve" smooth="yes"/>
      <point x="331" y="-11"/>
      <point x="417" y="74"/>
      <point x="494" y="208" type="curve"/>
      <point x="488" y="240" type="line"/>
      <point x="411" y="113"/>
      <point x="327" y="20"/>
      <point x="217" y="20" type="curve" smooth="yes"/>
      <point x="125" y="20"/>
      <point x="90" y="94"/>
      <point x="90" y="185" type="curve" smooth="yes"/>
      <point x="90" y="344"/>
      <point x="185" y="487"/>
      <point x="357" y="487" type="curve" smooth="yes"/>
      <point x="442" y="487"/>
      <point x="510" y="437"/>
      <point x="523" y="347" type="curve"/>
      <point x="545" y="380" type="line"/>
      <point x="529" y="469"/>
      <point x="450" y="518"/>
      <point x="357" y="518" type="curve" smooth="yes"/>
      <point x="168" y="518"/>
      <point x="46" y="361"/>
    </contour>
  </outline>
</glyph>
<glyph name="s" format="2">
  <advance width="512"/>
  <unicode hex="0073"/>
  <anchor x="257" y="508" name="top"/>
  <anchor x="259" y="0" name="bottom"/>
  <outline>
    <contour>
      <point x="235" y="-11" type="curve" smooth="yes"/>
      <point x="369" y="-11"/>
      <point x="444" y="46"/>
      <point x="444" y="131" type="curve" smooth="yes"/>
      <point x="444" y="217"/>
      <point x="358" y="245"/>
      <point x="281" y="276" type="curve" smooth="yes"/>
      <point x="206" y="307"/>
      <point x="156" y="323"/>
      <point x="156" y="386" type="curve" smooth="yes"/>
      <point x="156" y="449"/>
      <point x="211" y="487"/>
      <point x="308" y="487" type="curve" smooth="yes"/>
      <point x="381" y="487"/>
      <point x="427" y="463"/>
      <point x="448" y="435" type="curve"/>
      <point x="449" y="445"/>
      <point x="437" y="461"/>
      <point x="424" y="469" type="curve"/>
      <point x="410" y="395" type="line"/>
      <point x="460" y="395" type="line"/>
      <point x="476" y="471" type="line"/>
      <point x="464" y="484"/>
      <point x="411" y="518"/>
      <point x="307" y="518" type="curve" smooth="yes"/>
      <point x="197" y="518"/>
      <point x="114" y="470"/>
      <point x="114" y="385" type="curve" smooth="yes"/>
      <point x="114" y="304"/>
      <point x="172" y="281"/>
      <point x="248" y="249" type="curve" smooth="yes"/>
      <point x="320" y="219"/>
      <point x="402" y="194"/>
      <point x="402" y="130" type="curve" smooth="yes"/>
      <point x="402" y="56"/>
      <point x="339" y="20"/>
      <point x="234" y="20" type="curve" smooth="yes"/>
      <point x="153" y="20"/>
      <point x="84" y="44"/>
      <point x="39" y="88" type="curve"/>
      <point x="37" y="77"/>
      <point x="53" y="49"/>
      <point x="67" y="32" type="curve"/>
      <point x="86" y="133" type="line"/>
      <point x="35" y="133" type="line"/>
      <point x="20" y="55" type="line"/>
      <point x="56" y="23"/>
      <point x="132" y="-11"/>
    </contour>
  </outline>
</glyph>
<glyph name="cent" format="2">
  <advance width="652"/>
  <unicode hex="00A2"/>
  <outline>
    <contour>
      <point x="325" y="-12" type="curve" smooth="yes"/>
      <point x="441" y="-12"/>
      <point x="512" y="48"/>
      <point x="553" y="123" type="curve"/>
      <point x="525" y="143" type="line"/>
      <point x="492" y="82"/>
      <point x="432" y="19"/>
      <point x="324" y="19" type="curve" smooth="yes"/>
      <point x="186" y="19"/>
      <point x="119" y="97"/>
      <point x="119" y="216" type="curve" smooth="yes"/>
      <point x="119" y="362"/>
      <point x="218" y="487"/>
      <point x="397" y="487" type="curve" smooth="yes"/>
      <point x="485" y="487"/>
      <point x="539" y="459"/>
      <point x="559" y="425" type="curve"/>
      <point x="563" y="435"/>
      <point x="581" y="448"/>
      <point x="535" y="462" type="curve"/>
      <point x="520" y="379" type="line"/>
      <point x="572" y="379" type="line"/>
      <point x="587" y="459" type="line"/>
      <point x="577" y="472"/>
      <point x="517" y="518"/>
      <point x="396" y="518" type="curve" smooth="yes"/>
      <point x="194" y="518"/>
      <point x="75" y="381"/>
      <point x="75" y="216" type="curve" smooth="yes"/>
      <point x="75" y="80"/>
      <point x="165" y="-12"/>
    </contour>
    <contour>
      <point x="244" y="-126" type="line"/>
      <point x="283" y="-126" type="line"/>
      <point x="308" y="-1" type="line"/>
      <point x="309" y="8" type="line"/>
      <point x="412" y="495" type="line"/>
      <point x="412" y="503" type="line"/>
      <point x="437" y="623" type="line"/>
      <point x="398" y="623" type="line"/>
      <point x="374" y="505" type="line"/>
      <point x="372" y="497" type="line"/>
      <point x="270" y="8" type="line"/>
      <point x="269" y="1" type="line"/>
    </contour>
  </outline>
</glyph>
<glyph name="sterling" format="2">
  <advance width="652"/>
  <unicode hex="00A3"/>
  <outline>
    <contour>
      <point x="433" y="687" type="curve" smooth="yes"/>
      <point x="513" y="687"/>
      <point x="573" y="658"/>
      <point x="596" y="629" type="curve"/>
      <point x="595" y="634"/>
      <point x="590" y="656"/>
      <point x="581" y="671" type="curve"/>
      <point x="557" y="571" type="line"/>
      <point x="608" y="571" type="line"/>
      <point x="630" y="660" type="line"/>
      <point x="598" y="683"/>
      <point x="536" y="718"/>
      <point x="433" y="718" type="curve" smooth="yes"/>
      <point x="251" y="718"/>
      <point x="173" y="616"/>
      <point x="173" y="495" type="curve" smooth="yes"/>
      <point x="173" y="404"/>
      <point x="202" y="314"/>
      <point x="202" y="239" type="curve" smooth="yes"/>
      <point x="202" y="142"/>
      <point x="165" y="39"/>
      <point x="-14" y="31" type="curve"/>
      <point x="-21" y="0" type="line"/>
      <point x="186" y="10"/>
      <point x="241" y="123"/>
      <point x="241" y="242" type="curve" smooth="yes"/>
      <point x="241" y="334"/>
      <point x="217" y="415"/>
      <point x="217" y="493" type="curve" smooth="yes"/>
      <point x="217" y="616"/>
      <point x="295" y="687"/>
    </contour>
    <contour>
      <point x="54" y="352" type="line"/>
      <point x="47" y="322" type="line"/>
      <point x="473" y="322" type="line"/>
      <point x="480" y="352" type="line"/>
    </contour>
    <contour>
      <point x="416" y="-2" type="curve" smooth="yes"/>
      <point x="505" y="-2"/>
      <point x="555" y="48"/>
      <point x="596" y="134" type="curve"/>
      <point x="571" y="150" type="line"/>
      <point x="536" y="79"/>
      <point x="500" y="39"/>
      <point x="421" y="39" type="curve" smooth="yes"/>
      <point x="348" y="39"/>
      <point x="288" y="68"/>
      <point x="212" y="146" type="curve"/>
      <point x="193" y="119" type="line"/>
      <point x="282" y="38"/>
      <point x="323" y="-2"/>
    </contour>
  </outline>
</glyph>
<glyph name="yen" format="2">
  <advance width="652"/>
  <unicode hex="00A5"/>
  <outline>
    <contour>
      <point x="67" y="208" type="line"/>
      <point x="61" y="177" type="line"/>
      <point x="523" y="177" type="line"/>
      <point x="529" y="208" type="line"/>
    </contour>
    <contour>
      <point x="95" y="344" type="line"/>
      <point x="89" y="314" type="line"/>
      <point x="551" y="314" type="line"/>
      <point x="557" y="344" type="line"/>
    </contour>
    <contour>
      <point x="308" y="351" type="line"/>
      <point x="250" y="67" type="line" smooth="yes"/>
      <point x="244" y="38"/>
      <point x="198" y="31"/>
      <point x="141" y="31" type="curve" smooth="yes"/>
      <point x="125" y="31" type="line"/>
      <point x="119" y="0" type="line"/>
      <point x="394" y="0" type="line"/>
      <point x="401" y="31" type="line"/>
      <point x="380" y="31" type="line" smooth="yes"/>
      <point x="323" y="31"/>
      <point x="284" y="38"/>
      <point x="291" y="67" type="curve" smooth="yes"/>
      <point x="349" y="351" type="line"/>
    </contour>
    <contour>
      <point x="330" y="318" type="line"/>
      <point x="596" y="638" type="line" smooth="yes"/>
      <point x="627" y="675"/>
      <point x="663" y="679"/>
      <point x="703" y="679" type="curve" smooth="yes"/>
      <point x="710" y="679" type="line"/>
      <point x="716" y="710" type="line"/>
      <point x="468" y="710" type="line"/>
      <point x="461" y="679" type="line"/>
      <point x="479" y="679" type="line" smooth="yes"/>
      <point x="523" y="679"/>
      <point x="575" y="672"/>
      <point x="573" y="661" type="curve"/>
      <point x="306" y="338" type="line"/>
      <point x="340" y="348" type="line"/>
      <point x="210" y="669" type="line"/>
      <point x="211" y="676"/>
      <point x="266" y="679"/>
      <point x="309" y="679" type="curve" smooth="yes"/>
      <point x="328" y="679" type="line"/>
      <point x="335" y="710" type="line"/>
      <point x="88" y="710" type="line"/>
      <point x="82" y="679" type="line"/>
      <point x="87" y="679" type="line" smooth="yes"/>
      <point x="127" y="679"/>
      <point x="159" y="680"/>
      <point x="172" y="653" type="curve" smooth="yes"/>
      <point x="312" y="318" type="line"/>
    </contour>
  </outline>
</glyph>
<glyph name="section" format="2">
  <advance width="710"/>
  <unicode hex="00A7"/>
  <outline>
    <contour>
      <point x="278" y="-236" type="curve" smooth="yes"/>
      <point x="415" y="-236"/>
      <point x="524" y="-175"/>
      <point x="524" y="-73" type="curve" smooth="yes"/>
      <point x="524" y="23"/>
      <point x="424" y="74"/>
      <point x="312" y="134" type="curve" smooth="yes"/>
      <point x="217" y="186"/>
      <point x="122" y="231"/>
      <point x="122" y="301" type="curve" smooth="yes"/>
      <point x="122" y="387"/>
      <point x="222" y="415"/>
      <point x="389" y="403" type="curve"/>
      <point x="381" y="428" type="line"/>
      <point x="228" y="442"/>
      <point x="84" y="411"/>
      <point x="84" y="301" type="curve" smooth="yes"/>
      <point x="84" y="217"/>
      <point x="180" y="163"/>
      <point x="273" y="112" type="curve" smooth="yes"/>
      <point x="381" y="53"/>
      <point x="479" y="14"/>
      <point x="479" y="-73" type="curve" smooth="yes"/>
      <point x="479" y="-159"/>
      <point x="398" y="-205"/>
      <point x="277" y="-205" type="curve" smooth="yes"/>
      <point x="181" y="-205"/>
      <point x="87" y="-181"/>
      <point x="39" y="-128" type="curve"/>
      <point x="44" y="-136"/>
      <point x="43" y="-157"/>
      <point x="72" y="-192" type="curve"/>
      <point x="99" y="-65" type="line"/>
      <point x="47" y="-65" type="line"/>
      <point x="26" y="-165" type="line"/>
      <point x="60" y="-196"/>
      <point x="152" y="-236"/>
    </contour>
    <contour>
      <point x="411" y="49" type="line"/>
      <point x="565" y="51"/>
      <point x="646" y="109"/>
      <point x="646" y="192" type="curve" smooth="yes"/>
      <point x="646" y="280"/>
      <point x="548" y="335"/>
      <point x="430" y="398" type="curve" smooth="yes"/>
      <point x="342" y="446"/>
      <point x="249" y="491"/>
      <point x="249" y="569" type="curve" smooth="yes"/>
      <point x="249" y="634"/>
      <point x="311" y="689"/>
      <point x="436" y="689" type="curve" smooth="yes"/>
      <point x="539" y="689"/>
      <point x="603" y="661"/>
      <point x="634" y="610" type="curve"/>
      <point x="639" y="628"/>
      <point x="634" y="660"/>
      <point x="605" y="668" type="curve"/>
      <point x="584" y="567" type="line"/>
      <point x="637" y="567" type="line"/>
      <point x="654" y="652" type="line"/>
      <point x="625" y="688"/>
      <point x="547" y="720"/>
      <point x="435" y="720" type="curve" smooth="yes"/>
      <point x="305" y="720"/>
      <point x="208" y="662"/>
      <point x="208" y="569" type="curve" smooth="yes"/>
      <point x="208" y="482"/>
      <point x="300" y="426"/>
      <point x="403" y="371" type="curve" smooth="yes"/>
      <point x="511" y="315"/>
      <point x="608" y="259"/>
      <point x="608" y="192" type="curve" smooth="yes"/>
      <point x="608" y="125"/>
      <point x="557" y="79"/>
      <point x="400" y="77" type="curve"/>
    </contour>
  </outline>
</glyph>
<glyph name="ordfeminine" format="2">
  <advance width="526"/>
  <unicode hex="00AA"/>
  <outline>
    <contour>
      <point x="467" y="324" type="curve" smooth="yes"/>
      <point x="490" y="324"/>
      <point x="517" y="332"/>
      <point x="527" y="339" type="curve"/>
      <point x="531" y="365" type="line"/>
      <point x="524" y="363"/>
      <point x="501" y="351"/>
      <point x="474" y="351" type="curve" smooth="yes"/>
      <point x="454" y="351"/>
      <point x="440" y="359"/>
      <point x="440" y="376" type="curve" smooth="yes"/>
      <point x="440" y="393"/>
      <point x="445" y="414"/>
      <point x="448" y="434" type="curve" smooth="yes"/>
      <point x="506" y="713" type="line"/>
      <point x="480" y="713" type="line"/>
      <point x="456" y="646" type="line"/>
      <point x="452" y="638" type="line"/>
      <point x="418" y="460" type="line"/>
      <point x="415" y="459" type="line"/>
      <point x="408" y="432"/>
      <point x="399" y="393"/>
      <point x="399" y="372" type="curve" smooth="yes"/>
      <point x="399" y="338"/>
      <point x="426" y="324"/>
    </contour>
    <contour>
      <point x="237" y="321" type="curve" smooth="yes"/>
      <point x="322" y="321"/>
      <point x="383" y="385"/>
      <point x="440" y="487" type="curve"/>
      <point x="433" y="515" type="line"/>
      <point x="377" y="418"/>
      <point x="318" y="348"/>
      <point x="242" y="348" type="curve" smooth="yes"/>
      <point x="185" y="348"/>
      <point x="155" y="389"/>
      <point x="155" y="460" type="curve" smooth="yes"/>
      <point x="155" y="569"/>
      <point x="224" y="693"/>
      <point x="344" y="693" type="curve" smooth="yes"/>
      <point x="400" y="693"/>
      <point x="447" y="655"/>
      <point x="455" y="586" type="curve"/>
      <point x="472" y="615" type="line"/>
      <point x="461" y="683"/>
      <point x="409" y="720"/>
      <point x="343" y="720" type="curve" smooth="yes"/>
      <point x="204" y="720"/>
      <point x="114" y="585"/>
      <point x="114" y="460" type="curve" smooth="yes"/>
      <point x="114" y="375"/>
      <point x="156" y="321"/>
    </contour>
  </outline>
</glyph>
<glyph name="acute" format="2">
  <advance width="582"/>
  <unicode hex="00B4"/>
  <anchor x="260" y="527" name="_top"/>
  <outline>
    <contour>
      <point x="313" y="711" type="curve" smooth="yes"/>
      <point x="225" y="590" type="line"/>
      <point x="222" y="576" type="line"/>
      <point x="235" y="576" type="line"/>
      <point x="356" y="680" type="line" smooth="yes"/>
      <point x="372" y="696"/>
      <point x="392" y="713"/>
      <point x="392" y="731" type="curve" smooth="yes"/>
      <point x="392" y="744"/>
      <point x="380" y="754"/>
      <point x="364" y="754" type="curve" smooth="yes"/>
      <point x="341" y="754"/>
      <point x="332" y="738"/>
    </contour>
  </outline>
</glyph>
<glyph name="cedilla" format="2">
  <advance width="699"/>
  <unicode hex="00B8"/>
  <anchor x="341" y="34" name="_bottom"/>
  <outline>
    <contour>
      <point x="311" y="-236" type="curve" smooth="yes"/>
      <point x="378" y="-236"/>
      <point x="435" y="-196"/>
      <point x="435" y="-142" type="curve" smooth="yes"/>
      <point x="435" y="-92"/>
      <point x="381" y="-62"/>
      <point x="309" y="-62" type="curve"/>
      <point x="313" y="-77" type="line"/>
      <point x="380" y="4" type="line"/>
      <point x="340" y="4" type="line"/>
      <point x="282" y="-88" type="line"/>
      <point x="299" y="-88" type="line" smooth="yes"/>
      <point x="363" y="-88"/>
      <point x="393" y="-109"/>
      <point x="393" y="-142" type="curve" smooth="yes"/>
      <point x="393" y="-180"/>
      <point x="362" y="-207"/>
      <point x="311" y="-207" type="curve" smooth="yes"/>
      <point x="259" y="-207"/>
      <point x="230" y="-177"/>
      <point x="212" y="-153" type="curve"/>
      <point x="184" y="-176" type="line"/>
      <point x="209" y="-210"/>
      <point x="244" y="-236"/>
    </contour>
  </outline>
</glyph>
<glyph name="AE" format="2">
  <advance width="1117"/>
  <unicode hex="00C6"/>
  <anchor x="666" y="741" name="top"/>
  <outline>
    <contour>
      <point x="297" y="298" type="line"/>
      <point x="272" y="267" type="line"/>
      <point x="600" y="267" type="line"/>
      <point x="605" y="298" type="line"/>
    </contour>
    <contour>
      <point x="628" y="378" type="curve"/>
      <point x="623" y="350" type="line"/>
      <point x="729" y="349"/>
      <point x="833" y="347"/>
      <point x="936" y="345" type="curve"/>
      <point x="944" y="383" type="line"/>
      <point x="839" y="381"/>
      <point x="733" y="379"/>
    </contour>
    <contour>
      <point x="-49" y="0" type="line"/>
      <point x="182" y="0" type="line"/>
      <point x="188" y="31" type="line"/>
      <point x="171" y="31" type="line" smooth="yes"/>
      <point x="127" y="31"/>
      <point x="74" y="38"/>
      <point x="76" y="49" type="curve"/>
      <point x="669" y="673" type="line"/>
      <point x="673" y="673" type="line"/>
      <point x="546" y="67" type="line" smooth="yes"/>
      <point x="540" y="38"/>
      <point x="497" y="31"/>
      <point x="440" y="31" type="curve" smooth="yes"/>
      <point x="427" y="31" type="line"/>
      <point x="420" y="0" type="line"/>
      <point x="989" y="0" type="line"/>
      <point x="1028" y="189" type="line"/>
      <point x="1000" y="189" type="line"/>
      <point x="966" y="74" type="line" smooth="yes"/>
      <point x="955" y="38"/>
      <point x="912" y="31"/>
      <point x="812" y="31" type="curve" smooth="yes"/>
      <point x="579" y="31" type="line"/>
      <point x="713" y="679" type="line"/>
      <point x="908" y="679" type="line" smooth="yes"/>
      <point x="1008" y="679"/>
      <point x="1049" y="672"/>
      <point x="1045" y="636" type="curve" smooth="yes"/>
      <point x="1036" y="546" type="line"/>
      <point x="1063" y="546" type="line"/>
      <point x="1097" y="710" type="line"/>
      <point x="499" y="710" type="line"/>
      <point x="492" y="679" type="line"/>
      <point x="507" y="679" type="line" smooth="yes"/>
      <point x="568" y="679"/>
      <point x="608" y="672"/>
      <point x="606" y="654" type="curve"/>
      <point x="53" y="74" type="line"/>
      <point x="20" y="40"/>
      <point x="1" y="31"/>
      <point x="-37" y="31" type="curve" smooth="yes"/>
      <point x="-42" y="31" type="line"/>
    </contour>
  </outline>
</glyph>
<glyph name="multiply" format="2">
  <advance width="652"/>
  <unicode hex="00D7"/>
  <outline>
    <contour>
      <point x="121" y="160" type="line"/>
      <point x="583" y="499" type="line"/>
      <point x="562" y="522" type="line"/>
      <point x="101" y="184" type="line"/>
    </contour>
    <contour>
      <point x="492" y="160" type="line"/>
      <point x="516" y="182" type="line"/>
      <point x="193" y="522" type="line"/>
      <point x="167" y="501" type="line"/>
    </contour>
  </outline>
</glyph>
<glyph name="germandbls" format="2">
  <advance width="610"/>
  <unicode hex="00DF"/>
  <outline>
    <contour>
      <point x="63" y="508" type="line"/>
      <point x="59" y="477" type="line"/>
      <point x="208" y="477" type="line"/>
      <point x="213" y="508" type="line"/>
    </contour>
    <contour>
      <point x="68" y="-223" type="line"/>
      <point x="104" y="-223" type="line"/>
      <point x="233" y="591" type="line" smooth="yes"/>
      <point x="248" y="684"/>
      <point x="306" y="721"/>
      <point x="389" y="721" type="curve" smooth="yes"/>
      <point x="483" y="721"/>
      <point x="526" y="671"/>
      <point x="526" y="610" type="curve" smooth="yes"/>
      <point x="526" y="517"/>
      <point x="429" y="439"/>
      <point x="278" y="436" type="curve"/>
      <point x="272" y="407" type="line"/>
      <point x="416" y="395"/>
      <point x="506" y="312"/>
      <point x="506" y="204" type="curve" smooth="yes"/>
      <point x="506" y="82"/>
      <point x="430" y="20"/>
      <point x="326" y="20" type="curve" smooth="yes"/>
      <point x="268" y="20"/>
      <point x="209" y="45"/>
      <point x="204" y="47" type="curve"/>
      <point x="196" y="13" type="line"/>
      <point x="217" y="4"/>
      <point x="265" y="-11"/>
      <point x="326" y="-11" type="curve" smooth="yes"/>
      <point x="467" y="-11"/>
      <point x="551" y="78"/>
      <point x="551" y="204" type="curve" smooth="yes"/>
      <point x="551" y="318"/>
      <point x="450" y="404"/>
      <point x="308" y="424" type="curve"/>
      <point x="329" y="413" type="line"/>
      <point x="334" y="428" type="line"/>
      <point x="301" y="418" type="line"/>
      <point x="434" y="422"/>
      <point x="565" y="497"/>
      <point x="565" y="610" type="curve" smooth="yes"/>
      <point x="565" y="685"/>
      <point x="511" y="752"/>
      <point x="389" y="752" type="curve" smooth="yes"/>
      <point x="285" y="752"/>
      <point x="205" y="702"/>
      <point x="190" y="592" type="curve" smooth="yes"/>
    </contour>
  </outline>
</glyph>
<glyph name="ae" format="2">
  <advance width="907"/>
  <unicode hex="00E6"/>
  <anchor x="460" y="508" name="top"/>
  <outline>
    <contour>
      <point x="648" y="-12" type="curve" smooth="yes"/>
      <point x="756" y="-12"/>
      <point x="830" y="39"/>
      <point x="870" y="103" type="curve"/>
      <point x="841" y="122" type="line"/>
      <point x="796" y="57"/>
      <point x="741" y="19"/>
      <point x="647" y="19" type="curve" smooth="yes"/>
      <point x="540" y="19"/>
      <point x="465" y="81"/>
      <point x="465" y="207" type="curve" smooth="yes"/>
      <point x="465" y="365"/>
      <point x="571" y="487"/>
      <point x="726" y="487" type="curve" smooth="yes"/>
      <point x="794" y="487"/>
      <point x="838" y="460"/>
      <point x="838" y="406" type="curve" smooth="yes"/>
      <point x="838" y="310"/>
      <point x="728" y="268"/>
      <point x="443" y="269" type="curve"/>
      <point x="435" y="241" type="line"/>
      <point x="732" y="238"/>
      <point x="878" y="287"/>
      <point x="878" y="405" type="curve" smooth="yes"/>
      <point x="878" y="476"/>
      <point x="821" y="518"/>
      <point x="725" y="518" type="curve" smooth="yes"/>
      <point x="612" y="518"/>
      <point x="510" y="453"/>
      <point x="462" y="338" type="curve"/>
      <point x="439" y="296"/>
      <point x="421" y="268"/>
      <point x="421" y="207" type="curve" smooth="yes"/>
      <point x="421" y="64"/>
      <point x="519" y="-12"/>
    </contour>
    <contour>
      <point x="428" y="257" type="line"/>
      <point x="483" y="347" type="line"/>
      <point x="487" y="386" type="line"/>
      <point x="487" y="466"/>
      <point x="436" y="518"/>
      <point x="306" y="518" type="curve" smooth="yes"/>
      <point x="229" y="518"/>
      <point x="162" y="492"/>
      <point x="128" y="471" type="curve"/>
      <point x="113" y="387" type="line"/>
      <point x="163" y="387" type="line"/>
      <point x="180" y="471" type="line"/>
      <point x="154" y="471"/>
      <point x="140" y="448"/>
      <point x="140" y="432" type="curve"/>
      <point x="174" y="463"/>
      <point x="232" y="487"/>
      <point x="307" y="487" type="curve" smooth="yes"/>
      <point x="402" y="487"/>
      <point x="452" y="450"/>
      <point x="452" y="382" type="curve" smooth="yes"/>
      <point x="452" y="369"/>
      <point x="449" y="357"/>
      <point x="446" y="340" type="curve"/>
    </contour>
    <contour>
      <point x="217" y="-12" type="curve" smooth="yes"/>
      <point x="310" y="-12"/>
      <point x="397" y="41"/>
      <point x="452" y="136" type="curve"/>
      <point x="441" y="176" type="line"/>
      <point x="387" y="75"/>
      <point x="306" y="19"/>
      <point x="216" y="19" type="curve" smooth="yes"/>
      <point x="135" y="19"/>
      <point x="83" y="57"/>
      <point x="83" y="120" type="curve" smooth="yes"/>
      <point x="83" y="214"/>
      <point x="170" y="253"/>
      <point x="463" y="241" type="curve"/>
      <point x="471" y="269" type="line"/>
      <point x="163" y="281"/>
      <point x="40" y="241"/>
      <point x="40" y="120" type="curve" smooth="yes"/>
      <point x="40" y="40"/>
      <point x="111" y="-12"/>
    </contour>
  </outline>
</glyph>
<glyph name="icircumflex" format="2">
  <advance width="303"/>
  <unicode hex="00EE"/>
  <outline>
    <contour>
      <point x="245" y="739" type="line"/>
      <point x="334" y="606" type="line"/>
      <point x="332" y="596" type="line"/>
      <point x="308" y="596" type="line"/>
      <point x="185" y="725" type="line"/>
      <point x="234" y="725" type="line"/>
      <point x="50" y="596" type="line"/>
      <point x="29" y="596" type="line"/>
      <point x="31" y="606" type="line"/>
      <point x="173" y="739" type="line"/>
    </contour>
    <component base="dotlessi"/>
  </outline>
</glyph>
<glyph name="idieresis" format="2">
  <advance width="303"/>
  <unicode hex="00EF"/>
  <outline>
    <contour>
      <point x="80" y="656" type="curve" smooth="yes"/>
      <point x="105" y="656"/>
      <point x="124" y="670"/>
      <point x="124" y="696" type="curve" smooth="yes"/>
      <point x="124" y="723"/>
      <point x="105" y="737"/>
      <point x="80" y="737" type="curve" smooth="yes"/>
      <point x="55" y="737"/>
      <point x="36" y="723"/>
      <point x="36" y="696" type="curve" smooth="yes"/>
      <point x="36" y="670"/>
      <point x="55" y="656"/>
    </contour>
    <contour>
      <point x="290" y="656" type="curve" smooth="yes"/>
      <point x="316" y="656"/>
      <point x="334" y="670"/>
      <point x="334" y="696" type="curve" smooth="yes"/>
      <point x="334" y="723"/>
      <point x="316" y="737"/>
      <point x="290" y="737" type="curve" smooth="yes"/>
      <point x="265" y="737"/>
      <point x="246" y="723"/>
      <point x="246" y="696" type="curve" smooth="yes"/>
      <point x="246" y="670"/>
      <point x="265" y="656"/>
    </contour>
    <component base="dotlessi"/>
  </outline>
</glyph>
<glyph name="divide" format="2">
  <advance width="652"/>
  <unicode hex="00F7"/>
  <outline>
    <contour>
      <point x="415" y="509" type="curve" smooth="yes"/>
      <point x="415" y="535"/>
      <point x="397" y="552"/>
      <point x="369" y="552" type="curve" smooth="yes"/>
      <point x="341" y="552"/>
      <point x="322" y="535"/>
      <point x="322" y="509" type="curve" smooth="yes"/>
      <point x="322" y="483"/>
      <point x="341" y="466"/>
      <point x="369" y="466" type="curve" smooth="yes"/>
      <point x="397" y="466"/>
      <point x="415" y="483"/>
    </contour>
    <contour>
      <point x="348" y="173" type="curve" smooth="yes"/>
      <point x="348" y="199"/>
      <point x="329" y="216"/>
      <point x="301" y="216" type="curve" smooth="yes"/>
      <point x="274" y="216"/>
      <point x="255" y="199"/>
      <point x="255" y="173" type="curve" smooth="yes"/>
      <point x="255" y="147"/>
      <point x="274" y="131"/>
      <point x="301" y="131" type="curve" smooth="yes"/>
      <point x="329" y="131"/>
      <point x="348" y="147"/>
    </contour>
    <component base="minus"/>
  </outline>
</glyph>
<glyph name="oslash" format="2">
  <advance width="619"/>
  <unicode hex="00F8"/>
  <anchor x="310" y="508" name="top"/>
  <outline>
    <contour>
      <point x="277" y="-12" type="curve" smooth="yes"/>
      <point x="453" y="-12"/>
      <point x="573" y="133"/>
      <point x="573" y="288" type="curve" smooth="yes"/>
      <point x="573" y="415"/>
      <point x="479" y="518"/>
      <point x="342" y="518" type="curve" smooth="yes"/>
      <point x="166" y="518"/>
      <point x="46" y="373"/>
      <point x="46" y="218" type="curve" smooth="yes"/>
      <point x="46" y="91"/>
      <point x="140" y="-12"/>
    </contour>
    <contour>
      <point x="-52" y="-15" type="line"/>
      <point x="-7" y="-15" type="line"/>
      <point x="664" y="518" type="line"/>
      <point x="620" y="518" type="line"/>
    </contour>
    <contour>
      <point x="277" y="19" type="curve" smooth="yes"/>
      <point x="162" y="19"/>
      <point x="91" y="88"/>
      <point x="91" y="218" type="curve" smooth="yes"/>
      <point x="91" y="259"/>
      <point x="100" y="302"/>
      <point x="119" y="341" type="curve" smooth="yes"/>
      <point x="157" y="422"/>
      <point x="234" y="487"/>
      <point x="343" y="487" type="curve" smooth="yes"/>
      <point x="458" y="487"/>
      <point x="529" y="418"/>
      <point x="529" y="288" type="curve" smooth="yes"/>
      <point x="529" y="247"/>
      <point x="520" y="204"/>
      <point x="501" y="165" type="curve" smooth="yes"/>
      <point x="462" y="84"/>
      <point x="385" y="19"/>
    </contour>
  </outline>
</glyph>
<glyph name="thorn" format="2">
  <advance width="657"/>
  <unicode hex="00FE"/>
  <outline>
    <contour>
      <point x="-61" y="-223" type="line"/>
      <point x="197" y="-223" type="line"/>
      <point x="201" y="-195" type="line"/>
      <point x="168" y="-195" type="line" smooth="yes"/>
      <point x="138" y="-195"/>
      <point x="84" y="-192"/>
      <point x="85" y="-185" type="curve" smooth="yes"/>
      <point x="276" y="735" type="line"/>
      <point x="138" y="735" type="line"/>
      <point x="133" y="709" type="line"/>
      <point x="144" y="707" type="line" smooth="yes"/>
      <point x="200" y="698"/>
      <point x="227" y="691"/>
      <point x="220" y="662" type="curve" smooth="yes"/>
      <point x="49" y="-159" type="line" smooth="yes"/>
      <point x="43" y="-188"/>
      <point x="1" y="-195"/>
      <point x="-54" y="-195" type="curve" smooth="yes"/>
      <point x="-57" y="-195" type="line"/>
    </contour>
    <contour>
      <point x="301" y="-11" type="curve" smooth="yes"/>
      <point x="490" y="-11"/>
      <point x="612" y="146"/>
      <point x="612" y="322" type="curve" smooth="yes"/>
      <point x="612" y="433"/>
      <point x="563" y="518"/>
      <point x="442" y="518" type="curve" smooth="yes"/>
      <point x="327" y="518"/>
      <point x="241" y="433"/>
      <point x="164" y="299" type="curve"/>
      <point x="170" y="267" type="line"/>
      <point x="247" y="394"/>
      <point x="331" y="487"/>
      <point x="441" y="487" type="curve" smooth="yes"/>
      <point x="532" y="487"/>
      <point x="567" y="413"/>
      <point x="567" y="322" type="curve" smooth="yes"/>
      <point x="567" y="163"/>
      <point x="472" y="20"/>
      <point x="301" y="20" type="curve" smooth="yes"/>
      <point x="215" y="20"/>
      <point x="148" y="70"/>
      <point x="135" y="159" type="curve"/>
      <point x="114" y="126" type="line"/>
      <point x="128" y="38"/>
      <point x="206" y="-11"/>
    </contour>
  </outline>
</glyph>
<glyph name="Aogonek" format="2">
  <advance width="773"/>
  <unicode hex="0104"/>
  <outline>
    <contour>
      <point x="506" y="-233" type="curve" smooth="yes"/>
      <point x="438" y="-233"/>
      <point x="399" y="-197"/>
      <point x="399" y="-145" type="curve" smooth="yes"/>
      <point x="399" y="-74"/>
      <point x="485" y="-14"/>
      <point x="617" y="24" type="curve"/>
      <point x="631" y="2" type="line"/>
      <point x="496" y="-41"/>
      <point x="441" y="-86"/>
      <point x="441" y="-145" type="curve" smooth="yes"/>
      <point x="441" y="-180"/>
      <point x="465" y="-202"/>
      <point x="504" y="-202" type="curve" smooth="yes"/>
      <point x="545" y="-202"/>
      <point x="575" y="-184"/>
      <point x="605" y="-159" type="curve"/>
      <point x="624" y="-181" type="line"/>
      <point x="588" y="-212"/>
      <point x="551" y="-233"/>
    </contour>
    <contour>
      <point x="193" y="267" type="line"/>
      <point x="205" y="298" type="line"/>
      <point x="554" y="298" type="line"/>
      <point x="550" y="267" type="line"/>
    </contour>
    <contour>
      <point x="467" y="691" type="line"/>
      <point x="77" y="49" type="line"/>
      <point x="74" y="38"/>
      <point x="127" y="31"/>
      <point x="171" y="31" type="curve" smooth="yes"/>
      <point x="188" y="31" type="line"/>
      <point x="182" y="0" type="line"/>
      <point x="-56" y="0" type="line"/>
      <point x="-50" y="31" type="line"/>
      <point x="-43" y="31" type="line"/>
      <point x="0" y="31"/>
      <point x="24" y="37"/>
      <point x="47" y="73" type="curve" smooth="yes"/>
      <point x="433" y="710" type="line"/>
      <point x="494" y="710" type="line"/>
      <point x="624" y="59" type="line" smooth="yes"/>
      <point x="628" y="33"/>
      <point x="654" y="31"/>
      <point x="693" y="31" type="curve"/>
      <point x="700" y="31" type="line"/>
      <point x="693" y="0" type="line"/>
      <point x="588" y="0" type="line"/>
      <point x="457" y="687" type="line"/>
    </contour>
  </outline>
</glyph>
<glyph name="dcroat" format="2">
  <advance width="637"/>
  <unicode hex="0111"/>
  <outline>
    <contour>
      <point x="216" y="-11" type="curve" smooth="yes"/>
      <point x="331" y="-11"/>
      <point x="417" y="74"/>
      <point x="494" y="208" type="curve"/>
      <point x="488" y="240" type="line"/>
      <point x="411" y="113"/>
      <point x="327" y="20"/>
      <point x="217" y="20" type="curve" smooth="yes"/>
      <point x="125" y="20"/>
      <point x="90" y="94"/>
      <point x="90" y="185" type="curve" smooth="yes"/>
      <point x="90" y="344"/>
      <point x="185" y="487"/>
      <point x="357" y="487" type="curve" smooth="yes"/>
      <point x="442" y="487"/>
      <point x="510" y="437"/>
      <point x="522" y="348" type="curve"/>
      <point x="543" y="381" type="line"/>
      <point x="529" y="469"/>
      <point x="451" y="518"/>
      <point x="357" y="518" type="curve" smooth="yes"/>
      <point x="168" y="518"/>
      <point x="46" y="361"/>
      <point x="46" y="185" type="curve" smooth="yes"/>
      <point x="46" y="74"/>
      <point x="95" y="-11"/>
    </contour>
    <contour>
      <point x="529" y="-7" type="curve" smooth="yes"/>
      <point x="558" y="-7"/>
      <point x="591" y="4"/>
      <point x="604" y="13" type="curve"/>
      <point x="609" y="42" type="line"/>
      <point x="600" y="40"/>
      <point x="570" y="24"/>
      <point x="530" y="24" type="curve" smooth="yes"/>
      <point x="504" y="24"/>
      <point x="488" y="34"/>
      <point x="488" y="58" type="curve" smooth="yes"/>
      <point x="488" y="79"/>
      <point x="496" y="113"/>
      <point x="500" y="139" type="curve"/>
      <point x="623" y="735" type="line"/>
      <point x="581" y="735" type="line"/>
      <point x="469" y="174" type="line"/>
      <point x="466" y="172" type="line"/>
      <point x="457" y="136"/>
      <point x="447" y="85"/>
      <point x="447" y="58" type="curve" smooth="yes"/>
      <point x="447" y="12"/>
      <point x="481" y="-7"/>
    </contour>
    <contour>
      <point x="318" y="632" type="line"/>
      <point x="311" y="601" type="line"/>
      <point x="708" y="601" type="line"/>
      <point x="714" y="632" type="line"/>
    </contour>
  </outline>
</glyph>
<glyph name="eogonek" format="2">
  <advance width="538"/>
  <unicode hex="0119"/>
  <outline>
    <contour>
      <point x="276" y="-233" type="curve" smooth="yes"/>
      <point x="321" y="-233"/>
      <point x="358" y="-212"/>
      <point x="394" y="-181" type="curve"/>
      <point x="375" y="-159" type="line"/>
      <point x="345" y="-184"/>
      <point x="315" y="-202"/>
      <point x="274" y="-202" type="curve" smooth="yes"/>
      <point x="235" y="-202"/>
      <point x="211" y="-181"/>
      <point x="211" y="-149" type="curve" smooth="yes"/>
      <point x="211" y="-53"/>
      <point x="348" y="-31"/>
      <point x="444" y="49" type="curve" smooth="yes"/>
      <point x="464" y="66"/>
      <point x="479" y="84"/>
      <point x="491" y="104" type="curve"/>
      <point x="465" y="123" type="line"/>
      <point x="418" y="57"/>
      <point x="363" y="19"/>
      <point x="272" y="19" type="curve" smooth="yes"/>
      <point x="164" y="19"/>
      <point x="91" y="82"/>
      <point x="91" y="207" type="curve" smooth="yes"/>
      <point x="91" y="365"/>
      <point x="196" y="487"/>
      <point x="340" y="487" type="curve" smooth="yes"/>
      <point x="417" y="487"/>
      <point x="460" y="452"/>
      <point x="460" y="398" type="curve" smooth="yes"/>
      <point x="460" y="292"/>
      <point x="352" y="244"/>
      <point x="68" y="241" type="curve"/>
      <point x="60" y="216" type="line"/>
      <point x="348" y="214"/>
      <point x="500" y="269"/>
      <point x="500" y="398" type="curve" smooth="yes"/>
      <point x="500" y="468"/>
      <point x="444" y="518"/>
      <point x="339" y="518" type="curve" smooth="yes"/>
      <point x="159" y="518"/>
      <point x="46" y="362"/>
      <point x="46" y="207" type="curve" smooth="yes"/>
      <point x="46" y="64"/>
      <point x="142" y="-12"/>
      <point x="272" y="-12" type="curve" smooth="yes"/>
      <point x="308" y="-12"/>
      <point x="341" y="-5"/>
      <point x="371" y="6" type="curve"/>
      <point x="385" y="25" type="line"/>
      <point x="248" y="-27"/>
      <point x="168" y="-81"/>
      <point x="168" y="-149" type="curve" smooth="yes"/>
      <point x="168" y="-198"/>
      <point x="208" y="-233"/>
    </contour>
  </outline>
</glyph>
<glyph name="hbar" format="2">
  <advance width="668"/>
  <unicode hex="0127"/>
  <outline>
    <contour>
      <point x="485" y="205" type="line" smooth="yes"/>
      <point x="470" y="140"/>
      <point x="459" y="91"/>
      <point x="459" y="59" type="curve" smooth="yes"/>
      <point x="459" y="12"/>
      <point x="493" y="-7"/>
      <point x="540" y="-7" type="curve" smooth="yes"/>
      <point x="569" y="-7"/>
      <point x="602" y="4"/>
      <point x="615" y="13" type="curve"/>
      <point x="620" y="42" type="line"/>
      <point x="611" y="40"/>
      <point x="580" y="24"/>
      <point x="541" y="24" type="curve" smooth="yes"/>
      <point x="515" y="24"/>
      <point x="500" y="34"/>
      <point x="500" y="60" type="curve" smooth="yes"/>
      <point x="500" y="87"/>
      <point x="512" y="139"/>
      <point x="522" y="187" type="curve" smooth="yes"/>
      <point x="549" y="312" type="line" smooth="yes"/>
      <point x="558" y="349"/>
      <point x="567" y="385"/>
      <point x="567" y="418" type="curve" smooth="yes"/>
      <point x="567" y="477"/>
      <point x="523" y="518"/>
      <point x="446" y="518" type="curve" smooth="yes"/>
      <point x="342" y="518"/>
      <point x="248" y="434"/>
      <point x="163" y="308" type="curve"/>
      <point x="171" y="281" type="line"/>
      <point x="256" y="401"/>
      <point x="342" y="484"/>
      <point x="437" y="484" type="curve" smooth="yes"/>
      <point x="496" y="484"/>
      <point x="526" y="457"/>
      <point x="526" y="418" type="curve" smooth="yes"/>
      <point x="526" y="382"/>
      <point x="518" y="352"/>
      <point x="510" y="315" type="curve" smooth="yes"/>
    </contour>
    <contour>
      <point x="84" y="0" type="line"/>
      <point x="124" y="0" type="line"/>
      <point x="277" y="735" type="line"/>
      <point x="236" y="735" type="line"/>
    </contour>
    <contour>
      <point x="509" y="601" type="line"/>
      <point x="516" y="632" type="line"/>
      <point x="102" y="632" type="line"/>
      <point x="96" y="601" type="line"/>
    </contour>
  </outline>
</glyph>
<glyph name="itilde" format="2">
  <advance width="303"/>
  <unicode hex="0129"/>
  <outline>
    <contour>
      <point x="250" y="616" type="curve" smooth="yes"/>
      <point x="309" y="616"/>
      <point x="330" y="652"/>
      <point x="356" y="717" type="curve"/>
      <point x="327" y="728" type="line"/>
      <point x="307" y="679"/>
      <point x="291" y="651"/>
      <point x="255" y="651" type="curve" smooth="yes"/>
      <point x="201" y="651"/>
      <point x="195" y="727"/>
      <point x="124" y="727" type="curve" smooth="yes"/>
      <point x="73" y="727"/>
      <point x="40" y="698"/>
      <point x="20" y="628" type="curve"/>
      <point x="48" y="616" type="line"/>
      <point x="64" y="667"/>
      <point x="84" y="692"/>
      <point x="116" y="692" type="curve" smooth="yes"/>
      <point x="166" y="692"/>
      <point x="172" y="616"/>
    </contour>
    <component base="dotlessi"/>
  </outline>
</glyph>
<glyph name="ibreve" format="2">
  <advance width="303"/>
  <unicode hex="012D"/>
  <outline>
    <contour>
      <point x="186" y="594" type="curve" smooth="yes"/>
      <point x="107" y="594"/>
      <point x="59" y="634"/>
      <point x="59" y="711" type="curve" smooth="yes"/>
      <point x="59" y="716"/>
      <point x="59" y="726"/>
      <point x="60" y="736" type="curve"/>
      <point x="89" y="736" type="line"/>
      <point x="87" y="670"/>
      <point x="111" y="637"/>
      <point x="191" y="637" type="curve" smooth="yes"/>
      <point x="248" y="637"/>
      <point x="291" y="662"/>
      <point x="310" y="736" type="curve"/>
      <point x="338" y="736" type="line"/>
      <point x="317" y="636"/>
      <point x="258" y="594"/>
    </contour>
    <component base="dotlessi"/>
  </outline>
</glyph>
<glyph name="iogonek" format="2">
  <advance width="303"/>
  <unicode hex="012F"/>
  <outline>
    <contour>
      <point x="229" y="21" type="line"/>
      <point x="107" y="-24"/>
      <point x="26" y="-80"/>
      <point x="26" y="-145" type="curve" smooth="yes"/>
      <point x="26" y="-197"/>
      <point x="65" y="-233"/>
      <point x="134" y="-233" type="curve" smooth="yes"/>
      <point x="178" y="-233"/>
      <point x="216" y="-212"/>
      <point x="252" y="-181" type="curve"/>
      <point x="233" y="-159" type="line"/>
      <point x="202" y="-184"/>
      <point x="172" y="-202"/>
      <point x="131" y="-202" type="curve" smooth="yes"/>
      <point x="93" y="-202"/>
      <point x="69" y="-180"/>
      <point x="69" y="-145" type="curve" smooth="yes"/>
      <point x="69" y="-90"/>
      <point x="118" y="-48"/>
      <point x="241" y="6" type="curve"/>
    </contour>
    <component base="i"/>
  </outline>
</glyph>
<glyph name="dotlessi" format="2">
  <advance width="303"/>
  <unicode hex="0131"/>
  <anchor x="163" y="508" name="top"/>
  <outline>
    <contour>
      <point x="161" y="185" type="curve" smooth="yes"/>
      <point x="227" y="508" type="line"/>
      <point x="89" y="508" type="line"/>
      <point x="84" y="482" type="line"/>
      <point x="95" y="480" type="line" smooth="yes"/>
      <point x="150" y="470"/>
      <point x="177" y="464"/>
      <point x="171" y="435" type="curve" smooth="yes"/>
      <point x="123" y="203" type="line" smooth="yes"/>
      <point x="110" y="143"/>
      <point x="98" y="91"/>
      <point x="98" y="59" type="curve" smooth="yes"/>
      <point x="98" y="12"/>
      <point x="132" y="-7"/>
      <point x="180" y="-7" type="curve" smooth="yes"/>
      <point x="208" y="-7"/>
      <point x="241" y="4"/>
      <point x="254" y="13" type="curve"/>
      <point x="259" y="42" type="line"/>
      <point x="251" y="40"/>
      <point x="220" y="24"/>
      <point x="180" y="24" type="curve" smooth="yes"/>
      <point x="154" y="24"/>
      <point x="139" y="34"/>
      <point x="139" y="60" type="curve" smooth="yes"/>
      <point x="139" y="87"/>
      <point x="151" y="142"/>
    </contour>
  </outline>
</glyph>
<glyph name="lslash" format="2">
  <advance width="309"/>
  <unicode hex="0142"/>
  <outline>
    <contour>
      <point x="20" y="229" type="line"/>
      <point x="347" y="479" type="line"/>
      <point x="355" y="525" type="line"/>
      <point x="29" y="275" type="line"/>
    </contour>
    <component base="l" xOffset="12"/>
  </outline>
</glyph>
<glyph name="eng" format="2">
  <advance width="641"/>
  <unicode hex="014B"/>
  <outline>
    <contour>
      <point x="414" y="-84" type="line" smooth="yes"/>
      <point x="394" y="-170"/>
      <point x="350" y="-203"/>
      <point x="283" y="-203" type="curve" smooth="yes"/>
      <point x="231" y="-203"/>
      <point x="191" y="-188"/>
      <point x="172" y="-181" type="curve"/>
      <point x="164" y="-215" type="line"/>
      <point x="181" y="-222"/>
      <point x="223" y="-236"/>
      <point x="280" y="-236" type="curve" smooth="yes"/>
      <point x="358" y="-236"/>
      <point x="428" y="-206"/>
      <point x="455" y="-86" type="curve" smooth="yes"/>
      <point x="548" y="312" type="line" smooth="yes"/>
      <point x="557" y="349"/>
      <point x="565" y="385"/>
      <point x="565" y="418" type="curve" smooth="yes"/>
      <point x="565" y="477"/>
      <point x="522" y="518"/>
      <point x="445" y="518" type="curve" smooth="yes"/>
      <point x="340" y="518"/>
      <point x="247" y="434"/>
      <point x="162" y="308" type="curve"/>
      <point x="170" y="281" type="line"/>
      <point x="255" y="401"/>
      <point x="341" y="484"/>
      <point x="436" y="484" type="curve" smooth="yes"/>
      <point x="495" y="484"/>
      <point x="524" y="457"/>
      <point x="524" y="418" type="curve" smooth="yes"/>
      <point x="524" y="382"/>
      <point x="517" y="352"/>
      <point x="509" y="315" type="curve" smooth="yes"/>
    </contour>
    <contour>
      <point x="123" y="0" type="line"/>
      <point x="194" y="346" type="line"/>
      <point x="196" y="353" type="line"/>
      <point x="229" y="508" type="line"/>
      <point x="90" y="508" type="line"/>
      <point x="85" y="482" type="line"/>
      <point x="96" y="480" type="line" smooth="yes"/>
      <point x="152" y="470"/>
      <point x="178" y="464"/>
      <point x="172" y="435" type="curve" smooth="yes"/>
      <point x="82" y="0" type="line"/>
    </contour>
  </outline>
</glyph>
<glyph name="Schwa" format="2">
  <advance width="788"/>
  <unicode hex="018F"/>
  <outline>
    <contour>
      <point x="358" y="-11" type="curve" smooth="yes"/>
      <point x="618" y="-11"/>
      <point x="748" y="209"/>
      <point x="748" y="416" type="curve" smooth="yes"/>
      <point x="748" y="614"/>
      <point x="613" y="720"/>
      <point x="420" y="720" type="curve" smooth="yes"/>
      <point x="270" y="720"/>
      <point x="163" y="661"/>
      <point x="93" y="566" type="curve"/>
      <point x="113" y="540" type="line"/>
      <point x="172" y="625"/>
      <point x="277" y="689"/>
      <point x="420" y="689" type="curve" smooth="yes"/>
      <point x="593" y="689"/>
      <point x="705" y="604"/>
      <point x="705" y="416" type="curve" smooth="yes"/>
      <point x="705" y="223"/>
      <point x="597" y="20"/>
      <point x="358" y="20" type="curve" smooth="yes"/>
      <point x="183" y="20"/>
      <point x="93" y="96"/>
      <point x="93" y="255" type="curve" smooth="yes"/>
      <point x="93" y="287"/>
      <point x="96" y="321"/>
      <point x="103" y="356" type="curve"/>
      <point x="76" y="336" type="line"/>
      <point x="718" y="336" type="line"/>
      <point x="722" y="367" type="line"/>
      <point x="64" y="367" type="line"/>
      <point x="56" y="326"/>
      <point x="52" y="289"/>
      <point x="52" y="255" type="curve" smooth="yes"/>
      <point x="52" y="78"/>
      <point x="174" y="-11"/>
    </contour>
  </outline>
</glyph>
<glyph name="oogonek" format="2">
  <advance width="620"/>
  <unicode hex="01EB"/>
  <outline>
    <contour>
      <point x="289" y="-233" type="curve" smooth="yes"/>
      <point x="334" y="-233"/>
      <point x="371" y="-212"/>
      <point x="407" y="-181" type="curve"/>
      <point x="388" y="-159" type="line"/>
      <point x="358" y="-184"/>
      <point x="327" y="-202"/>
      <point x="286" y="-202" type="curve" smooth="yes"/>
      <point x="248" y="-202"/>
      <point x="224" y="-183"/>
      <point x="224" y="-148" type="curve" smooth="yes"/>
      <point x="224" y="-59"/>
      <point x="362" y="-34"/>
      <point x="472" y="58" type="curve" smooth="yes"/>
      <point x="537" y="115"/>
      <point x="574" y="200"/>
      <point x="574" y="288" type="curve" smooth="yes"/>
      <point x="574" y="415"/>
      <point x="480" y="518"/>
      <point x="342" y="518" type="curve" smooth="yes"/>
      <point x="166" y="518"/>
      <point x="46" y="373"/>
      <point x="46" y="218" type="curve" smooth="yes"/>
      <point x="46" y="91"/>
      <point x="140" y="-12"/>
      <point x="277" y="-12" type="curve" smooth="yes"/>
      <point x="315" y="-12"/>
      <point x="352" y="-5"/>
      <point x="383" y="7" type="curve"/>
      <point x="400" y="19" type="line"/>
      <point x="264" y="-25"/>
      <point x="181" y="-83"/>
      <point x="181" y="-148" type="curve" smooth="yes"/>
      <point x="181" y="-200"/>
      <point x="220" y="-233"/>
    </contour>
    <contour>
      <point x="277" y="19" type="curve" smooth="yes"/>
      <point x="160" y="19"/>
      <point x="90" y="102"/>
      <point x="90" y="218" type="curve" smooth="yes"/>
      <point x="90" y="259"/>
      <point x="100" y="302"/>
      <point x="118" y="341" type="curve" smooth="yes"/>
      <point x="157" y="422"/>
      <point x="234" y="487"/>
      <point x="343" y="487" type="curve" smooth="yes"/>
      <point x="460" y="487"/>
      <point x="530" y="404"/>
      <point x="530" y="288" type="curve" smooth="yes"/>
      <point x="530" y="247"/>
      <point x="521" y="204"/>
      <point x="502" y="165" type="curve" smooth="yes"/>
      <point x="464" y="84"/>
      <point x="386" y="19"/>
    </contour>
  </outline>
</glyph>
<glyph name="dotlessj" format="2">
  <advance width="285"/>
  <unicode hex="0237"/>
  <anchor x="127" y="508" name="top"/>
  <outline>
    <contour>
      <point x="77" y="-84" type="line" smooth="yes"/>
      <point x="62" y="-170"/>
      <point x="13" y="-203"/>
      <point x="-54" y="-203" type="curve" smooth="yes"/>
      <point x="-106" y="-203"/>
      <point x="-146" y="-188"/>
      <point x="-166" y="-181" type="curve"/>
      <point x="-173" y="-215" type="line"/>
      <point x="-156" y="-222"/>
      <point x="-114" y="-236"/>
      <point x="-57" y="-236" type="curve" smooth="yes"/>
      <point x="21" y="-236"/>
      <point x="97" y="-206"/>
      <point x="118" y="-86" type="curve" smooth="yes"/>
      <point x="227" y="508" type="line"/>
      <point x="88" y="508" type="line"/>
      <point x="84" y="482" type="line"/>
      <point x="95" y="480" type="line" smooth="yes"/>
      <point x="151" y="470"/>
      <point x="177" y="464"/>
      <point x="171" y="435" type="curve" smooth="yes"/>
    </contour>
  </outline>
</glyph>
<glyph name="verticallinemod" format="2">
  <advance width="582"/>
  <unicode hex="02C8"/>
  <outline>
    <contour>
      <point x="258" y="547" type="line"/>
      <point x="337" y="547" type="line"/>
      <point x="337" y="750" type="line"/>
      <point x="258" y="750" type="line"/>
    </contour>
  </outline>
</glyph>
<glyph name="breve" format="2">
  <advance width="583"/>
  <unicode hex="02D8"/>
  <anchor x="294" y="517" name="_top"/>
  <outline>
    <contour>
      <point x="300" y="594" type="curve" smooth="yes"/>
      <point x="372" y="594"/>
      <point x="431" y="636"/>
      <point x="452" y="736" type="curve"/>
      <point x="423" y="736" type="line"/>
      <point x="405" y="662"/>
      <point x="361" y="637"/>
      <point x="305" y="637" type="curve" smooth="yes"/>
      <point x="225" y="637"/>
      <point x="201" y="670"/>
      <point x="202" y="736" type="curve"/>
      <point x="174" y="736" type="line"/>
      <point x="173" y="726"/>
      <point x="173" y="716"/>
      <point x="173" y="711" type="curve" smooth="yes"/>
      <point x="173" y="634"/>
      <point x="220" y="594"/>
    </contour>
  </outline>
</glyph>
<glyph name="dotaccent" format="2">
  <advance width="583"/>
  <unicode hex="02D9"/>
  <anchor x="292" y="526" name="_top"/>
  <outline>
    <contour>
      <point x="295" y="656" type="curve" smooth="yes"/>
      <point x="270" y="656"/>
      <point x="251" y="670"/>
      <point x="251" y="696" type="curve" smooth="yes"/>
      <point x="251" y="723"/>
      <point x="270" y="737"/>
      <point x="295" y="737" type="curve" smooth="yes"/>
      <point x="321" y="737"/>
      <point x="339" y="723"/>
      <point x="339" y="696" type="curve" smooth="yes"/>
      <point x="339" y="670"/>
      <point x="321" y="656"/>
    </contour>
  </outline>
</glyph>
<glyph name="ogonek" format="2">
  <advance width="699"/>
  <unicode hex="02DB"/>
  <anchor x="414" y="9" name="_right"/>
  <outline>
    <contour>
      <point x="510" y="22" type="line"/>
      <point x="377" y="-24"/>
      <point x="296" y="-83"/>
      <point x="296" y="-148" type="curve" smooth="yes"/>
      <point x="296" y="-200"/>
      <point x="336" y="-233"/>
      <point x="404" y="-233" type="curve" smooth="yes"/>
      <point x="449" y="-233"/>
      <point x="486" y="-212"/>
      <point x="522" y="-181" type="curve"/>
      <point x="503" y="-159" type="line"/>
      <point x="473" y="-184"/>
      <point x="443" y="-202"/>
      <point x="402" y="-202" type="curve" smooth="yes"/>
      <point x="363" y="-202"/>
      <point x="339" y="-183"/>
      <point x="339" y="-148" type="curve" smooth="yes"/>
      <point x="339" y="-95"/>
      <point x="389" y="-50"/>
      <point x="524" y="2" type="curve"/>
    </contour>
  </outline>
</glyph>
<glyph name="tilde" format="2">
  <advance width="583"/>
  <unicode hex="02DC"/>
  <anchor x="292" y="516" name="_top"/>
  <outline>
    <contour>
      <point x="365" y="616" type="curve" smooth="yes"/>
      <point x="426" y="616"/>
      <point x="446" y="652"/>
      <point x="475" y="717" type="curve"/>
      <point x="446" y="728" type="line"/>
      <point x="424" y="679"/>
      <point x="410" y="651"/>
      <point x="372" y="651" type="curve" smooth="yes"/>
      <point x="315" y="651"/>
      <point x="303" y="727"/>
      <point x="222" y="727" type="curve" smooth="yes"/>
      <point x="169" y="727"/>
      <point x="138" y="698"/>
      <point x="115" y="628" type="curve"/>
      <point x="143" y="616" type="line"/>
      <point x="160" y="667"/>
      <point x="179" y="692"/>
      <point x="215" y="692" type="curve" smooth="yes"/>
      <point x="274" y="692"/>
      <point x="283" y="616"/>
    </contour>
  </outline>
</glyph>
<glyph name="Omega" format="2">
  <advance width="878"/>
  <unicode hex="03A9"/>
  <outline>
    <contour>
      <point x="484" y="689" type="curve" smooth="yes"/>
      <point x="280" y="689"/>
      <point x="160" y="588"/>
      <point x="160" y="396" type="curve" smooth="yes"/>
      <point x="160" y="260"/>
      <point x="223" y="166"/>
      <point x="331" y="44" type="curve"/>
      <point x="327" y="0" type="line"/>
      <point x="4" y="0" type="line"/>
      <point x="39" y="180" type="line"/>
      <point x="67" y="180" type="line"/>
      <point x="57" y="74" type="line" smooth="yes"/>
      <point x="53" y="39"/>
      <point x="96" y="31"/>
      <point x="196" y="31" type="curve" smooth="yes"/>
      <point x="318" y="31" type="line"/>
      <point x="314" y="13" type="line"/>
      <point x="186" y="159"/>
      <point x="118" y="275"/>
      <point x="118" y="397" type="curve" smooth="yes"/>
      <point x="118" y="603"/>
      <point x="271" y="720"/>
      <point x="484" y="720" type="curve" smooth="yes"/>
      <point x="674" y="720"/>
      <point x="807" y="605"/>
      <point x="807" y="451" type="curve" smooth="yes"/>
      <point x="807" y="293"/>
      <point x="702" y="181"/>
      <point x="441" y="12" type="curve"/>
      <point x="453" y="31" type="line"/>
      <point x="583" y="31" type="line" smooth="yes"/>
      <point x="685" y="31"/>
      <point x="728" y="38"/>
      <point x="738" y="74" type="curve" smooth="yes"/>
      <point x="770" y="180" type="line"/>
      <point x="799" y="180" type="line"/>
      <point x="765" y="0" type="line"/>
      <point x="434" y="0" type="line"/>
      <point x="440" y="44" type="line"/>
      <point x="678" y="194"/>
      <point x="764" y="303"/>
      <point x="764" y="451" type="curve" smooth="yes"/>
      <point x="764" y="596"/>
      <point x="665" y="689"/>
    </contour>
  </outline>
</glyph>
<glyph name="pi" format="2">
  <advance width="780"/>
  <unicode hex="03C0"/>
  <outline>
    <contour>
      <point x="232" y="0" type="line"/>
      <point x="332" y="488" type="line"/>
      <point x="301" y="488" type="line"/>
      <point x="240" y="222"/>
      <point x="225" y="188"/>
      <point x="186" y="0" type="curve"/>
    </contour>
    <contour>
      <point x="773" y="476" type="line"/>
      <point x="778" y="508" type="line"/>
      <point x="350" y="508" type="line" smooth="yes"/>
      <point x="173" y="508"/>
      <point x="106" y="448"/>
      <point x="66" y="336" type="curve"/>
      <point x="90" y="322" type="line"/>
      <point x="123" y="421"/>
      <point x="172" y="476"/>
      <point x="346" y="476" type="curve" smooth="yes"/>
    </contour>
    <contour>
      <point x="620" y="488" type="line"/>
      <point x="589" y="488" type="line"/>
      <point x="521" y="194"/>
      <point x="491" y="126"/>
      <point x="491" y="74" type="curve" smooth="yes"/>
      <point x="491" y="25"/>
      <point x="519" y="-6"/>
      <point x="584" y="-6" type="curve" smooth="yes"/>
      <point x="647" y="-6"/>
      <point x="684" y="33"/>
      <point x="710" y="83" type="curve"/>
      <point x="686" y="97" type="line"/>
      <point x="675" y="73"/>
      <point x="644" y="25"/>
      <point x="589" y="25" type="curve" smooth="yes"/>
      <point x="557" y="25"/>
      <point x="537" y="41"/>
      <point x="537" y="75" type="curve" smooth="yes"/>
      <point x="537" y="93"/>
      <point x="543" y="124"/>
      <point x="550" y="159" type="curve" smooth="yes"/>
    </contour>
  </outline>
</glyph>
<glyph name="Germandbls" format="2">
  <advance width="893"/>
  <unicode hex="1E9E"/>
  <outline>
    <contour>
      <point x="370" y="211" type="curve"/>
      <point x="328" y="211" type="line"/>
      <point x="285" y="0" type="line"/>
      <point x="314" y="0" type="line"/>
      <point x="359" y="159" type="line"/>
      <point x="344" y="182" type="line"/>
      <point x="364" y="70"/>
      <point x="446" y="-10"/>
      <point x="605" y="-10" type="curve" smooth="yes"/>
      <point x="744" y="-10"/>
      <point x="836" y="68"/>
      <point x="836" y="184" type="curve" smooth="yes"/>
      <point x="836" y="320"/>
      <point x="697" y="390"/>
      <point x="546" y="413" type="curve"/>
      <point x="550" y="402" type="line"/>
      <point x="816" y="682" type="line"/>
      <point x="822" y="710" type="line"/>
      <point x="514" y="710" type="line" smooth="yes"/>
      <point x="310" y="710"/>
      <point x="226" y="639"/>
      <point x="193" y="477" type="curve" smooth="yes"/>
      <point x="107" y="67" type="line" smooth="yes"/>
      <point x="101" y="38"/>
      <point x="58" y="31"/>
      <point x="2" y="31" type="curve" smooth="yes"/>
      <point x="-12" y="31" type="line"/>
      <point x="-18" y="0" type="line"/>
      <point x="134" y="0" type="line"/>
      <point x="235" y="491" type="line" smooth="yes"/>
      <point x="262" y="618"/>
      <point x="329" y="679"/>
      <point x="507" y="679" type="curve"/>
      <point x="783" y="679" type="line"/>
      <point x="778" y="694" type="line"/>
      <point x="508" y="414" type="line"/>
      <point x="504" y="385" type="line"/>
      <point x="668" y="367"/>
      <point x="796" y="303"/>
      <point x="796" y="183" type="curve" smooth="yes"/>
      <point x="796" y="86"/>
      <point x="720" y="21"/>
      <point x="605" y="21" type="curve" smooth="yes"/>
      <point x="460" y="21"/>
      <point x="385" y="102"/>
    </contour>
  </outline>
</glyph>
<glyph name="perthousand" format="2">
  <advance width="1269"/>
  <unicode hex="2030"/>
  <outline>
    <contour>
      <point x="214" y="382" type="curve" smooth="yes"/>
      <point x="316" y="382"/>
      <point x="399" y="465"/>
      <point x="399" y="580" type="curve" smooth="yes"/>
      <point x="399" y="654"/>
      <point x="345" y="720"/>
      <point x="252" y="720" type="curve" smooth="yes"/>
      <point x="150" y="720"/>
      <point x="67" y="637"/>
      <point x="67" y="522" type="curve" smooth="yes"/>
      <point x="67" y="448"/>
      <point x="121" y="382"/>
    </contour>
    <contour>
      <point x="213" y="413" type="curve"/>
      <point x="153" y="413"/>
      <point x="112" y="454"/>
      <point x="112" y="522" type="curve" smooth="yes"/>
      <point x="112" y="607"/>
      <point x="163" y="689"/>
      <point x="253" y="689" type="curve" smooth="yes"/>
      <point x="313" y="689"/>
      <point x="353" y="648"/>
      <point x="353" y="580" type="curve" smooth="yes"/>
      <point x="353" y="495"/>
      <point x="302" y="413"/>
    </contour>
    <contour>
      <point x="613" y="-10" type="curve" smooth="yes"/>
      <point x="521" y="-10"/>
      <point x="467" y="56"/>
      <point x="467" y="130" type="curve" smooth="yes"/>
      <point x="467" y="245"/>
      <point x="550" y="328"/>
      <point x="652" y="328" type="curve" smooth="yes"/>
      <point x="745" y="328"/>
      <point x="798" y="262"/>
      <point x="798" y="188" type="curve" smooth="yes"/>
      <point x="798" y="73"/>
      <point x="716" y="-10"/>
    </contour>
    <contour>
      <point x="613" y="21" type="curve"/>
      <point x="702" y="21"/>
      <point x="754" y="103"/>
      <point x="754" y="188" type="curve" smooth="yes"/>
      <point x="754" y="256"/>
      <point x="712" y="297"/>
      <point x="652" y="297" type="curve" smooth="yes"/>
      <point x="564" y="297"/>
      <point x="512" y="215"/>
      <point x="512" y="130" type="curve" smooth="yes"/>
      <point x="512" y="62"/>
      <point x="553" y="21"/>
    </contour>
    <contour>
      <point x="1043" y="-10" type="curve" smooth="yes"/>
      <point x="951" y="-10"/>
      <point x="897" y="56"/>
      <point x="897" y="130" type="curve" smooth="yes"/>
      <point x="897" y="245"/>
      <point x="980" y="328"/>
      <point x="1082" y="328" type="curve" smooth="yes"/>
      <point x="1175" y="328"/>
      <point x="1228" y="262"/>
      <point x="1228" y="188" type="curve" smooth="yes"/>
      <point x="1228" y="73"/>
      <point x="1146" y="-10"/>
    </contour>
    <contour>
      <point x="1043" y="21" type="curve"/>
      <point x="1132" y="21"/>
      <point x="1183" y="103"/>
      <point x="1183" y="188" type="curve" smooth="yes"/>
      <point x="1183" y="256"/>
      <point x="1142" y="297"/>
      <point x="1082" y="297" type="curve" smooth="yes"/>
      <point x="993" y="297"/>
      <point x="942" y="215"/>
      <point x="942" y="130" type="curve" smooth="yes"/>
      <point x="942" y="62"/>
      <point x="982" y="21"/>
    </contour>
    <component base="fraction" xOffset="177"/>
  </outline>
</glyph>
<glyph name="guilsinglleft" format="2">
  <advance width="339"/>
  <unicode hex="2039"/>
  <outline>
    <contour>
      <point x="112" y="253" type="line"/>
      <point x="306" y="455" type="line"/>
      <point x="276" y="455" type="line"/>
      <point x="84" y="290" type="line"/>
      <point x="77" y="256" type="line"/>
      <point x="190" y="75" type="line"/>
      <point x="217" y="75" type="line"/>
      <point x="118" y="286" type="line"/>
    </contour>
  </outline>
</glyph>
<glyph name="fraction" format="2">
  <advance width="494"/>
  <unicode hex="2044"/>
  <outline>
    <contour>
      <point x="587" y="710" type="line"/>
      <point x="-128" y="0" type="line"/>
      <point x="-82" y="0" type="line"/>
      <point x="633" y="710" type="line"/>
    </contour>
  </outline>
</glyph>
<glyph name="franc" format="2">
  <advance width="652"/>
  <unicode hex="20A3"/>
  <outline>
    <contour>
      <point x="-6" y="0" type="line"/>
      <point x="278" y="0" type="line"/>
      <point x="284" y="31" type="line"/>
      <point x="261" y="31" type="line" smooth="yes"/>
      <point x="211" y="31"/>
      <point x="154" y="32"/>
      <point x="161" y="67" type="curve" smooth="yes"/>
      <point x="287" y="679" type="line"/>
      <point x="483" y="679" type="line" smooth="yes"/>
      <point x="584" y="679"/>
      <point x="623" y="672"/>
      <point x="621" y="636" type="curve" smooth="yes"/>
      <point x="615" y="546" type="line"/>
      <point x="642" y="546" type="line"/>
      <point x="675" y="710" type="line"/>
      <point x="141" y="710" type="line"/>
      <point x="135" y="679" type="line"/>
      <point x="148" y="679" type="line" smooth="yes"/>
      <point x="205" y="679"/>
      <point x="246" y="672"/>
      <point x="239" y="643" type="curve" smooth="yes"/>
      <point x="120" y="67" type="line" smooth="yes"/>
      <point x="114" y="38"/>
      <point x="68" y="31"/>
      <point x="11" y="31" type="curve" smooth="yes"/>
      <point x="1" y="31" type="line"/>
    </contour>
    <contour>
      <point x="204" y="393" type="curve"/>
      <point x="199" y="368" type="line"/>
      <point x="307" y="367"/>
      <point x="413" y="366"/>
      <point x="521" y="365" type="curve"/>
      <point x="526" y="396" type="line"/>
      <point x="419" y="395"/>
      <point x="312" y="394"/>
    </contour>
    <contour>
      <point x="40" y="219" type="line"/>
      <point x="35" y="189" type="line"/>
      <point x="371" y="189" type="line"/>
      <point x="377" y="219" type="line"/>
    </contour>
  </outline>
</glyph>
<glyph name="peseta" format="2">
  <advance width="652"/>
  <unicode hex="20A7"/>
  <outline>
    <contour>
      <point x="-55" y="0" type="line"/>
      <point x="165" y="0" type="line"/>
      <point x="171" y="31" type="line"/>
      <point x="141" y="31" type="line" smooth="yes"/>
      <point x="104" y="31"/>
      <point x="70" y="34"/>
      <point x="71" y="41" type="curve" smooth="yes"/>
      <point x="120" y="278" type="line"/>
      <point x="160" y="278" type="line" smooth="yes"/>
      <point x="369" y="278"/>
      <point x="438" y="406"/>
      <point x="438" y="535" type="curve" smooth="yes"/>
      <point x="438" y="636"/>
      <point x="374" y="710"/>
      <point x="211" y="710" type="curve" smooth="yes"/>
      <point x="85" y="710" type="line"/>
      <point x="80" y="679" type="line"/>
      <point x="93" y="679" type="line" smooth="yes"/>
      <point x="135" y="679"/>
      <point x="161" y="672"/>
      <point x="155" y="643" type="curve" smooth="yes"/>
      <point x="36" y="67" type="line" smooth="yes"/>
      <point x="29" y="38"/>
      <point x="2" y="31"/>
      <point x="-40" y="31" type="curve" smooth="yes"/>
      <point x="-49" y="31" type="line"/>
    </contour>
    <contour>
      <point x="214" y="679" type="line" smooth="yes"/>
      <point x="349" y="679"/>
      <point x="397" y="621"/>
      <point x="397" y="535" type="curve" smooth="yes"/>
      <point x="397" y="519"/>
      <point x="395" y="499"/>
      <point x="392" y="481" type="curve" smooth="yes"/>
      <point x="369" y="368"/>
      <point x="302" y="309"/>
      <point x="156" y="309" type="curve" smooth="yes"/>
      <point x="127" y="309" type="line"/>
      <point x="203" y="679" type="line"/>
    </contour>
    <contour>
      <point x="507" y="496" type="line"/>
      <point x="440" y="163" type="line" smooth="yes"/>
      <point x="433" y="129"/>
      <point x="430" y="106"/>
      <point x="430" y="82" type="curve" smooth="yes"/>
      <point x="430" y="13"/>
      <point x="472" y="-11"/>
      <point x="524" y="-11" type="curve" smooth="yes"/>
      <point x="562" y="-11"/>
      <point x="591" y="-2"/>
      <point x="609" y="6" type="curve"/>
      <point x="614" y="38" type="line"/>
      <point x="611" y="37"/>
      <point x="570" y="22"/>
      <point x="530" y="22" type="curve" smooth="yes"/>
      <point x="497" y="22"/>
      <point x="471" y="38"/>
      <point x="471" y="82" type="curve" smooth="yes"/>
      <point x="471" y="106"/>
      <point x="475" y="129"/>
      <point x="482" y="161" type="curve" smooth="yes"/>
      <point x="581" y="648" type="line"/>
      <point x="544" y="648" type="line"/>
      <point x="524" y="552" type="line" smooth="yes"/>
      <point x="516" y="506"/>
      <point x="484" y="503"/>
      <point x="427" y="503" type="curve" smooth="yes"/>
      <point x="408" y="503" type="line"/>
      <point x="404" y="477" type="line"/>
      <point x="696" y="477" type="line"/>
      <point x="701" y="508" type="line"/>
      <point x="554" y="508" type="line"/>
    </contour>
  </outline>
</glyph>
<glyph name="uni20B8" format="2">
  <advance width="652"/>
  <unicode hex="20B8"/>
  <outline>
    <contour>
      <point x="248" y="67" type="line" smooth="yes"/>
      <point x="242" y="38"/>
      <point x="195" y="31"/>
      <point x="138" y="31" type="curve" smooth="yes"/>
      <point x="123" y="31" type="line"/>
      <point x="117" y="0" type="line"/>
      <point x="393" y="0" type="line"/>
      <point x="399" y="31" type="line"/>
      <point x="377" y="31" type="line" smooth="yes"/>
      <point x="319" y="31"/>
      <point x="283" y="38"/>
      <point x="288" y="67" type="curve" smooth="yes"/>
      <point x="386" y="534" type="line"/>
      <point x="457" y="534" type="line" smooth="yes"/>
      <point x="558" y="534"/>
      <point x="598" y="527"/>
      <point x="594" y="491" type="curve" smooth="yes"/>
      <point x="584" y="393" type="line"/>
      <point x="611" y="393" type="line"/>
      <point x="645" y="565" type="line"/>
      <point x="100" y="565" type="line"/>
      <point x="66" y="393" type="line"/>
      <point x="93" y="393" type="line"/>
      <point x="124" y="491" type="line" smooth="yes"/>
      <point x="136" y="527"/>
      <point x="179" y="534"/>
      <point x="280" y="534" type="curve" smooth="yes"/>
      <point x="346" y="534" type="line"/>
    </contour>
    <contour>
      <point x="130" y="710" type="line"/>
      <point x="124" y="679" type="line"/>
      <point x="669" y="679" type="line"/>
      <point x="675" y="710" type="line"/>
    </contour>
  </outline>
</glyph>
<glyph name="ruble" format="2">
  <advance width="654"/>
  <unicode hex="20BD"/>
  <outline>
    <contour>
      <point x="409" y="187" type="line"/>
      <point x="25" y="187" type="line"/>
      <point x="32" y="217" type="line"/>
      <point x="415" y="217" type="line"/>
    </contour>
    <contour>
      <point x="64" y="375" type="line"/>
      <point x="373" y="375" type="line" smooth="yes"/>
      <point x="502" y="375"/>
      <point x="573" y="409"/>
      <point x="602" y="467" type="curve" smooth="yes"/>
      <point x="614" y="491"/>
      <point x="621" y="518"/>
      <point x="621" y="548" type="curve" smooth="yes"/>
      <point x="621" y="628"/>
      <point x="558" y="679"/>
      <point x="401" y="679" type="curve" smooth="yes"/>
      <point x="279" y="679" type="line"/>
      <point x="146" y="41" type="line" smooth="yes"/>
      <point x="145" y="34"/>
      <point x="195" y="31"/>
      <point x="235" y="31" type="curve" smooth="yes"/>
      <point x="266" y="31" type="line"/>
      <point x="259" y="0" type="line"/>
      <point x="-14" y="0" type="line"/>
      <point x="-7" y="31" type="line"/>
      <point x="5" y="31" type="line" smooth="yes"/>
      <point x="63" y="31"/>
      <point x="106" y="38"/>
      <point x="111" y="67" type="curve" smooth="yes"/>
      <point x="231" y="643" type="line" smooth="yes"/>
      <point x="237" y="672"/>
      <point x="196" y="679"/>
      <point x="139" y="679" type="curve" smooth="yes"/>
      <point x="126" y="679" type="line"/>
      <point x="133" y="710" type="line"/>
      <point x="405" y="710" type="line" smooth="yes"/>
      <point x="590" y="710"/>
      <point x="665" y="642"/>
      <point x="665" y="548" type="curve" smooth="yes"/>
      <point x="665" y="432"/>
      <point x="582" y="345"/>
      <point x="368" y="345" type="curve" smooth="yes"/>
      <point x="58" y="345" type="line"/>
    </contour>
  </outline>
</glyph>
<glyph name="litre" format="2">
  <advance width="608"/>
  <unicode hex="2113"/>
  <outline>
    <contour>
      <point x="254" y="238" type="curve" smooth="yes"/>
      <point x="254" y="578"/>
      <point x="310" y="679"/>
      <point x="392" y="679" type="curve" smooth="yes"/>
      <point x="445" y="679"/>
      <point x="462" y="632"/>
      <point x="462" y="562" type="curve" smooth="yes"/>
      <point x="462" y="392"/>
      <point x="300" y="284"/>
      <point x="65" y="219" type="curve"/>
      <point x="74" y="191" type="line"/>
      <point x="315" y="255"/>
      <point x="500" y="395"/>
      <point x="500" y="562" type="curve" smooth="yes"/>
      <point x="500" y="638"/>
      <point x="473" y="710"/>
      <point x="392" y="710" type="curve" smooth="yes"/>
      <point x="280" y="710"/>
      <point x="209" y="580"/>
      <point x="209" y="238" type="curve" smooth="yes"/>
      <point x="209" y="55"/>
      <point x="265" y="-10"/>
      <point x="357" y="-10" type="curve" smooth="yes"/>
      <point x="440" y="-10"/>
      <point x="490" y="59"/>
      <point x="519" y="130" type="curve"/>
      <point x="495" y="145" type="line"/>
      <point x="472" y="92"/>
      <point x="432" y="21"/>
      <point x="360" y="21" type="curve" smooth="yes"/>
      <point x="306" y="21"/>
      <point x="254" y="59"/>
    </contour>
  </outline>
</glyph>
<glyph name="numero" format="2">
  <advance width="1372"/>
  <unicode hex="2116"/>
  <outline>
    <contour>
      <point x="912" y="226" type="line"/>
      <point x="1296" y="226" type="line"/>
      <point x="1290" y="196" type="line"/>
      <point x="906" y="196" type="line"/>
    </contour>
    <component base="N" xOffset="6"/>
    <component base="ordmasculine" xOffset="830"/>
  </outline>
</glyph>
<glyph name="servicemark" format="2">
  <advance width="921"/>
  <unicode hex="2120"/>
  <outline>
    <contour>
      <point x="411" y="395" type="line"/>
      <point x="536" y="395" type="line"/>
      <point x="541" y="419" type="line"/>
      <point x="537" y="419" type="line" smooth="yes"/>
      <point x="525" y="419"/>
      <point x="501" y="422"/>
      <point x="501" y="424" type="curve"/>
      <point x="557" y="702" type="line"/>
      <point x="553" y="701" type="line"/>
      <point x="614" y="394" type="line"/>
      <point x="643" y="394" type="line"/>
      <point x="832" y="701" type="line"/>
      <point x="828" y="701" type="line"/>
      <point x="770" y="424" type="line"/>
      <point x="770" y="422"/>
      <point x="750" y="419"/>
      <point x="735" y="419" type="curve" smooth="yes"/>
      <point x="730" y="419" type="line"/>
      <point x="724" y="395" type="line"/>
      <point x="855" y="395" type="line"/>
      <point x="860" y="419" type="line"/>
      <point x="852" y="419" type="line" smooth="yes"/>
      <point x="826" y="419"/>
      <point x="810" y="423"/>
      <point x="812" y="436" type="curve" smooth="yes"/>
      <point x="860" y="670" type="line" smooth="yes"/>
      <point x="863" y="684"/>
      <point x="881" y="686"/>
      <point x="907" y="686" type="curve" smooth="yes"/>
      <point x="915" y="686" type="line"/>
      <point x="919" y="710" type="line"/>
      <point x="803" y="710" type="line"/>
      <point x="636" y="435" type="line"/>
      <point x="641" y="434" type="line"/>
      <point x="595" y="710" type="line"/>
      <point x="477" y="710" type="line"/>
      <point x="472" y="686" type="line"/>
      <point x="480" y="686" type="line" smooth="yes"/>
      <point x="504" y="686"/>
      <point x="523" y="684"/>
      <point x="520" y="670" type="curve" smooth="yes"/>
      <point x="472" y="436" type="line" smooth="yes"/>
      <point x="469" y="423"/>
      <point x="449" y="419"/>
      <point x="424" y="419" type="curve" smooth="yes"/>
      <point x="417" y="419" type="line"/>
    </contour>
    <contour>
      <point x="146" y="637" type="curve" smooth="yes"/>
      <point x="146" y="589"/>
      <point x="189" y="566"/>
      <point x="238" y="546" type="curve" smooth="yes"/>
      <point x="302" y="520"/>
      <point x="331" y="505"/>
      <point x="331" y="475" type="curve" smooth="yes"/>
      <point x="331" y="433"/>
      <point x="297" y="413"/>
      <point x="248" y="413" type="curve" smooth="yes"/>
      <point x="191" y="413"/>
      <point x="150" y="443"/>
      <point x="139" y="496" type="curve"/>
      <point x="103" y="496" type="line"/>
      <point x="81" y="391" type="line"/>
      <point x="107" y="391" type="line"/>
      <point x="132" y="473" type="line"/>
      <point x="118" y="468" type="line"/>
      <point x="137" y="410"/>
      <point x="189" y="386"/>
      <point x="248" y="386" type="curve" smooth="yes"/>
      <point x="321" y="386"/>
      <point x="368" y="419"/>
      <point x="368" y="479" type="curve" smooth="yes"/>
      <point x="368" y="525"/>
      <point x="331" y="545"/>
      <point x="264" y="574" type="curve" smooth="yes"/>
      <point x="221" y="591"/>
      <point x="182" y="605"/>
      <point x="182" y="643" type="curve" smooth="yes"/>
      <point x="182" y="676"/>
      <point x="206" y="695"/>
      <point x="254" y="695" type="curve" smooth="yes"/>
      <point x="305" y="695"/>
      <point x="332" y="671"/>
      <point x="344" y="627" type="curve"/>
      <point x="376" y="627" type="line"/>
      <point x="395" y="716" type="line"/>
      <point x="371" y="716" type="line"/>
      <point x="347" y="645" type="line"/>
      <point x="362" y="646" type="line"/>
      <point x="348" y="692"/>
      <point x="317" y="720"/>
      <point x="254" y="720" type="curve" smooth="yes"/>
      <point x="188" y="720"/>
      <point x="146" y="688"/>
    </contour>
  </outline>
</glyph>
<glyph name="arrowleft" format="2">
  <advance width="860"/>
  <unicode hex="2190"/>
  <outline>
    <contour>
      <point x="487" y="560" type="line"/>
      <point x="71" y="360" type="line"/>
      <point x="71" y="346" type="line"/>
      <point x="487" y="146" type="line"/>
      <point x="499" y="159" type="line"/>
      <point x="337" y="324" type="line"/>
      <point x="803" y="324" type="line"/>
      <point x="803" y="382" type="line"/>
      <point x="337" y="382" type="line"/>
      <point x="499" y="547" type="line"/>
    </contour>
  </outline>
</glyph>
<glyph name="emptyset" format="2">
  <advance width="813"/>
  <unicode hex="2205"/>
  <outline>
    <contour>
      <point x="401" y="29" type="curve" smooth="yes"/>
      <point x="241" y="29"/>
      <point x="135" y="111"/>
      <point x="135" y="259" type="curve" smooth="yes"/>
      <point x="135" y="406"/>
      <point x="264" y="511"/>
      <point x="435" y="511" type="curve" smooth="yes"/>
      <point x="595" y="511"/>
      <point x="701" y="428"/>
      <point x="701" y="281" type="curve" smooth="yes"/>
      <point x="701" y="135"/>
      <point x="572" y="29"/>
    </contour>
    <contour>
      <point x="401" y="-7" type="curve" smooth="yes"/>
      <point x="593" y="-7"/>
      <point x="745" y="120"/>
      <point x="745" y="281" type="curve" smooth="yes"/>
      <point x="745" y="442"/>
      <point x="600" y="547"/>
      <point x="435" y="547" type="curve" smooth="yes"/>
      <point x="243" y="547"/>
      <point x="91" y="420"/>
      <point x="91" y="259" type="curve" smooth="yes"/>
      <point x="91" y="98"/>
      <point x="237" y="-7"/>
    </contour>
    <contour>
      <point x="14" y="-40" type="line"/>
      <point x="819" y="555" type="line"/>
      <point x="797" y="580" type="line"/>
      <point x="-8" y="-15" type="line"/>
    </contour>
  </outline>
</glyph>
<glyph name="summation" format="2">
  <advance width="631"/>
  <unicode hex="2211"/>
  <outline>
    <contour>
      <point x="-123" y="-223" type="line"/>
      <point x="-119" y="-188" type="line"/>
      <point x="318" y="279" type="line"/>
      <point x="309" y="258" type="line"/>
      <point x="63" y="677" type="line"/>
      <point x="68" y="710" type="line"/>
      <point x="609" y="710" type="line"/>
      <point x="576" y="541" type="line"/>
      <point x="549" y="541" type="line"/>
      <point x="558" y="636" type="line" smooth="yes"/>
      <point x="561" y="672"/>
      <point x="522" y="679"/>
      <point x="421" y="679" type="curve" smooth="yes"/>
      <point x="80" y="679" type="line"/>
      <point x="104" y="687" type="line"/>
      <point x="347" y="276" type="line"/>
      <point x="342" y="250" type="line"/>
      <point x="-80" y="-205" type="line"/>
      <point x="-92" y="-192" type="line"/>
      <point x="280" y="-192" type="line" smooth="yes"/>
      <point x="380" y="-192"/>
      <point x="424" y="-185"/>
      <point x="435" y="-149" type="curve" smooth="yes"/>
      <point x="469" y="-29" type="line"/>
      <point x="497" y="-29" type="line"/>
      <point x="461" y="-223" type="line"/>
    </contour>
  </outline>
</glyph>
<glyph name="radical" format="2">
  <advance width="679"/>
  <unicode hex="221A"/>
  <outline>
    <contour>
      <point x="75" y="327" type="line"/>
      <point x="202" y="327" type="line"/>
      <point x="174" y="347" type="line"/>
      <point x="263" y="0" type="line"/>
      <point x="290" y="0" type="line"/>
      <point x="296" y="27" type="line"/>
      <point x="213" y="358" type="line"/>
      <point x="81" y="358" type="line"/>
    </contour>
    <contour>
      <point x="686" y="710" type="line"/>
      <point x="266" y="0" type="line"/>
      <point x="302" y="0" type="line"/>
      <point x="726" y="710" type="line"/>
    </contour>
  </outline>
</glyph>
<glyph name="integral" format="2">
  <advance width="618"/>
  <unicode hex="222B"/>
  <outline>
    <contour>
      <point x="408" y="579" type="line" smooth="yes"/>
      <point x="432" y="674"/>
      <point x="486" y="706"/>
      <point x="562" y="706" type="curve" smooth="yes"/>
      <point x="624" y="706"/>
      <point x="660" y="686"/>
      <point x="675" y="664" type="curve"/>
      <point x="684" y="672"/>
      <point x="673" y="697"/>
      <point x="641" y="698" type="curve"/>
      <point x="626" y="620" type="line"/>
      <point x="679" y="620" type="line"/>
      <point x="696" y="703" type="line"/>
      <point x="680" y="715"/>
      <point x="631" y="737"/>
      <point x="562" y="737" type="curve" smooth="yes"/>
      <point x="462" y="737"/>
      <point x="395" y="694"/>
      <point x="367" y="583" type="curve"/>
      <point x="216" y="-28" type="line" smooth="yes"/>
      <point x="179" y="-168"/>
      <point x="122" y="-205"/>
      <point x="45" y="-205" type="curve" smooth="yes"/>
      <point x="-16" y="-205"/>
      <point x="-51" y="-185"/>
      <point x="-66" y="-163" type="curve"/>
      <point x="-75" y="-171"/>
      <point x="-65" y="-196"/>
      <point x="-34" y="-197" type="curve"/>
      <point x="-17" y="-119" type="line"/>
      <point x="-71" y="-119" type="line"/>
      <point x="-88" y="-202" type="line"/>
      <point x="-72" y="-214"/>
      <point x="-23" y="-236"/>
      <point x="45" y="-236" type="curve" smooth="yes"/>
      <point x="143" y="-236"/>
      <point x="215" y="-185"/>
      <point x="259" y="-17" type="curve" smooth="yes"/>
    </contour>
  </outline>
</glyph>
<glyph name="one.den" format="2">
  <advance width="378"/>
  <unicode hex="E403"/>
  <outline>
    <contour>
      <point x="153" y="52" type="curve" smooth="yes"/>
      <point x="212" y="341" type="line"/>
      <point x="189" y="341" type="line"/>
      <point x="161" y="311"/>
      <point x="115" y="299"/>
      <point x="41" y="298" type="curve"/>
      <point x="34" y="263" type="line"/>
      <point x="100" y="262"/>
      <point x="155" y="276"/>
      <point x="176" y="312" type="curve"/>
      <point x="177" y="317"/>
      <point x="174" y="314"/>
      <point x="163" y="306" type="curve"/>
      <point x="110" y="52" type="line" smooth="yes"/>
      <point x="107" y="34"/>
      <point x="77" y="30"/>
      <point x="37" y="30" type="curve" smooth="yes"/>
      <point x="-3" y="30" type="line"/>
      <point x="-10" y="0" type="line"/>
      <point x="247" y="0" type="line"/>
      <point x="253" y="30" type="line"/>
      <point x="222" y="30" type="line" smooth="yes"/>
      <point x="177" y="30"/>
      <point x="150" y="34"/>
    </contour>
  </outline>
</glyph>
<glyph name="three.den" format="2">
  <advance width="377"/>
  <unicode hex="E405"/>
  <outline>
    <contour>
      <point x="186" y="318" type="curve" smooth="yes"/>
      <point x="139" y="318"/>
      <point x="101" y="298"/>
      <point x="80" y="280" type="curve"/>
      <point x="85" y="293"/>
      <point x="95" y="306"/>
      <point x="112" y="308" type="curve"/>
      <point x="102" y="254" type="line"/>
      <point x="53" y="254" type="line"/>
      <point x="65" y="311" type="line"/>
      <point x="85" y="326"/>
      <point x="133" y="346"/>
      <point x="185" y="346" type="curve" smooth="yes"/>
      <point x="264" y="346"/>
      <point x="312" y="315"/>
      <point x="312" y="261" type="curve" smooth="yes"/>
      <point x="312" y="205"/>
      <point x="251" y="174"/>
      <point x="177" y="174" type="curve"/>
      <point x="153" y="182" type="line"/>
      <point x="259" y="174"/>
      <point x="300" y="138"/>
      <point x="300" y="91" type="curve" smooth="yes"/>
      <point x="300" y="33"/>
      <point x="243" y="-14"/>
      <point x="147" y="-14" type="curve" smooth="yes"/>
      <point x="55" y="-14"/>
      <point x="4" y="28"/>
      <point x="-12" y="83" type="curve"/>
      <point x="21" y="99" type="line"/>
      <point x="36" y="56"/>
      <point x="71" y="14"/>
      <point x="150" y="14" type="curve" smooth="yes"/>
      <point x="214" y="14"/>
      <point x="252" y="46"/>
      <point x="252" y="91" type="curve" smooth="yes"/>
      <point x="252" y="129"/>
      <point x="221" y="162"/>
      <point x="139" y="162" type="curve" smooth="yes"/>
      <point x="97" y="162" type="line"/>
      <point x="104" y="192" type="line"/>
      <point x="154" y="192" type="line" smooth="yes"/>
      <point x="236" y="192"/>
      <point x="265" y="220"/>
      <point x="265" y="261" type="curve" smooth="yes"/>
      <point x="265" y="295"/>
      <point x="239" y="318"/>
    </contour>
  </outline>
</glyph>
<glyph name="seven.den" format="2">
  <advance width="377"/>
  <unicode hex="E409"/>
  <outline>
    <contour>
      <point x="165" y="312" type="line" smooth="yes"/>
      <point x="114" y="312"/>
      <point x="91" y="308"/>
      <point x="86" y="288" type="curve" smooth="yes"/>
      <point x="72" y="241" type="line"/>
      <point x="42" y="241" type="line"/>
      <point x="62" y="341" type="line"/>
      <point x="346" y="341" type="line"/>
      <point x="341" y="310" type="line"/>
      <point x="231" y="222"/>
      <point x="173" y="149"/>
      <point x="144" y="0" type="curve"/>
      <point x="94" y="0" type="line"/>
      <point x="130" y="151"/>
      <point x="237" y="274"/>
      <point x="325" y="325" type="curve"/>
      <point x="325" y="312" type="line"/>
    </contour>
  </outline>
</glyph>
<glyph name="f_f" format="2">
  <advance width="739"/>
  <unicode hex="FB00"/>
  <outline>
    <contour>
      <point x="63" y="508" type="line"/>
      <point x="59" y="477" type="line"/>
      <point x="505" y="477" type="line"/>
      <point x="509" y="508" type="line"/>
    </contour>
    <contour>
      <point x="369" y="706" type="curve" smooth="yes"/>
      <point x="418" y="706"/>
      <point x="457" y="690"/>
      <point x="467" y="687" type="curve"/>
      <point x="474" y="720" type="line"/>
      <point x="466" y="724"/>
      <point x="430" y="737"/>
      <point x="369" y="737" type="curve" smooth="yes"/>
      <point x="281" y="737"/>
      <point x="206" y="698"/>
      <point x="190" y="590" type="curve" smooth="yes"/>
      <point x="68" y="-223" type="line"/>
      <point x="104" y="-223" type="line"/>
      <point x="232" y="585" type="line" smooth="yes"/>
      <point x="247" y="676"/>
      <point x="292" y="706"/>
    </contour>
    <contour>
      <point x="419" y="508" type="line"/>
      <point x="415" y="477" type="line"/>
      <point x="758" y="477" type="line"/>
      <point x="763" y="508" type="line"/>
    </contour>
    <contour>
      <point x="726" y="721" type="curve" smooth="yes"/>
      <point x="775" y="721"/>
      <point x="814" y="705"/>
      <point x="822" y="702" type="curve"/>
      <point x="829" y="735" type="line"/>
      <point x="822" y="739"/>
      <point x="787" y="752"/>
      <point x="726" y="752" type="curve" smooth="yes"/>
      <point x="639" y="752"/>
      <point x="564" y="713"/>
      <point x="548" y="605" type="curve" smooth="yes"/>
      <point x="429" y="-193" type="line"/>
      <point x="465" y="-193" type="line"/>
      <point x="591" y="600" type="line" smooth="yes"/>
      <point x="606" y="691"/>
      <point x="650" y="721"/>
    </contour>
  </outline>
</glyph>
<glyph name="f_f_l" format="2">
  <advance width="1006"/>
  <unicode hex="FB04"/>
  <outline>
    <contour>
      <point x="63" y="508" type="line"/>
      <point x="59" y="477" type="line"/>
      <point x="505" y="477" type="line"/>
      <point x="509" y="508" type="line"/>
    </contour>
    <contour>
      <point x="419" y="508" type="line"/>
      <point x="415" y="477" type="line"/>
      <point x="746" y="477" type="line"/>
      <point x="750" y="508" type="line"/>
    </contour>
    <contour>
      <point x="369" y="706" type="curve" smooth="yes"/>
      <point x="418" y="706"/>
      <point x="457" y="690"/>
      <point x="467" y="687" type="curve"/>
      <point x="474" y="720" type="line"/>
      <point x="466" y="724"/>
      <point x="430" y="737"/>
      <point x="369" y="737" type="curve" smooth="yes"/>
      <point x="281" y="737"/>
      <point x="206" y="698"/>
      <point x="190" y="590" type="curve" smooth="yes"/>
      <point x="68" y="-223" type="line"/>
      <point x="104" y="-223" type="line"/>
      <point x="232" y="585" type="line" smooth="yes"/>
      <point x="247" y="676"/>
      <point x="292" y="706"/>
    </contour>
    <contour>
      <point x="866" y="183" type="curve"/>
      <point x="977" y="735" type="line"/>
      <point x="841" y="735" type="line"/>
      <point x="930" y="703" type="line"/>
      <point x="829" y="201" type="line" smooth="yes"/>
      <point x="815" y="143"/>
      <point x="803" y="91"/>
      <point x="803" y="60" type="curve" smooth="yes"/>
      <point x="803" y="12"/>
      <point x="837" y="-7"/>
      <point x="884" y="-7" type="curve" smooth="yes"/>
      <point x="912" y="-7"/>
      <point x="946" y="4"/>
      <point x="959" y="13" type="curve"/>
      <point x="964" y="42" type="line"/>
      <point x="956" y="40"/>
      <point x="925" y="24"/>
      <point x="885" y="24" type="curve" smooth="yes"/>
      <point x="859" y="24"/>
      <point x="844" y="34"/>
      <point x="844" y="60" type="curve" smooth="yes"/>
      <point x="844" y="87"/>
      <point x="856" y="141"/>
    </contour>
    <contour>
      <point x="767" y="721" type="curve" smooth="yes"/>
      <point x="847" y="721"/>
      <point x="894" y="704"/>
      <point x="948" y="666" type="curve"/>
      <point x="951" y="700" type="line"/>
      <point x="923" y="725"/>
      <point x="862" y="752"/>
      <point x="767" y="752" type="curve" smooth="yes"/>
      <point x="652" y="752"/>
      <point x="563" y="706"/>
      <point x="545" y="591" type="curve" smooth="yes"/>
      <point x="429" y="-193" type="line"/>
      <point x="465" y="-193" type="line"/>
      <point x="588" y="585" type="line" smooth="yes"/>
      <point x="604" y="684"/>
      <point x="667" y="721"/>
    </contour>
  </outline>
</glyph>
<glyph name="AE.alt" format="2">
  <advance width="1117"/>
  <outline>
    <contour>
      <point x="297" y="298" type="line"/>
      <point x="272" y="267" type="line"/>
      <point x="600" y="267" type="line"/>
      <point x="605" y="298" type="line"/>
    </contour>
    <contour>
      <point x="-49" y="0" type="line"/>
      <point x="182" y="0" type="line"/>
      <point x="188" y="31" type="line"/>
      <point x="171" y="31" type="line" smooth="yes"/>
      <point x="127" y="31"/>
      <point x="74" y="38"/>
      <point x="76" y="49" type="curve"/>
      <point x="669" y="673" type="line"/>
      <point x="673" y="673" type="line"/>
      <point x="546" y="67" type="line" smooth="yes"/>
      <point x="540" y="38"/>
      <point x="497" y="31"/>
      <point x="440" y="31" type="curve" smooth="yes"/>
      <point x="427" y="31" type="line"/>
      <point x="420" y="0" type="line"/>
      <point x="989" y="0" type="line"/>
      <point x="1028" y="189" type="line"/>
      <point x="1000" y="189" type="line"/>
      <point x="966" y="74" type="line" smooth="yes"/>
      <point x="955" y="38"/>
      <point x="912" y="31"/>
      <point x="812" y="31" type="curve" smooth="yes"/>
      <point x="579" y="31" type="line"/>
      <point x="713" y="679" type="line"/>
      <point x="908" y="679" type="line" smooth="yes"/>
      <point x="1008" y="679"/>
      <point x="1049" y="672"/>
      <point x="1045" y="636" type="curve" smooth="yes"/>
      <point x="1036" y="546" type="line"/>
      <point x="1063" y="546" type="line"/>
      <point x="1097" y="710" type="line"/>
      <point x="499" y="710" type="line"/>
      <point x="492" y="679" type="line"/>
      <point x="507" y="679" type="line" smooth="yes"/>
      <point x="568" y="679"/>
      <point x="608" y="672"/>
      <point x="606" y="654" type="curve"/>
      <point x="53" y="74" type="line"/>
      <point x="20" y="40"/>
      <point x="1" y="31"/>
      <point x="-37" y="31" type="curve" smooth="yes"/>
      <point x="-42" y="31" type="line"/>
    </contour>
    <contour>
      <point x="624" y="379" type="line"/>
      <point x="619" y="349" type="line"/>
      <point x="883" y="349" type="line"/>
      <point x="920" y="349"/>
      <point x="921" y="320"/>
      <point x="917" y="285" type="curve" smooth="yes"/>
      <point x="916" y="278" type="line"/>
      <point x="943" y="278" type="line"/>
      <point x="978" y="451" type="line"/>
      <point x="950" y="451" type="line"/>
      <point x="949" y="444" type="line" smooth="yes"/>
      <point x="943" y="409"/>
      <point x="923" y="379"/>
      <point x="887" y="379" type="curve"/>
    </contour>
  </outline>
</glyph>
<glyph name="F.alt" format="2">
  <advance width="666"/>
  <outline>
    <contour>
      <point x="274" y="679" type="line"/>
      <point x="480" y="679" type="line" smooth="yes"/>
      <point x="581" y="679"/>
      <point x="621" y="672"/>
      <point x="618" y="636" type="curve" smooth="yes"/>
      <point x="610" y="546" type="line"/>
      <point x="636" y="546" type="line"/>
      <point x="670" y="710" type="line"/>
      <point x="129" y="710" type="line"/>
      <point x="122" y="679" type="line"/>
      <point x="135" y="679" type="line" smooth="yes"/>
      <point x="192" y="679"/>
      <point x="233" y="672"/>
      <point x="227" y="643" type="curve" smooth="yes"/>
      <point x="107" y="67" type="line" smooth="yes"/>
      <point x="101" y="38"/>
      <point x="59" y="31"/>
      <point x="2" y="31" type="curve" smooth="yes"/>
      <point x="-12" y="31" type="line"/>
      <point x="-18" y="0" type="line"/>
      <point x="265" y="0" type="line"/>
      <point x="272" y="31" type="line"/>
      <point x="252" y="31" type="line" smooth="yes"/>
      <point x="202" y="31"/>
      <point x="141" y="32"/>
      <point x="148" y="67" type="curve" smooth="yes"/>
    </contour>
    <contour>
      <point x="186" y="372" type="line"/>
      <point x="181" y="341" type="line"/>
      <point x="457" y="341" type="line"/>
      <point x="494" y="341"/>
      <point x="495" y="312"/>
      <point x="491" y="278" type="curve" smooth="yes"/>
      <point x="489" y="270" type="line"/>
      <point x="517" y="270" type="line"/>
      <point x="552" y="444" type="line"/>
      <point x="524" y="444" type="line"/>
      <point x="523" y="437" type="line" smooth="yes"/>
      <point x="517" y="402"/>
      <point x="497" y="372"/>
      <point x="461" y="372" type="curve"/>
    </contour>
  </outline>
</glyph>
<glyph name="acute.uc" format="2">
  <advance width="583"/>
  <anchor x="249" y="727" name="_top"/>
  <outline>
    <contour>
      <point x="316" y="872" type="curve" smooth="yes"/>
      <point x="210" y="780" type="line"/>
      <point x="208" y="766" type="line"/>
      <point x="223" y="766" type="line"/>
      <point x="352" y="837" type="line" smooth="yes"/>
      <point x="383" y="857"/>
      <point x="396" y="865"/>
      <point x="396" y="883" type="curve" smooth="yes"/>
      <point x="396" y="894"/>
      <point x="389" y="906"/>
      <point x="370" y="906" type="curve" smooth="yes"/>
      <point x="351" y="906"/>
      <point x="337" y="893"/>
    </contour>
  </outline>
</glyph>
<glyph name="acute.ucpl" format="2">
  <advance width="583"/>
  <anchor x="224" y="694" name="_top"/>
  <outline>
    <contour>
      <point x="231" y="856" type="curve" smooth="yes"/>
      <point x="198" y="767" type="line"/>
      <point x="197" y="750" type="line"/>
      <point x="216" y="750" type="line"/>
      <point x="278" y="831" type="line" smooth="yes"/>
      <point x="289" y="849"/>
      <point x="301" y="866"/>
      <point x="301" y="881" type="curve" smooth="yes"/>
      <point x="301" y="895"/>
      <point x="290" y="904"/>
      <point x="274" y="904" type="curve" smooth="yes"/>
      <point x="250" y="904"/>
      <point x="241" y="887"/>
    </contour>
  </outline>
</glyph>
<glyph name="b.italic" format="2">
  <advance width="751"/>
  <outline>
    <contour>
      <point x="419" y="-10" type="curve" smooth="yes"/>
      <point x="586" y="-10"/>
      <point x="698" y="99"/>
      <point x="698" y="257" type="curve" smooth="yes"/>
      <point x="698" y="414"/>
      <point x="590" y="518"/>
      <point x="429" y="518" type="curve" smooth="yes"/>
      <point x="331" y="518"/>
      <point x="273" y="479"/>
      <point x="210" y="399" type="curve"/>
      <point x="210" y="316" type="line"/>
      <point x="262" y="411"/>
      <point x="330" y="461"/>
      <point x="422" y="461" type="curve" smooth="yes"/>
      <point x="529" y="461"/>
      <point x="588" y="382"/>
      <point x="588" y="257" type="curve" smooth="yes"/>
      <point x="588" y="131"/>
      <point x="529" y="47"/>
      <point x="417" y="47" type="curve" smooth="yes"/>
      <point x="330" y="47"/>
      <point x="263" y="91"/>
      <point x="210" y="184" type="curve"/>
      <point x="210" y="97" type="line"/>
      <point x="268" y="23"/>
      <point x="327" y="-10"/>
    </contour>
    <contour>
      <point x="126" y="642" type="curve" smooth="yes"/>
      <point x="126" y="-3" type="line"/>
      <point x="196" y="-3" type="line"/>
      <point x="218" y="106" type="line"/>
      <point x="229" y="121" type="line"/>
      <point x="229" y="735" type="line"/>
      <point x="27" y="735" type="line"/>
      <point x="27" y="689" type="line"/>
      <point x="40" y="687" type="line" smooth="yes"/>
      <point x="99" y="678"/>
      <point x="126" y="671"/>
    </contour>
  </outline>
</glyph>
<glyph name="backslash.uc" format="2">
  <advance width="489"/>
  <outline>
    <contour>
      <point x="121" y="745" type="line"/>
      <point x="405" y="-35" type="line"/>
      <point x="367" y="-35" type="line"/>
      <point x="82" y="745" type="line"/>
    </contour>
  </outline>
</glyph>
<glyph name="blackdiamond" format="2">
  <advance width="724"/>
  <outline>
    <contour>
      <point x="667" y="313" type="line"/>
      <point x="362" y="574" type="line"/>
      <point x="58" y="313" type="line"/>
      <point x="362" y="52" type="line"/>
    </contour>
  </outline>
</glyph>
<glyph name="braceleft.uc" format="2">
  <advance width="368"/>
  <outline>
    <contour>
      <point x="28" y="66" type="curve" smooth="yes"/>
      <point x="28" y="-18"/>
      <point x="122" y="-58"/>
      <point x="259" y="-62" type="curve"/>
      <point x="259" y="-62" type="line"/>
      <point x="269" y="-35" type="line"/>
      <point x="269" y="-35" type="line"/>
      <point x="133" y="-31"/>
      <point x="68" y="4"/>
      <point x="68" y="66" type="curve" smooth="yes"/>
      <point x="68" y="148"/>
      <point x="250" y="267"/>
      <point x="250" y="302" type="curve" smooth="yes"/>
      <point x="250" y="316"/>
      <point x="233" y="327"/>
      <point x="124" y="352" type="curve"/>
      <point x="127" y="357" type="line"/>
      <point x="256" y="382"/>
      <point x="265" y="392"/>
      <point x="265" y="410" type="curve" smooth="yes"/>
      <point x="265" y="440"/>
      <point x="173" y="549"/>
      <point x="173" y="625" type="curve" smooth="yes"/>
      <point x="173" y="688"/>
      <point x="235" y="734"/>
      <point x="370" y="734" type="curve" smooth="yes"/>
      <point x="381" y="734"/>
      <point x="392" y="733"/>
      <point x="403" y="733" type="curve"/>
      <point x="400" y="760" type="line"/>
      <point x="390" y="760"/>
      <point x="380" y="761"/>
      <point x="369" y="761" type="curve" smooth="yes"/>
      <point x="245" y="761"/>
      <point x="132" y="721"/>
      <point x="132" y="625" type="curve" smooth="yes"/>
      <point x="132" y="563"/>
      <point x="190" y="486"/>
      <point x="236" y="405" type="curve"/>
      <point x="244" y="411" type="line"/>
      <point x="57" y="370" type="line"/>
      <point x="52" y="351" type="line"/>
      <point x="228" y="294" type="line"/>
      <point x="221" y="303" type="line"/>
      <point x="122" y="217"/>
      <point x="28" y="144"/>
    </contour>
  </outline>
</glyph>
<glyph name="breve.uc" format="2">
  <advance width="583"/>
  <anchor x="294" y="694" name="_top"/>
  <outline>
    <contour>
      <point x="293" y="759" type="curve" smooth="yes"/>
      <point x="199" y="759"/>
      <point x="158" y="801"/>
      <point x="158" y="873" type="curve" smooth="yes"/>
      <point x="158" y="879"/>
      <point x="158" y="884"/>
      <point x="159" y="891" type="curve"/>
      <point x="190" y="891" type="line"/>
      <point x="186" y="826"/>
      <point x="217" y="800"/>
      <point x="293" y="800" type="curve" smooth="yes"/>
      <point x="378" y="800"/>
      <point x="410" y="825"/>
      <point x="432" y="891" type="curve"/>
      <point x="461" y="891" type="line"/>
      <point x="444" y="800"/>
      <point x="381" y="759"/>
    </contour>
  </outline>
</glyph>
<glyph name="breve_acute.uc" format="2">
  <advance width="594"/>
  <anchor x="292" y="744" name="_top"/>
  <outline>
    <contour>
      <point x="391" y="1022" type="curve" smooth="yes"/>
      <point x="285" y="930" type="line"/>
      <point x="283" y="916" type="line"/>
      <point x="298" y="916" type="line"/>
      <point x="427" y="987" type="line" smooth="yes"/>
      <point x="459" y="1007"/>
      <point x="471" y="1015"/>
      <point x="471" y="1033" type="curve" smooth="yes"/>
      <point x="471" y="1044"/>
      <point x="464" y="1056"/>
      <point x="445" y="1056" type="curve" smooth="yes"/>
      <point x="426" y="1056"/>
      <point x="412" y="1043"/>
    </contour>
    <component base="breve.uc" xOffset="6"/>
  </outline>
</glyph>
<glyph name="breve_grave.uc" format="2">
  <advance width="594"/>
  <anchor x="284" y="744" name="_top"/>
  <outline>
    <contour>
      <point x="282" y="1019" type="curve" smooth="yes"/>
      <point x="362" y="930" type="line"/>
      <point x="362" y="916" type="line"/>
      <point x="345" y="916" type="line"/>
      <point x="243" y="990" type="line" smooth="yes"/>
      <point x="219" y="1009"/>
      <point x="207" y="1019"/>
      <point x="207" y="1033" type="curve" smooth="yes"/>
      <point x="207" y="1045"/>
      <point x="217" y="1056"/>
      <point x="234" y="1056" type="curve" smooth="yes"/>
      <point x="251" y="1056"/>
      <point x="259" y="1045"/>
    </contour>
    <component base="breve.uc" xOffset="6"/>
  </outline>
</glyph>
<glyph name="breve_tilde" format="2">
  <advance width="582"/>
  <anchor x="295" y="524" name="_top"/>
  <outline>
    <contour>
      <point x="374" y="779" type="curve" smooth="yes"/>
      <point x="424" y="779"/>
      <point x="453" y="811"/>
      <point x="478" y="878" type="curve"/>
      <point x="448" y="889" type="line"/>
      <point x="429" y="844"/>
      <point x="413" y="813"/>
      <point x="381" y="813" type="curve" smooth="yes"/>
      <point x="334" y="813"/>
      <point x="334" y="889"/>
      <point x="259" y="889" type="curve" smooth="yes"/>
      <point x="209" y="889"/>
      <point x="181" y="861"/>
      <point x="158" y="791" type="curve"/>
      <point x="187" y="778" type="line"/>
      <point x="205" y="833"/>
      <point x="221" y="855"/>
      <point x="252" y="855" type="curve" smooth="yes"/>
      <point x="304" y="855"/>
      <point x="302" y="779"/>
    </contour>
    <contour>
      <point x="302" y="594" type="curve" smooth="yes"/>
      <point x="370" y="594"/>
      <point x="427" y="633"/>
      <point x="450" y="722" type="curve"/>
      <point x="420" y="722" type="line"/>
      <point x="399" y="659"/>
      <point x="360" y="637"/>
      <point x="307" y="637" type="curve" smooth="yes"/>
      <point x="253" y="637"/>
      <point x="208" y="653"/>
      <point x="206" y="722" type="curve"/>
      <point x="175" y="722" type="line"/>
      <point x="175" y="717"/>
      <point x="175" y="714"/>
      <point x="175" y="711" type="curve" smooth="yes"/>
      <point x="175" y="634"/>
      <point x="222" y="594"/>
    </contour>
  </outline>
</glyph>
<glyph name="breve_tilde.uc" format="2">
  <advance width="582"/>
  <anchor x="324" y="694" name="_top"/>
  <outline>
    <contour>
      <point x="223" y="998" type="curve" smooth="yes"/>
      <point x="280" y="998"/>
      <point x="275" y="928"/>
      <point x="359" y="928" type="curve" smooth="yes"/>
      <point x="405" y="928"/>
      <point x="435" y="961"/>
      <point x="460" y="1023" type="curve"/>
      <point x="432" y="1034" type="line"/>
      <point x="413" y="988"/>
      <point x="394" y="962"/>
      <point x="364" y="962" type="curve" smooth="yes"/>
      <point x="310" y="962"/>
      <point x="310" y="1032"/>
      <point x="231" y="1032" type="curve" smooth="yes"/>
      <point x="183" y="1032"/>
      <point x="152" y="1003"/>
      <point x="132" y="938" type="curve"/>
      <point x="160" y="928" type="line"/>
      <point x="176" y="974"/>
      <point x="192" y="998"/>
    </contour>
    <contour>
      <point x="277" y="759" type="curve" smooth="yes"/>
      <point x="183" y="759"/>
      <point x="139" y="803"/>
      <point x="139" y="867" type="curve" smooth="yes"/>
      <point x="139" y="873"/>
      <point x="139" y="878"/>
      <point x="141" y="884" type="curve"/>
      <point x="172" y="884" type="line"/>
      <point x="167" y="828"/>
      <point x="200" y="800"/>
      <point x="276" y="800" type="curve" smooth="yes"/>
      <point x="362" y="800"/>
      <point x="392" y="827"/>
      <point x="414" y="884" type="curve"/>
      <point x="443" y="884" type="line"/>
      <point x="425" y="802"/>
      <point x="365" y="759"/>
    </contour>
  </outline>
</glyph>
<glyph name="caron.alt" format="2">
  <advance width="583"/>
  <anchor x="111" y="574" name="_right"/>
  <outline>
    <contour>
      <point x="132" y="526" type="line"/>
      <point x="109" y="526" type="line"/>
      <point x="109" y="536" type="line"/>
      <point x="158" y="710" type="line"/>
      <point x="211" y="710" type="line"/>
    </contour>
  </outline>
</glyph>
<glyph name="cedi.proportional" format="2">
  <advance width="764"/>
  <outline>
    <contour>
      <point x="396" y="10" type="curve" smooth="yes"/>
      <point x="542" y="10"/>
      <point x="645" y="84"/>
      <point x="702" y="216" type="curve"/>
      <point x="673" y="235" type="line"/>
      <point x="625" y="116"/>
      <point x="532" y="41"/>
      <point x="395" y="41" type="curve" smooth="yes"/>
      <point x="234" y="41"/>
      <point x="105" y="137"/>
      <point x="105" y="310" type="curve" smooth="yes"/>
      <point x="105" y="505"/>
      <point x="239" y="669"/>
      <point x="467" y="669" type="curve" smooth="yes"/>
      <point x="595" y="669"/>
      <point x="677" y="624"/>
      <point x="718" y="571" type="curve"/>
      <point x="724" y="581"/>
      <point x="732" y="596"/>
      <point x="697" y="621" type="curve"/>
      <point x="676" y="513" type="line"/>
      <point x="729" y="513" type="line"/>
      <point x="747" y="605" type="line"/>
      <point x="705" y="647"/>
      <point x="609" y="700"/>
      <point x="466" y="700" type="curve" smooth="yes"/>
      <point x="241" y="700"/>
      <point x="62" y="546"/>
      <point x="62" y="310" type="curve" smooth="yes"/>
      <point x="62" y="125"/>
      <point x="207" y="10"/>
    </contour>
    <contour>
      <point x="498" y="790" type="line"/>
      <point x="479" y="690" type="line"/>
      <point x="476" y="683" type="line"/>
      <point x="342" y="32" type="line"/>
      <point x="342" y="27" type="line"/>
      <point x="312" y="-120" type="line"/>
      <point x="351" y="-120" type="line"/>
      <point x="381" y="26" type="line"/>
      <point x="381" y="30" type="line"/>
      <point x="517" y="683" type="line"/>
      <point x="516" y="688" type="line"/>
      <point x="538" y="790" type="line"/>
    </contour>
  </outline>
</glyph>
<glyph name="circumflex_grave" format="2">
  <advance width="594"/>
  <anchor x="289" y="564" name="_top"/>
  <outline>
    <contour>
      <point x="431" y="828" type="curve" smooth="yes"/>
      <point x="518" y="707" type="line"/>
      <point x="521" y="693" type="line"/>
      <point x="508" y="693" type="line"/>
      <point x="386" y="797" type="line" smooth="yes"/>
      <point x="370" y="813"/>
      <point x="350" y="830"/>
      <point x="350" y="848" type="curve" smooth="yes"/>
      <point x="350" y="861"/>
      <point x="362" y="871"/>
      <point x="379" y="871" type="curve" smooth="yes"/>
      <point x="401" y="871"/>
      <point x="411" y="855"/>
    </contour>
    <component base="circumflex" xOffset="6"/>
  </outline>
</glyph>
<glyph name="circumflex_tilde" format="2">
  <advance width="583"/>
  <anchor x="288" y="551" name="_top"/>
  <outline>
    <contour>
      <point x="344" y="729" type="line"/>
      <point x="434" y="606" type="line"/>
      <point x="431" y="596" type="line"/>
      <point x="408" y="596" type="line"/>
      <point x="278" y="715" type="line"/>
      <point x="331" y="715" type="line"/>
      <point x="150" y="596" type="line"/>
      <point x="129" y="596" type="line"/>
      <point x="131" y="606" type="line"/>
      <point x="268" y="729" type="line"/>
    </contour>
    <contour>
      <point x="262" y="889" type="curve" smooth="yes"/>
      <point x="212" y="889"/>
      <point x="184" y="861"/>
      <point x="161" y="791" type="curve"/>
      <point x="190" y="779" type="line"/>
      <point x="207" y="833"/>
      <point x="224" y="855"/>
      <point x="255" y="855" type="curve" smooth="yes"/>
      <point x="307" y="855"/>
      <point x="304" y="780"/>
      <point x="377" y="780" type="curve" smooth="yes"/>
      <point x="428" y="780"/>
      <point x="456" y="812"/>
      <point x="482" y="878" type="curve"/>
      <point x="452" y="889" type="line"/>
      <point x="433" y="844"/>
      <point x="417" y="813"/>
      <point x="384" y="813" type="curve" smooth="yes"/>
      <point x="337" y="813"/>
      <point x="339" y="889"/>
    </contour>
  </outline>
</glyph>
<glyph name="currency.proportional" format="2">
  <advance width="740"/>
  <outline>
    <contour>
      <point x="370" y="171" type="curve"/>
      <point x="515" y="171"/>
      <point x="624" y="269"/>
      <point x="624" y="386" type="curve" smooth="yes"/>
      <point x="624" y="505"/>
      <point x="522" y="582"/>
      <point x="394" y="582" type="curve"/>
      <point x="248" y="582"/>
      <point x="139" y="484"/>
      <point x="139" y="367" type="curve"/>
      <point x="139" y="248"/>
      <point x="241" y="171"/>
    </contour>
    <contour>
      <point x="369" y="207" type="curve" smooth="yes"/>
      <point x="267" y="207"/>
      <point x="180" y="267"/>
      <point x="180" y="367" type="curve"/>
      <point x="180" y="467"/>
      <point x="266" y="546"/>
      <point x="394" y="546" type="curve" smooth="yes"/>
      <point x="497" y="546"/>
      <point x="582" y="486"/>
      <point x="582" y="386" type="curve" smooth="yes"/>
      <point x="582" y="286"/>
      <point x="498" y="207"/>
    </contour>
    <contour>
      <point x="80" y="126" type="line"/>
      <point x="227" y="234" type="line"/>
      <point x="193" y="256" type="line"/>
      <point x="54" y="155" type="line"/>
    </contour>
    <contour>
      <point x="238" y="503" type="line"/>
      <point x="270" y="528" type="line"/>
      <point x="177" y="626" type="line"/>
      <point x="146" y="600" type="line"/>
    </contour>
    <contour>
      <point x="575" y="495" type="line"/>
      <point x="715" y="597" type="line"/>
      <point x="689" y="626" type="line"/>
      <point x="539" y="517" type="line"/>
    </contour>
    <contour>
      <point x="590" y="126" type="line"/>
      <point x="622" y="151" type="line"/>
      <point x="536" y="243" type="line"/>
      <point x="501" y="220" type="line"/>
    </contour>
  </outline>
</glyph>
<glyph name="dblgrave" format="2">
  <advance width="583"/>
  <anchor x="280" y="539" name="_top"/>
  <outline>
    <contour>
      <point x="390" y="707" type="line" smooth="yes"/>
      <point x="375" y="736"/>
      <point x="364" y="754"/>
      <point x="342" y="754" type="curve" smooth="yes"/>
      <point x="324" y="754"/>
      <point x="315" y="744"/>
      <point x="315" y="731" type="curve" smooth="yes"/>
      <point x="315" y="715"/>
      <point x="328" y="697"/>
      <point x="343" y="680" type="curve" smooth="yes"/>
      <point x="437" y="576" type="line"/>
      <point x="454" y="576" type="line"/>
      <point x="452" y="594" type="line"/>
    </contour>
    <contour>
      <point x="241" y="707" type="line" smooth="yes"/>
      <point x="226" y="736"/>
      <point x="215" y="754"/>
      <point x="193" y="754" type="curve" smooth="yes"/>
      <point x="175" y="754"/>
      <point x="166" y="744"/>
      <point x="166" y="731" type="curve" smooth="yes"/>
      <point x="166" y="715"/>
      <point x="180" y="697"/>
      <point x="194" y="680" type="curve" smooth="yes"/>
      <point x="288" y="576" type="line"/>
      <point x="305" y="576" type="line"/>
      <point x="303" y="594" type="line"/>
    </contour>
  </outline>
</glyph>
<glyph name="dollar.alt" format="2">
  <advance width="652"/>
  <outline>
    <contour>
      <point x="567" y="200" type="curve" smooth="yes"/>
      <point x="567" y="305"/>
      <point x="462" y="343"/>
      <point x="377" y="378" type="curve" smooth="yes"/>
      <point x="282" y="417"/>
      <point x="187" y="444"/>
      <point x="187" y="532" type="curve" smooth="yes"/>
      <point x="187" y="618"/>
      <point x="261" y="667"/>
      <point x="392" y="667" type="curve" smooth="yes"/>
      <point x="500" y="667"/>
      <point x="579" y="632"/>
      <point x="602" y="592" type="curve"/>
      <point x="618" y="607"/>
      <point x="593" y="633"/>
      <point x="574" y="636" type="curve"/>
      <point x="556" y="550" type="line"/>
      <point x="607" y="550" type="line"/>
      <point x="623" y="633" type="line"/>
      <point x="596" y="658"/>
      <point x="519" y="698"/>
      <point x="392" y="698" type="curve" smooth="yes"/>
      <point x="244" y="698"/>
      <point x="142" y="635"/>
      <point x="142" y="532" type="curve" smooth="yes"/>
      <point x="142" y="430"/>
      <point x="235" y="391"/>
      <point x="318" y="356" type="curve" smooth="yes"/>
      <point x="412" y="316"/>
      <point x="522" y="288"/>
      <point x="522" y="199" type="curve" smooth="yes"/>
      <point x="522" y="95"/>
      <point x="436" y="39"/>
      <point x="308" y="39" type="curve" smooth="yes"/>
      <point x="191" y="39"/>
      <point x="88" y="70"/>
      <point x="34" y="138" type="curve"/>
      <point x="38" y="125"/>
      <point x="51" y="94"/>
      <point x="67" y="88" type="curve"/>
      <point x="86" y="182" type="line"/>
      <point x="36" y="182" type="line"/>
      <point x="18" y="97" type="line"/>
      <point x="63" y="55"/>
      <point x="166" y="8"/>
      <point x="307" y="8" type="curve" smooth="yes"/>
      <point x="467" y="8"/>
      <point x="567" y="85"/>
    </contour>
    <contour>
      <point x="389" y="684" type="line"/>
      <point x="428" y="684" type="line"/>
      <point x="449" y="787" type="line"/>
      <point x="409" y="787" type="line"/>
    </contour>
    <contour>
      <point x="262" y="-120" type="line"/>
      <point x="290" y="18" type="line"/>
      <point x="250" y="19" type="line"/>
      <point x="223" y="-120" type="line"/>
    </contour>
  </outline>
</glyph>
<glyph name="dollar.altprop" format="2">
  <advance width="681"/>
  <outline>
    <contour>
      <point x="326" y="8" type="curve" smooth="yes"/>
      <point x="495" y="8"/>
      <point x="602" y="85"/>
      <point x="602" y="199" type="curve" smooth="yes"/>
      <point x="602" y="305"/>
      <point x="489" y="343"/>
      <point x="396" y="378" type="curve" smooth="yes"/>
      <point x="293" y="417"/>
      <point x="191" y="444"/>
      <point x="191" y="532" type="curve" smooth="yes"/>
      <point x="191" y="618"/>
      <point x="271" y="667"/>
      <point x="411" y="667" type="curve" smooth="yes"/>
      <point x="528" y="667"/>
      <point x="607" y="632"/>
      <point x="631" y="593" type="curve"/>
      <point x="648" y="607"/>
      <point x="623" y="633"/>
      <point x="603" y="636" type="curve"/>
      <point x="585" y="550" type="line"/>
      <point x="637" y="550" type="line"/>
      <point x="652" y="634" type="line"/>
      <point x="622" y="658"/>
      <point x="547" y="698"/>
      <point x="411" y="698" type="curve" smooth="yes"/>
      <point x="254" y="698"/>
      <point x="146" y="635"/>
      <point x="146" y="532" type="curve" smooth="yes"/>
      <point x="146" y="430"/>
      <point x="246" y="392"/>
      <point x="335" y="356" type="curve" smooth="yes"/>
      <point x="440" y="317"/>
      <point x="557" y="289"/>
      <point x="557" y="199" type="curve" smooth="yes"/>
      <point x="557" y="95"/>
      <point x="463" y="39"/>
      <point x="330" y="39" type="curve" smooth="yes"/>
      <point x="205" y="39"/>
      <point x="104" y="70"/>
      <point x="45" y="138" type="curve"/>
      <point x="50" y="125"/>
      <point x="63" y="94"/>
      <point x="79" y="88" type="curve"/>
      <point x="98" y="182" type="line"/>
      <point x="48" y="182" type="line"/>
      <point x="30" y="97" type="line"/>
      <point x="77" y="54"/>
      <point x="179" y="8"/>
    </contour>
    <contour>
      <point x="242" y="-120" type="line"/>
      <point x="281" y="-120" type="line"/>
      <point x="309" y="18" type="line"/>
      <point x="270" y="19" type="line"/>
    </contour>
    <contour>
      <point x="408" y="684" type="line"/>
      <point x="447" y="684" type="line"/>
      <point x="468" y="787" type="line"/>
      <point x="429" y="787" type="line"/>
    </contour>
  </outline>
</glyph>
<glyph name="dollar.proportional" format="2">
  <advance width="715"/>
  <outline>
    <contour>
      <point x="334" y="8" type="curve" smooth="yes"/>
      <point x="492" y="8"/>
      <point x="610" y="75"/>
      <point x="610" y="198" type="curve" smooth="yes"/>
      <point x="610" y="300"/>
      <point x="499" y="340"/>
      <point x="405" y="375" type="curve" smooth="yes"/>
      <point x="296" y="415"/>
      <point x="196" y="446"/>
      <point x="196" y="534" type="curve" smooth="yes"/>
      <point x="196" y="615"/>
      <point x="273" y="667"/>
      <point x="420" y="667" type="curve" smooth="yes"/>
      <point x="514" y="667"/>
      <point x="617" y="652"/>
      <point x="650" y="605" type="curve"/>
      <point x="661" y="623"/>
      <point x="635" y="646"/>
      <point x="622" y="651" type="curve"/>
      <point x="602" y="552" type="line"/>
      <point x="655" y="552" type="line"/>
      <point x="674" y="643" type="line"/>
      <point x="629" y="671"/>
      <point x="548" y="698"/>
      <point x="425" y="698" type="curve" smooth="yes"/>
      <point x="259" y="698"/>
      <point x="159" y="634"/>
      <point x="159" y="531" type="curve" smooth="yes"/>
      <point x="159" y="431"/>
      <point x="258" y="392"/>
      <point x="347" y="356" type="curve" smooth="yes"/>
      <point x="454" y="314"/>
      <point x="573" y="287"/>
      <point x="573" y="195" type="curve" smooth="yes"/>
      <point x="573" y="92"/>
      <point x="478" y="39"/>
      <point x="341" y="39" type="curve" smooth="yes"/>
      <point x="214" y="39"/>
      <point x="111" y="66"/>
      <point x="58" y="127" type="curve"/>
      <point x="56" y="113"/>
      <point x="69" y="101"/>
      <point x="79" y="80" type="curve"/>
      <point x="101" y="185" type="line"/>
      <point x="50" y="185" type="line"/>
      <point x="31" y="97" type="line"/>
      <point x="81" y="54"/>
      <point x="176" y="8"/>
    </contour>
    <contour>
      <point x="446" y="787" type="line"/>
      <point x="426" y="688" type="line"/>
      <point x="424" y="679" type="line"/>
      <point x="290" y="30" type="line"/>
      <point x="288" y="25" type="line"/>
      <point x="260" y="-120" type="line"/>
      <point x="299" y="-120" type="line"/>
      <point x="328" y="21" type="line"/>
      <point x="329" y="27" type="line"/>
      <point x="463" y="675" type="line"/>
      <point x="465" y="688" type="line"/>
      <point x="486" y="787" type="line"/>
    </contour>
  </outline>
</glyph>
<glyph name="dong.proportional" format="2">
  <advance width="658"/>
  <outline>
    <contour>
      <point x="217" y="-11" type="curve" smooth="yes"/>
      <point x="332" y="-11"/>
      <point x="419" y="74"/>
      <point x="496" y="208" type="curve"/>
      <point x="490" y="240" type="line"/>
      <point x="412" y="113"/>
      <point x="328" y="20"/>
      <point x="218" y="20" type="curve" smooth="yes"/>
      <point x="126" y="20"/>
      <point x="91" y="94"/>
      <point x="91" y="185" type="curve" smooth="yes"/>
      <point x="91" y="344"/>
      <point x="187" y="487"/>
      <point x="358" y="487" type="curve" smooth="yes"/>
      <point x="444" y="487"/>
      <point x="512" y="437"/>
      <point x="524" y="348" type="curve"/>
      <point x="545" y="381" type="line"/>
      <point x="532" y="469"/>
      <point x="453" y="518"/>
      <point x="358" y="518" type="curve" smooth="yes"/>
      <point x="168" y="518"/>
      <point x="47" y="361"/>
      <point x="47" y="185" type="curve" smooth="yes"/>
      <point x="47" y="74"/>
      <point x="95" y="-11"/>
    </contour>
    <contour>
      <point x="531" y="-7" type="curve" smooth="yes"/>
      <point x="559" y="-7"/>
      <point x="593" y="4"/>
      <point x="606" y="13" type="curve"/>
      <point x="611" y="42" type="line"/>
      <point x="603" y="40"/>
      <point x="571" y="24"/>
      <point x="531" y="24" type="curve" smooth="yes"/>
      <point x="506" y="24"/>
      <point x="491" y="34"/>
      <point x="491" y="58" type="curve" smooth="yes"/>
      <point x="491" y="79"/>
      <point x="498" y="113"/>
      <point x="502" y="139" type="curve"/>
      <point x="625" y="735" type="line"/>
      <point x="583" y="735" type="line"/>
      <point x="471" y="174" type="line"/>
      <point x="469" y="172" type="line"/>
      <point x="459" y="136"/>
      <point x="449" y="85"/>
      <point x="449" y="58" type="curve" smooth="yes"/>
      <point x="449" y="12"/>
      <point x="483" y="-7"/>
    </contour>
    <contour>
      <point x="77" y="-126" type="line"/>
      <point x="71" y="-157" type="line"/>
      <point x="529" y="-157" type="line"/>
      <point x="535" y="-126" type="line"/>
    </contour>
    <contour>
      <point x="334" y="615" type="line"/>
      <point x="327" y="584" type="line"/>
      <point x="693" y="584" type="line"/>
      <point x="699" y="615" type="line"/>
    </contour>
  </outline>
</glyph>
<glyph name="eight.oldprop" format="2">
  <advance width="655"/>
  <outline>
    <contour>
      <point x="314" y="21" type="curve" smooth="yes"/>
      <point x="186" y="21"/>
      <point x="94" y="89"/>
      <point x="94" y="187" type="curve" smooth="yes"/>
      <point x="94" y="198"/>
      <point x="96" y="210"/>
      <point x="97" y="221" type="curve" smooth="yes"/>
      <point x="117" y="315"/>
      <point x="208" y="361"/>
      <point x="325" y="361" type="curve" smooth="yes"/>
      <point x="463" y="361"/>
      <point x="543" y="292"/>
      <point x="543" y="198" type="curve" smooth="yes"/>
      <point x="543" y="186"/>
      <point x="541" y="165"/>
      <point x="536" y="151" type="curve" smooth="yes"/>
      <point x="507" y="65"/>
      <point x="431" y="21"/>
    </contour>
    <contour>
      <point x="374" y="391" type="curve" smooth="yes"/>
      <point x="293" y="391"/>
      <point x="213" y="444"/>
      <point x="213" y="535" type="curve" smooth="yes"/>
      <point x="213" y="544"/>
      <point x="214" y="552"/>
      <point x="217" y="562" type="curve" smooth="yes"/>
      <point x="236" y="647"/>
      <point x="310" y="689"/>
      <point x="400" y="689" type="curve" smooth="yes"/>
      <point x="498" y="689"/>
      <point x="563" y="634"/>
      <point x="563" y="551" type="curve" smooth="yes"/>
      <point x="563" y="541"/>
      <point x="562" y="528"/>
      <point x="559" y="517" type="curve" smooth="yes"/>
      <point x="541" y="434"/>
      <point x="459" y="391"/>
    </contour>
    <contour>
      <point x="314" y="-10" type="curve" smooth="yes"/>
      <point x="471" y="-10"/>
      <point x="586" y="78"/>
      <point x="586" y="197" type="curve" smooth="yes"/>
      <point x="586" y="282"/>
      <point x="523" y="351"/>
      <point x="417" y="377" type="curve"/>
      <point x="427" y="367" type="line"/>
      <point x="429" y="378" type="line"/>
      <point x="417" y="370" type="line"/>
      <point x="525" y="384"/>
      <point x="605" y="456"/>
      <point x="605" y="551" type="curve" smooth="yes"/>
      <point x="605" y="648"/>
      <point x="520" y="720"/>
      <point x="399" y="720" type="curve" smooth="yes"/>
      <point x="262" y="720"/>
      <point x="171" y="637"/>
      <point x="171" y="535" type="curve" smooth="yes"/>
      <point x="171" y="459"/>
      <point x="228" y="404"/>
      <point x="300" y="380" type="curve"/>
      <point x="290" y="390" type="line"/>
      <point x="288" y="379" type="line"/>
      <point x="300" y="386" type="line"/>
      <point x="144" y="375"/>
      <point x="51" y="292"/>
      <point x="51" y="187" type="curve" smooth="yes"/>
      <point x="51" y="72"/>
      <point x="164" y="-10"/>
    </contour>
  </outline>
</glyph>
<glyph name="eight.oldtab" format="2">
  <advance width="652"/>
  <outline>
    <contour>
      <point x="322" y="21" type="curve" smooth="yes"/>
      <point x="194" y="21"/>
      <point x="102" y="90"/>
      <point x="102" y="187" type="curve" smooth="yes"/>
      <point x="102" y="198"/>
      <point x="103" y="208"/>
      <point x="105" y="219" type="curve" smooth="yes"/>
      <point x="126" y="313"/>
      <point x="216" y="361"/>
      <point x="332" y="361" type="curve"/>
      <point x="472" y="361"/>
      <point x="549" y="290"/>
      <point x="549" y="198" type="curve" smooth="yes"/>
      <point x="549" y="186"/>
      <point x="546" y="168"/>
      <point x="541" y="154" type="curve" smooth="yes"/>
      <point x="511" y="68"/>
      <point x="437" y="21"/>
    </contour>
    <contour>
      <point x="407" y="689" type="curve" smooth="yes"/>
      <point x="504" y="689"/>
      <point x="581" y="634"/>
      <point x="581" y="551" type="curve" smooth="yes"/>
      <point x="581" y="541"/>
      <point x="580" y="528"/>
      <point x="577" y="517" type="curve" smooth="yes"/>
      <point x="560" y="433"/>
      <point x="472" y="391"/>
      <point x="381" y="391" type="curve" smooth="yes"/>
      <point x="295" y="391"/>
      <point x="210" y="444"/>
      <point x="210" y="535" type="curve" smooth="yes"/>
      <point x="210" y="544"/>
      <point x="211" y="552"/>
      <point x="213" y="562" type="curve" smooth="yes"/>
      <point x="233" y="647"/>
      <point x="312" y="689"/>
    </contour>
    <contour>
      <point x="415" y="370" type="line"/>
      <point x="535" y="382"/>
      <point x="623" y="455"/>
      <point x="623" y="551" type="curve" smooth="yes"/>
      <point x="623" y="648"/>
      <point x="527" y="720"/>
      <point x="406" y="720" type="curve" smooth="yes"/>
      <point x="264" y="720"/>
      <point x="168" y="637"/>
      <point x="168" y="535" type="curve" smooth="yes"/>
      <point x="168" y="457"/>
      <point x="231" y="401"/>
      <point x="306" y="379" type="curve"/>
      <point x="289" y="390" type="line"/>
      <point x="287" y="380" type="line"/>
      <point x="307" y="386" type="line"/>
      <point x="151" y="377"/>
      <point x="58" y="289"/>
      <point x="58" y="187" type="curve" smooth="yes"/>
      <point x="58" y="74"/>
      <point x="172" y="-10"/>
      <point x="322" y="-10" type="curve" smooth="yes"/>
      <point x="478" y="-10"/>
      <point x="592" y="80"/>
      <point x="592" y="197" type="curve" smooth="yes"/>
      <point x="592" y="278"/>
      <point x="528" y="352"/>
      <point x="418" y="377" type="curve"/>
      <point x="435" y="368" type="line"/>
      <point x="438" y="376" type="line"/>
    </contour>
  </outline>
</glyph>
<glyph name="f.alt" format="2">
  <advance width="382"/>
  <outline>
    <contour>
      <point x="63" y="508" type="line"/>
      <point x="59" y="477" type="line"/>
      <point x="403" y="477" type="line"/>
      <point x="406" y="508" type="line"/>
    </contour>
    <contour>
      <point x="384" y="751" type="curve" smooth="yes"/>
      <point x="289" y="751"/>
      <point x="206" y="713"/>
      <point x="191" y="599" type="curve" smooth="yes"/>
      <point x="68" y="-223" type="line"/>
      <point x="104" y="-223" type="line"/>
      <point x="235" y="599" type="line" smooth="yes"/>
      <point x="250" y="693"/>
      <point x="313" y="720"/>
      <point x="384" y="720" type="curve" smooth="yes"/>
      <point x="434" y="720"/>
      <point x="478" y="707"/>
      <point x="504" y="681" type="curve"/>
      <point x="514" y="702"/>
      <point x="499" y="703"/>
      <point x="481" y="724" type="curve"/>
      <point x="469" y="637" type="line"/>
      <point x="520" y="637" type="line"/>
      <point x="530" y="714" type="line"/>
      <point x="506" y="730"/>
      <point x="458" y="751"/>
    </contour>
  </outline>
</glyph>
<glyph name="f.italic" format="2">
  <advance width="450"/>
  <outline>
    <contour>
      <point x="44" y="508" type="line"/>
      <point x="44" y="451" type="line"/>
      <point x="439" y="451" type="line"/>
      <point x="439" y="508" type="line"/>
    </contour>
    <contour>
      <point x="478" y="742" type="line"/>
      <point x="457" y="748"/>
      <point x="419" y="752"/>
      <point x="385" y="752" type="curve" smooth="yes"/>
      <point x="276" y="752"/>
      <point x="166" y="710"/>
      <point x="166" y="571" type="curve" smooth="yes"/>
      <point x="166" y="81" type="line" smooth="yes"/>
      <point x="166" y="52"/>
      <point x="127" y="45"/>
      <point x="63" y="45" type="curve" smooth="yes"/>
      <point x="50" y="45" type="line"/>
      <point x="50" y="0" type="line"/>
      <point x="395" y="0" type="line"/>
      <point x="395" y="45" type="line"/>
      <point x="380" y="45" type="line" smooth="yes"/>
      <point x="317" y="45"/>
      <point x="269" y="48"/>
      <point x="269" y="55" type="curve" smooth="yes"/>
      <point x="269" y="571" type="line" smooth="yes"/>
      <point x="269" y="673"/>
      <point x="318" y="696"/>
      <point x="384" y="696" type="curve" smooth="yes"/>
      <point x="420" y="696"/>
      <point x="453" y="687"/>
      <point x="478" y="679" type="curve"/>
    </contour>
  </outline>
</glyph>
<glyph name="f_f.short" format="2">
  <advance width="746"/>
  <outline>
    <contour>
      <point x="419" y="508" type="line"/>
      <point x="415" y="477" type="line"/>
      <point x="760" y="477" type="line"/>
      <point x="764" y="508" type="line"/>
    </contour>
    <contour>
      <point x="459" y="-223" type="line"/>
      <point x="591" y="600" type="line" smooth="yes"/>
      <point x="608" y="700"/>
      <point x="651" y="721"/>
      <point x="707" y="721" type="curve" smooth="yes"/>
      <point x="747" y="721"/>
      <point x="780" y="708"/>
      <point x="788" y="706" type="curve"/>
      <point x="795" y="739" type="line"/>
      <point x="787" y="742"/>
      <point x="757" y="752"/>
      <point x="707" y="752" type="curve" smooth="yes"/>
      <point x="641" y="752"/>
      <point x="565" y="721"/>
      <point x="548" y="605" type="curve" smooth="yes"/>
      <point x="424" y="-223" type="line"/>
    </contour>
    <contour>
      <point x="63" y="508" type="line"/>
      <point x="59" y="477" type="line"/>
      <point x="505" y="477" type="line"/>
      <point x="509" y="508" type="line"/>
    </contour>
    <contour>
      <point x="104" y="-223" type="line"/>
      <point x="232" y="585" type="line" smooth="yes"/>
      <point x="247" y="676"/>
      <point x="292" y="706"/>
      <point x="369" y="706" type="curve" smooth="yes"/>
      <point x="418" y="706"/>
      <point x="457" y="690"/>
      <point x="467" y="687" type="curve"/>
      <point x="474" y="720" type="line"/>
      <point x="466" y="724"/>
      <point x="430" y="737"/>
      <point x="369" y="737" type="curve" smooth="yes"/>
      <point x="281" y="737"/>
      <point x="206" y="698"/>
      <point x="190" y="590" type="curve" smooth="yes"/>
      <point x="68" y="-223" type="line"/>
    </contour>
  </outline>
</glyph>
<glyph name="f_f_j.alt" format="2">
  <advance width="986"/>
  <outline>
    <contour>
      <point x="63" y="508" type="line"/>
      <point x="59" y="477" type="line"/>
      <point x="505" y="477" type="line"/>
      <point x="509" y="508" type="line"/>
    </contour>
    <contour>
      <point x="648" y="-236" type="curve" smooth="yes"/>
      <point x="722" y="-236"/>
      <point x="794" y="-198"/>
      <point x="815" y="-86" type="curve" smooth="yes"/>
      <point x="925" y="508" type="line"/>
      <point x="419" y="508" type="line"/>
      <point x="415" y="477" type="line"/>
      <point x="785" y="477" type="line" smooth="yes"/>
      <point x="843" y="477"/>
      <point x="875" y="465"/>
      <point x="869" y="435" type="curve" smooth="yes"/>
      <point x="774" y="-84" type="line" smooth="yes"/>
      <point x="760" y="-163"/>
      <point x="719" y="-203"/>
      <point x="649" y="-203" type="curve" smooth="yes"/>
      <point x="627" y="-203"/>
      <point x="604" y="-197"/>
      <point x="584" y="-192" type="curve"/>
      <point x="576" y="-226" type="line"/>
      <point x="596" y="-232"/>
      <point x="619" y="-236"/>
    </contour>
    <contour>
      <point x="429" y="-194" type="line"/>
      <point x="465" y="-194" type="line"/>
      <point x="589" y="595" type="line" smooth="yes"/>
      <point x="604" y="689"/>
      <point x="683" y="720"/>
      <point x="772" y="720" type="curve" smooth="yes"/>
      <point x="830" y="720"/>
      <point x="885" y="706"/>
      <point x="914" y="677" type="curve"/>
      <point x="925" y="701"/>
      <point x="909" y="702"/>
      <point x="891" y="721" type="curve"/>
      <point x="877" y="637" type="line"/>
      <point x="927" y="637" type="line"/>
      <point x="938" y="710" type="line"/>
      <point x="913" y="729"/>
      <point x="857" y="751"/>
      <point x="772" y="751" type="curve" smooth="yes"/>
      <point x="657" y="751"/>
      <point x="564" y="709"/>
      <point x="547" y="595" type="curve" smooth="yes"/>
    </contour>
    <contour>
      <point x="68" y="-223" type="line"/>
      <point x="104" y="-223" type="line"/>
      <point x="231" y="579" type="line" smooth="yes"/>
      <point x="246" y="674"/>
      <point x="328" y="700"/>
      <point x="420" y="700" type="curve" smooth="yes"/>
      <point x="495" y="700"/>
      <point x="555" y="682"/>
      <point x="583" y="639" type="curve"/>
      <point x="596" y="663"/>
      <point x="571" y="693"/>
      <point x="559" y="680" type="curve"/>
      <point x="542" y="564" type="line"/>
      <point x="589" y="616" type="line"/>
      <point x="594" y="682" type="line"/>
      <point x="565" y="705"/>
      <point x="516" y="731"/>
      <point x="420" y="731" type="curve" smooth="yes"/>
      <point x="309" y="731"/>
      <point x="203" y="692"/>
      <point x="187" y="579" type="curve" smooth="yes"/>
    </contour>
  </outline>
</glyph>
<glyph name="f_f_j" format="2">
  <advance width="983"/>
  <outline>
    <contour>
      <point x="63" y="508" type="line"/>
      <point x="59" y="477" type="line"/>
      <point x="505" y="477" type="line"/>
      <point x="509" y="508" type="line"/>
    </contour>
    <contour>
      <point x="104" y="-223" type="line"/>
      <point x="232" y="585" type="line" smooth="yes"/>
      <point x="247" y="676"/>
      <point x="292" y="706"/>
      <point x="369" y="706" type="curve" smooth="yes"/>
      <point x="418" y="706"/>
      <point x="457" y="690"/>
      <point x="467" y="687" type="curve"/>
      <point x="474" y="720" type="line"/>
      <point x="466" y="724"/>
      <point x="430" y="737"/>
      <point x="369" y="737" type="curve" smooth="yes"/>
      <point x="281" y="737"/>
      <point x="206" y="698"/>
      <point x="190" y="590" type="curve" smooth="yes"/>
      <point x="68" y="-223" type="line"/>
    </contour>
    <contour>
      <point x="465" y="-193" type="line"/>
      <point x="591" y="600" type="line" smooth="yes"/>
      <point x="607" y="698"/>
      <point x="651" y="721"/>
      <point x="711" y="721" type="curve" smooth="yes"/>
      <point x="754" y="721"/>
      <point x="788" y="708"/>
      <point x="796" y="706" type="curve"/>
      <point x="803" y="739" type="line"/>
      <point x="795" y="742"/>
      <point x="764" y="752"/>
      <point x="711" y="752" type="curve" smooth="yes"/>
      <point x="641" y="752"/>
      <point x="564" y="720"/>
      <point x="548" y="606" type="curve" smooth="yes"/>
      <point x="429" y="-193" type="line"/>
    </contour>
    <contour>
      <point x="930" y="656" type="curve" smooth="yes"/>
      <point x="955" y="656"/>
      <point x="974" y="670"/>
      <point x="974" y="697" type="curve" smooth="yes"/>
      <point x="974" y="723"/>
      <point x="955" y="737"/>
      <point x="930" y="737" type="curve" smooth="yes"/>
      <point x="904" y="737"/>
      <point x="886" y="723"/>
      <point x="886" y="697" type="curve" smooth="yes"/>
      <point x="886" y="670"/>
      <point x="904" y="656"/>
    </contour>
    <contour>
      <point x="419" y="508" type="line"/>
      <point x="415" y="477" type="line"/>
      <point x="785" y="477" type="line" smooth="yes"/>
      <point x="843" y="477"/>
      <point x="875" y="465"/>
      <point x="869" y="435" type="curve" smooth="yes"/>
      <point x="774" y="-84" type="line" smooth="yes"/>
      <point x="760" y="-163"/>
      <point x="719" y="-203"/>
      <point x="649" y="-203" type="curve" smooth="yes"/>
      <point x="627" y="-203"/>
      <point x="604" y="-197"/>
      <point x="584" y="-192" type="curve"/>
      <point x="576" y="-226" type="line"/>
      <point x="596" y="-232"/>
      <point x="619" y="-236"/>
      <point x="648" y="-236" type="curve" smooth="yes"/>
      <point x="722" y="-236"/>
      <point x="794" y="-198"/>
      <point x="815" y="-86" type="curve" smooth="yes"/>
      <point x="925" y="508" type="line"/>
    </contour>
  </outline>
</glyph>
